<?xml version="1.0" standalone="no"?>
<!DOCTYPE svg PUBLIC "-//W3C//DTD SVG 20010904//EN"
 "http://www.w3.org/TR/2001/REC-SVG-20010904/DTD/svg10.dtd">
<svg version="1.0" xmlns="http://www.w3.org/2000/svg"
 width="700.000000pt" height="700.000000pt" viewBox="0 0 700.000000 700.000000"
 preserveAspectRatio="xMidYMid meet">
<metadata>
Created by potrace 1.14, written by Peter Selinger 2001-2017
</metadata>
<g transform="translate(0.000000,700.000000) scale(0.100000,-0.100000)"
fill="#000000" stroke="none">
<path d="M949 6990 c-206 -35 -413 -135 -578 -278 -144 -126 -281 -352 -338
-557 l-28 -100 0 -2555 0 -2555 28 -100 c56 -204 193 -429 338 -556 137 -120
299 -207 475 -256 l99 -28 2555 0 2555 0 99 28 c200 55 376 157 516 297 140
140 242 316 297 516 l28 99 0 2555 0 2555 -28 99 c-55 200 -157 376 -297 516
-138 138 -311 238 -510 297 l-95 28 -2535 1 c-1394 1 -2556 -2 -2581 -6z m294
-4690 c263 -81 379 -405 234 -652 -81 -138 -255 -223 -407 -199 -211 34 -362
214 -362 433 0 97 20 167 70 244 104 161 286 229 465 174z"/>
</g>
</svg>
