<svg xmlns="http://www.w3.org/2000/svg" version="1.1" xmlns:xlink="http://www.w3.org/1999/xlink" xmlns:svgjs="http://svgjs.com/svgjs" width="1000" height="1000"><style>
    #light-icon {
      display: inline;
    }
    #dark-icon {
      display: none;
    }

    @media (prefers-color-scheme: dark) {
      #light-icon {
        display: none;
      }
      #dark-icon {
        display: inline;
      }
    }
  </style><g id="light-icon"><svg xmlns="http://www.w3.org/2000/svg" version="1.1" xmlns:xlink="http://www.w3.org/1999/xlink" xmlns:svgjs="http://svgjs.com/svgjs" width="1000" height="1000"><rect width="1000" height="1000" rx="200" ry="200" fill="#e3e3e3"></rect><g transform="matrix(1.6,0,0,1.6,100.0000010092433,100.000724924542)"><svg xmlns="http://www.w3.org/2000/svg" version="1.1" xmlns:xlink="http://www.w3.org/1999/xlink" xmlns:svgjs="http://svgjs.com/svgjs" width="500" height="500"><svg width="500" height="500" viewBox="0 0 132.29166 132.29167" version="1.1" id="svg1" inkscape:version="1.3.2 (091e20e, 2023-11-25, custom)" sodipodi:docname="logo-b.svg" inkscape:export-filename="logo.png" inkscape:export-xdpi="18.431999" inkscape:export-ydpi="18.431999" xmlns:inkscape="http://www.inkscape.org/namespaces/inkscape" xmlns:sodipodi="http://sodipodi.sourceforge.net/DTD/sodipodi-0.dtd" xmlns="http://www.w3.org/2000/svg" xmlns:svg="http://www.w3.org/2000/svg">
  <sodipodi:namedview id="namedview1" pagecolor="#505050" bordercolor="#ffffff" borderopacity="1" inkscape:showpageshadow="0" inkscape:pageopacity="0" inkscape:pagecheckerboard="1" inkscape:deskcolor="#505050" inkscape:document-units="px" inkscape:zoom="1.4142135" inkscape:cx="50.204584" inkscape:cy="234.40591" inkscape:window-width="1920" inkscape:window-height="1009" inkscape:window-x="-8" inkscape:window-y="-8" inkscape:window-maximized="1" inkscape:current-layer="layer1" inkscape:export-bgcolor="#2f2f2f00"></sodipodi:namedview>
  <defs id="defs1">
    <inkscape:path-effect effect="bspline" id="path-effect33" is_visible="true" lpeversion="1.3" weight="33.333333" steps="2" helper_size="0" apply_no_weight="true" apply_with_weight="true" only_selected="false" uniform="false"></inkscape:path-effect>
    <inkscape:path-effect effect="bspline" id="path-effect31" is_visible="true" lpeversion="1.3" weight="33.333333" steps="2" helper_size="0" apply_no_weight="true" apply_with_weight="true" only_selected="false" uniform="false"></inkscape:path-effect>
  </defs>
  <g inkscape:label="Capa 1" inkscape:groupmode="layer" id="layer1" transform="translate(-83.337396,-106.14865)">
    <path id="path33-9" style="fill:#151515;fill-opacity:1;stroke:none;stroke-width:0.0502073;stroke-linecap:round;stroke-linejoin:round;stroke-dasharray:none;stroke-dashoffset:0;stroke-opacity:1;paint-order:stroke fill markers" d="m 93.259265,200.04745 a 9.921965,9.9214363 0 0 0 -9.921869,9.92133 9.921965,9.9214363 0 0 0 6.018817,9.10342 9.921965,9.9214363 0 0 0 0.04723,0.0166 9.921965,9.9214363 0 0 0 2.593446,0.71058 9.921965,9.9214363 0 0 0 0.183566,0.0125 9.921965,9.9214363 0 0 0 1.078814,0.0783 9.921965,9.9214363 0 0 0 9.921881,-9.92241 9.921965,9.9214363 0 0 0 -0.19652,-1.95893 9.921965,9.9214363 0 0 0 -0.0472,-0.21253 9.921965,9.9214363 0 0 0 -9.678208,-7.74988 z m 8.467345,11.30602 c -0.10863,0.21866 -0.22405,0.44089 -0.34779,0.66549 -0.12381,0.22462 -0.25546,0.45072 -0.39503,0.67842 0.13959,-0.2277 0.27129,-0.45377 0.39503,-0.67842 0.12381,-0.2246 0.23919,-0.44683 0.34779,-0.66549 z m -4.915302,5.78127 c -0.248418,0.17926 -0.500117,0.35374 -0.753563,0.52167 0.115288,-0.0764 0.228103,-0.15849 0.342434,-0.23721 0.01662,-0.0124 0.03366,-0.0226 0.05048,-0.0343 0.120272,-0.0836 0.241708,-0.1643 0.360672,-0.25011 z m -0.943569,0.47121 c -0.243785,0.0833 -0.508966,0.17075 -0.788979,0.25977 0.280013,-0.0891 0.545194,-0.17655 0.788979,-0.25977 z"></path>
    <path id="path14" style="fill:#151515;fill-opacity:1;stroke-width:6.2674;stroke-dasharray:none" d="m 176.45419,106.15474 a 8.4583944,11.000655 26.069318 0 0 -9.7428,8.11705 8.4583944,11.000655 26.069318 0 0 4.31522,12.70874 8.4583944,11.000655 26.069318 0 0 5.73628,-0.63345 8.4583944,11.000655 26.069318 0 0 0.0249,-0.0132 8.4583944,11.000655 26.069318 0 0 0.20792,-0.10548 8.4583944,11.000655 26.069318 0 0 0.10941,-0.0579 8.4583944,11.000655 26.069318 0 0 0.10837,-0.059 8.4583944,11.000655 26.069318 0 0 0.2307,-0.13025 8.4583944,11.000655 26.069318 0 0 0.0229,-0.0132 8.4583944,11.000655 26.069318 0 0 0.12786,-0.077 8.4583944,11.000655 26.069318 0 0 0.0168,-0.011 8.4583944,11.000655 26.069318 0 0 0.20248,-0.12697 8.4583944,11.000655 26.069318 0 0 0.12995,-0.0838 8.4583944,11.000655 26.069318 0 0 0.12136,-0.0816 8.4583944,11.000655 26.069318 0 0 0.20687,-0.14276 8.4583944,11.000655 26.069318 0 0 0.10291,-0.0748 8.4583944,11.000655 26.069318 0 0 0.26429,-0.19605 8.4583944,11.000655 26.069318 0 0 0.0748,-0.059 8.4583944,11.000655 26.069318 0 0 0.19828,-0.15986 8.4583944,11.000655 26.069318 0 0 0.15699,-0.12916 8.4583944,11.000655 26.069318 0 0 0.30761,-0.2697 8.4583944,11.000655 26.069318 0 0 0.0618,-0.0566 8.4583944,11.000655 26.069318 0 0 0.29895,-0.28329 8.4583944,11.000655 26.069318 0 0 0.0616,-0.0623 8.4583944,11.000655 26.069318 0 0 0.026,-0.025 8.4583944,11.000655 26.069318 0 0 0.21555,-0.22097 8.4583944,11.000655 26.069318 0 0 0.0738,-0.0783 8.4583944,11.000655 26.069318 0 0 0.0748,-0.0805 8.4583944,11.000655 26.069318 0 0 0.24259,-0.26972 8.4583944,11.000655 26.069318 0 0 0.0281,-0.0318 8.4583944,11.000655 26.069318 0 0 0.2708,-0.32297 8.4583944,11.000655 26.069318 0 0 0.0725,-0.0884 8.4583944,11.000655 26.069318 0 0 0.2567,-0.33202 8.4583944,11.000655 26.069318 0 0 0.0358,-0.0476 8.4583944,11.000655 26.069318 0 0 0.25018,-0.34678 8.4583944,11.000655 26.069318 0 0 0.0488,-0.0691 8.4583944,11.000655 26.069318 0 0 0.22746,-0.34222 8.4583944,11.000655 26.069318 0 0 0.0476,-0.0737 8.4583944,11.000655 26.069318 0 0 0.006,-0.009 8.4583944,11.000655 26.069318 0 0 0.21985,-0.3547 8.4583944,11.000655 26.069318 0 0 0.002,-0.004 8.4583944,11.000655 26.069318 0 0 0.0509,-0.0884 8.4583944,11.000655 26.069318 0 0 0.21662,-0.38189 8.4583944,11.000655 26.069318 0 0 0.21771,-0.41474 8.4583944,11.000655 26.069318 0 0 0.027,-0.0533 8.4583944,11.000655 26.069318 0 0 0.21012,-0.44081 8.4583944,11.000655 26.069318 0 0 0.19702,-0.45329 8.4583944,11.000655 26.069318 0 0 0.0105,-0.0226 8.4583944,11.000655 26.069318 0 0 0.18194,-0.46123 8.4583944,11.000655 26.069318 0 0 0.39966,-1.26464 8.4583944,11.000655 26.069318 0 0 0.11905,-0.53032 8.4583944,11.000655 26.069318 0 0 0.15175,-0.73544 8.4583944,11.000655 26.069318 0 0 0.0855,-0.65499 8.4583944,11.000655 26.069318 0 0 0.0585,-0.60966 8.4583944,11.000655 26.069318 0 0 0.0249,-0.69579 8.4583944,11.000655 26.069318 0 0 -0.008,-0.54052 8.4583944,11.000655 26.069318 0 0 -0.0455,-0.72299 8.4583944,11.000655 26.069318 0 0 -0.0585,-0.43401 8.4583944,11.000655 26.069318 0 0 -0.13331,-0.77962 8.4583944,11.000655 26.069318 0 0 -0.0595,-0.22326 8.4583944,11.000655 26.069318 0 0 -0.24802,-0.86234 8.4583944,11.000655 26.069318 0 0 -0.40943,-0.97455 8.4583944,11.000655 26.069318 0 0 -0.50798,-0.8805 8.4583944,11.000655 26.069318 0 0 -0.006,-0.009 8.4583944,11.000655 26.069318 0 0 -3.67833,-2.79105 8.4583944,11.000655 26.069318 0 0 -2.23992,-0.2799 z"></path>
    <path id="path3-5" style="fill:#151515;fill-opacity:1;stroke-width:6.04501;stroke-dasharray:none" d="m 154.58606,176.86898 c -0.12346,0.0197 -0.31329,0.15877 -0.55024,0.43511 h -0.001 c -7.90065,7.6551 -19.59098,10.80378 -20.27088,10.9716 -0.48996,0.12083 -0.56295,0.7136 -0.23289,0.90765 2.93052,1.7229 6.27858,5.93504 1.20662,18.97985 -3.25627,8.37504 -9.41404,16.84053 -12.13653,22.03149 -0.67281,1.28284 -1.12963,2.35849 -1.42542,3.27378 -0.079,0.24433 -0.15196,0.48375 -0.20792,0.70488 -0.0147,0.0599 -0.0233,0.11293 -0.0369,0.17104 0.56992,-0.24507 1.19891,-0.52278 1.88034,-0.83629 -0.68143,0.31351 -1.31042,0.59122 -1.88034,0.83629 -0.50732,2.18122 0.0983,3.22223 0.9835,3.75654 1.32312,0.79862 3.25737,0.47811 7.17577,-4.18035 1.54156,-1.83273 3.39103,-4.34632 5.28354,-7.13794 0.12094,-0.1785 0.24264,-0.36535 0.36393,-0.54624 0.001,-0.002 0.002,-0.004 0.004,-0.007 2.80246,-4.17643 5.66261,-8.90908 7.7336,-12.99315 1.99103,-3.92647 3.16183,-7.24677 4.04768,-10.21914 0.69958,-2.34735 1.22541,-4.4828 1.80992,-6.49317 1.68685,-5.80178 3.52487,-13.18047 6.2237,-18.85293 0.25649,-0.53908 0.23603,-0.83643 0.0304,-0.8034 z m -20.76589,44.45054 c -0.62566,0.79022 -1.24025,1.54507 -1.83809,2.25167 -0.59784,0.70654 -1.17837,1.36565 -1.74276,1.98195 -0.56438,0.61628 -1.11322,1.18945 -1.64636,1.72585 -0.53316,0.53639 -1.05129,1.03568 -1.5554,1.50261 0.50411,-0.46693 1.02224,-0.96622 1.5554,-1.50261 0.53314,-0.5364 1.08198,-1.10957 1.64636,-1.72585 0.56439,-0.6163 1.14492,-1.27539 1.74276,-1.98195 0.59784,-0.7066 1.21243,-1.46145 1.83809,-2.25167 z m -0.20583,6.03313 c -0.38698,0.28169 -0.78128,0.56001 -1.1817,0.83289 -0.40044,0.2729 -0.80778,0.54036 -1.21853,0.80232 -0.41077,0.26196 -0.8249,0.51811 -1.24129,0.76827 0.41639,-0.25016 0.83052,-0.50631 1.24129,-0.76827 0.33657,-0.21468 0.66856,-0.43526 0.99864,-0.65727 0.0727,-0.0489 0.14755,-0.0958 0.21989,-0.14494 0.40042,-0.2729 0.79472,-0.5512 1.1817,-0.8329 z"></path>
    <path id="path21" style="fill:#151515;fill-opacity:1;stroke-width:6.04501;stroke-dasharray:none" d="m 150.85954,130.62326 c -0.93429,-0.0221 -1.87023,-0.011 -2.80532,0.0443 -7.48063,0.42594 -14.90972,3.40766 -21.67788,6.92154 -6.76816,3.51386 -12.87425,7.56063 -15.97842,10.54208 -3.10418,2.98144 -3.20682,4.89802 -2.23993,5.85632 0.9669,0.95835 3.00313,0.95804 6.33635,-0.85214 3.33322,-1.81021 7.96314,-5.43077 13.7645,-8.38563 5.80134,-2.95486 12.77283,-5.24433 14.19773,-1.94342 0.77344,1.79176 0.92796,4.01225 -0.19115,7.36165 -0.64413,1.39551 -1.0785,3.45099 0.92854,1.45033 2.7297,-2.72096 9.13364,-8.05338 13.42945,-10.03069 5.90142,-2.71636 13.99787,-3.24725 18.09198,-3.5551 1.5332,-0.11535 1.55441,-0.91186 0.28602,-1.4658 -6.55984,-2.59281 -16.13602,-5.75698 -24.14182,-5.94318 z" sodipodi:nodetypes="scsssssscssscss"></path>
    <path style="fill:#151515;fill-opacity:1;stroke:none;stroke-width:0.0264583;stroke-linecap:round;stroke-linejoin:round;stroke-dasharray:none;stroke-dashoffset:0;stroke-opacity:1;paint-order:stroke fill markers" d="m 101.29946,130.10687 c -1.687715,0.58703 -6.850558,4.44238 -9.077602,6.9019 -2.227045,2.45953 -1.518167,3.52305 -0.674354,3.86697 0.843814,0.34392 1.822461,-0.0318 3.155751,-1.15064 1.33329,-1.11884 3.021102,-2.9807 4.758782,-5.25233 1.737683,-2.27164 3.525143,-4.95294 1.837423,-4.3659 z" id="path31" inkscape:path-effect="#path-effect31" inkscape:original-d="m 104.77467,126.83849 c -5.162925,3.85541 -10.325767,7.71076 -15.488774,11.56623 0.708917,1.06358 1.417797,2.1271 2.126717,3.19069 0.978704,-0.37575 1.957349,-0.75148 2.936054,-1.12722 1.687879,-1.86193 3.375688,-3.72379 5.063533,-5.58568 1.78752,-2.68138 3.57498,-5.36268 5.36247,-8.04402 z" transform="matrix(-2.0952555,-0.05828234,0.05570787,-2.1920849,307.7747,474.09265)" sodipodi:nodetypes="cccccc"></path>
    <path style="fill:#151515;fill-opacity:1;stroke:none;stroke-width:0.0264583;stroke-linecap:round;stroke-linejoin:round;stroke-dasharray:none;stroke-dashoffset:0;stroke-opacity:1;paint-order:stroke fill markers" d="m 128.56118,122.90326 c -2.51153,-0.0761 -5.64714,0.0152 -8.75233,1.14925 -3.1052,1.13401 -5.1595,2.5883 -7.8659,5.86234 -2.70641,3.27403 -3.0295,4.16875 -8.76777,7.38504 -5.738269,3.21629 -9.641907,4.27663 -12.684967,5.93727 -3.04306,1.66064 -1.124183,2.39164 3.031342,1.76755 4.155526,-0.6241 10.241285,-2.72895 14.139325,-4.2185 3.89803,-1.48954 5.63324,-2.37236 7.70338,-4.00107 2.07013,-1.62872 4.47506,-4.00321 6.07332,-5.70802 1.59825,-1.70481 2.38975,-2.73984 3.31826,-3.36392 0.92852,-0.62408 1.994,-0.83718 3.72926,-0.94373 1.73526,-0.10655 4.1402,-0.10655 6.95851,-0.55075 2.81831,-0.4442 6.04973,-1.33253 8.08964,-2.1333 2.03992,-0.80077 2.88801,-1.51385 2.71627,-1.94467 -0.17173,-0.43083 -1.36329,-0.57934 -3.43363,-0.31134 -2.07034,0.268 -5.01927,0.9525 -7.43751,1.17299 -2.41825,0.22049 -4.30566,-0.023 -6.8172,-0.0991 z" id="path32" inkscape:path-effect="#path-effect33" inkscape:original-d="m 129.18526,122.73583 c -3.13561,0.0913 -6.27122,0.18266 -9.40682,0.27399 -3.07479,2.1767 -5.12909,3.63099 -9.22417,6.52998 -1.31773,3.64908 -1.64082,4.5438 -2.96818,8.21956 -10.149178,2.75682 -14.052817,3.81716 -22.695108,6.16466 2.556171,0.97378 4.475049,1.70478 6.712638,2.5572 6.073459,-2.10061 12.15922,-4.20547 18.22002,-6.30169 1.73527,-0.88286 3.47048,-1.76568 5.20572,-2.64852 2.40503,-2.37459 4.80996,-4.74908 7.21494,-7.12362 0.79153,-1.03508 1.58303,-2.07011 2.37454,-3.10517 1.06552,-0.2131 2.131,-0.4262 3.1965,-0.6393 2.40502,0 4.80996,0 7.21494,0 3.23164,-0.88839 6.46306,-1.77673 9.69474,-2.66514 0.84815,-0.71313 1.69624,-1.42621 2.54438,-2.13933 -1.19161,-0.14853 -2.38317,-0.29704 -3.57479,-0.44557 -2.94906,0.68453 -5.89799,1.36903 -8.84699,2.05355 -1.88854,-0.23539 -3.77636,-0.47576 -5.66236,-0.7306 z" transform="matrix(2.0959959,0,0,2.1928596,-90.954588,-126.2199)" sodipodi:nodetypes="ccccccccccccccccc"></path>
  </g>
</svg></svg></g></svg></g><g id="dark-icon"><svg xmlns="http://www.w3.org/2000/svg" version="1.1" xmlns:xlink="http://www.w3.org/1999/xlink" xmlns:svgjs="http://svgjs.com/svgjs" width="1000" height="1000"><rect width="1000" height="1000" rx="200" ry="200" fill="#2e2e2e"></rect><g transform="matrix(1.6,0,0,1.6,99.99999286321327,99.99994095930595)"><svg xmlns="http://www.w3.org/2000/svg" version="1.1" xmlns:xlink="http://www.w3.org/1999/xlink" xmlns:svgjs="http://svgjs.com/svgjs" width="500" height="500"><svg width="500" height="500" viewBox="0 0 132.29166 132.29167" version="1.1" id="svg1" inkscape:version="1.3.2 (091e20e, 2023-11-25, custom)" sodipodi:docname="logo.svg" inkscape:export-filename="logo.png" inkscape:export-xdpi="18.431999" inkscape:export-ydpi="18.431999" xmlns:inkscape="http://www.inkscape.org/namespaces/inkscape" xmlns:sodipodi="http://sodipodi.sourceforge.net/DTD/sodipodi-0.dtd" xmlns="http://www.w3.org/2000/svg" xmlns:svg="http://www.w3.org/2000/svg">
  <sodipodi:namedview id="namedview1" pagecolor="#505050" bordercolor="#ffffff" borderopacity="1" inkscape:showpageshadow="0" inkscape:pageopacity="0" inkscape:pagecheckerboard="1" inkscape:deskcolor="#505050" inkscape:document-units="px" inkscape:zoom="1.4142135" inkscape:cx="50.204584" inkscape:cy="178.54447" inkscape:window-width="1920" inkscape:window-height="1009" inkscape:window-x="-8" inkscape:window-y="-8" inkscape:window-maximized="1" inkscape:current-layer="layer1" inkscape:export-bgcolor="#2f2f2f00"></sodipodi:namedview>
  <defs id="defs1">
    <inkscape:path-effect effect="bspline" id="path-effect33" is_visible="true" lpeversion="1.3" weight="33.333333" steps="2" helper_size="0" apply_no_weight="true" apply_with_weight="true" only_selected="false" uniform="false"></inkscape:path-effect>
    <inkscape:path-effect effect="bspline" id="path-effect31" is_visible="true" lpeversion="1.3" weight="33.333333" steps="2" helper_size="0" apply_no_weight="true" apply_with_weight="true" only_selected="false" uniform="false"></inkscape:path-effect>
  </defs>
  <g inkscape:label="Capa 1" inkscape:groupmode="layer" id="layer1" transform="translate(-83.337396,-106.14865)">
    <g id="g1" transform="matrix(2.0959959,0,0,2.1928596,-91.337436,-126.62044)">
      <path id="path33-9" style="fill:#ffffff;fill-opacity:1;stroke:none;stroke-width:0.0241708;stroke-linecap:round;stroke-linejoin:round;stroke-dasharray:none;stroke-dashoffset:0;stroke-opacity:1;paint-order:stroke fill markers" d="m 88.113845,148.96893 a 4.7764993,4.7764993 0 0 0 -4.776453,4.77645 4.7764993,4.7764993 0 0 0 2.897498,4.38268 4.7764993,4.7764993 0 0 0 0.02274,0.008 4.7764993,4.7764993 0 0 0 1.248502,0.3421 4.7764993,4.7764993 0 0 0 0.08837,0.006 4.7764993,4.7764993 0 0 0 0.519348,0.0377 4.7764993,4.7764993 0 0 0 4.776452,-4.77697 4.7764993,4.7764993 0 0 0 -0.0946,-0.94309 4.7764993,4.7764993 0 0 0 -0.0227,-0.10232 4.7764993,4.7764993 0 0 0 -4.659146,-3.73104 z m 4.076237,5.44308 c -0.0523,0.10527 -0.10786,0.21226 -0.16743,0.32039 -0.0596,0.10814 -0.12298,0.21699 -0.19017,0.32661 0.0672,-0.10962 0.1306,-0.21846 0.19017,-0.32661 0.0596,-0.10813 0.11515,-0.21512 0.16743,-0.32039 z m -2.36626,2.78329 c -0.11959,0.0863 -0.24076,0.1703 -0.36277,0.25115 0.0555,-0.0368 0.10981,-0.0763 0.16485,-0.1142 0.008,-0.006 0.0162,-0.0109 0.0243,-0.0165 0.0579,-0.0402 0.11636,-0.0791 0.17363,-0.12041 z m -0.45424,0.22686 c -0.11736,0.0401 -0.24502,0.0822 -0.37982,0.12506 0.1348,-0.0429 0.26246,-0.085 0.37982,-0.12506 z"></path>
      <path id="path14" style="fill:#d8ff00;fill-opacity:1;stroke-width:2.92339;stroke-dasharray:none" d="m 127.76343,106.15143 a 3.9949445,5.0675082 30.476627 0 0 -4.64829,3.70158 3.9949445,5.0675082 30.476627 0 0 2.05879,5.79551 3.9949445,5.0675082 30.476627 0 0 2.73678,-0.28887 3.9949445,5.0675082 30.476627 0 0 0.0119,-0.006 3.9949445,5.0675082 30.476627 0 0 0.0992,-0.0481 3.9949445,5.0675082 30.476627 0 0 0.0522,-0.0264 3.9949445,5.0675082 30.476627 0 0 0.0517,-0.0269 3.9949445,5.0675082 30.476627 0 0 0.11007,-0.0594 3.9949445,5.0675082 30.476627 0 0 0.0109,-0.006 3.9949445,5.0675082 30.476627 0 0 0.061,-0.0351 3.9949445,5.0675082 30.476627 0 0 0.008,-0.005 3.9949445,5.0675082 30.476627 0 0 0.0966,-0.0579 3.9949445,5.0675082 30.476627 0 0 0.062,-0.0382 3.9949445,5.0675082 30.476627 0 0 0.0579,-0.0372 3.9949445,5.0675082 30.476627 0 0 0.0987,-0.0651 3.9949445,5.0675082 30.476627 0 0 0.0491,-0.0341 3.9949445,5.0675082 30.476627 0 0 0.12609,-0.0894 3.9949445,5.0675082 30.476627 0 0 0.0357,-0.0269 3.9949445,5.0675082 30.476627 0 0 0.0946,-0.0729 3.9949445,5.0675082 30.476627 0 0 0.0749,-0.0589 3.9949445,5.0675082 30.476627 0 0 0.14676,-0.12299 3.9949445,5.0675082 30.476627 0 0 0.0295,-0.0258 3.9949445,5.0675082 30.476627 0 0 0.14263,-0.12919 3.9949445,5.0675082 30.476627 0 0 0.0294,-0.0284 3.9949445,5.0675082 30.476627 0 0 0.0124,-0.0114 3.9949445,5.0675082 30.476627 0 0 0.10284,-0.10077 3.9949445,5.0675082 30.476627 0 0 0.0352,-0.0357 3.9949445,5.0675082 30.476627 0 0 0.0357,-0.0367 3.9949445,5.0675082 30.476627 0 0 0.11574,-0.123 3.9949445,5.0675082 30.476627 0 0 0.0134,-0.0145 3.9949445,5.0675082 30.476627 0 0 0.1292,-0.14728 3.9949445,5.0675082 30.476627 0 0 0.0346,-0.0403 3.9949445,5.0675082 30.476627 0 0 0.12247,-0.15141 3.9949445,5.0675082 30.476627 0 0 0.0171,-0.0217 3.9949445,5.0675082 30.476627 0 0 0.11936,-0.15814 3.9949445,5.0675082 30.476627 0 0 0.0233,-0.0315 3.9949445,5.0675082 30.476627 0 0 0.10852,-0.15606 3.9949445,5.0675082 30.476627 0 0 0.0227,-0.0336 3.9949445,5.0675082 30.476627 0 0 0.003,-0.004 3.9949445,5.0675082 30.476627 0 0 0.10489,-0.16175 3.9949445,5.0675082 30.476627 0 0 0.001,-0.002 3.9949445,5.0675082 30.476627 0 0 0.0243,-0.0403 3.9949445,5.0675082 30.476627 0 0 0.10335,-0.17415 3.9949445,5.0675082 30.476627 0 0 0.10387,-0.18913 3.9949445,5.0675082 30.476627 0 0 0.0129,-0.0243 3.9949445,5.0675082 30.476627 0 0 0.10025,-0.20102 3.9949445,5.0675082 30.476627 0 0 0.094,-0.20671 3.9949445,5.0675082 30.476627 0 0 0.005,-0.0103 3.9949445,5.0675082 30.476627 0 0 0.0868,-0.21033 3.9949445,5.0675082 30.476627 0 0 0.19068,-0.57671 3.9949445,5.0675082 30.476627 0 0 0.0568,-0.24184 3.9949445,5.0675082 30.476627 0 0 0.0724,-0.33538 3.9949445,5.0675082 30.476627 0 0 0.0408,-0.29869 3.9949445,5.0675082 30.476627 0 0 0.0279,-0.27802 3.9949445,5.0675082 30.476627 0 0 0.0119,-0.3173 3.9949445,5.0675082 30.476627 0 0 -0.004,-0.24649 3.9949445,5.0675082 30.476627 0 0 -0.0217,-0.3297 3.9949445,5.0675082 30.476627 0 0 -0.0279,-0.19792 3.9949445,5.0675082 30.476627 0 0 -0.0636,-0.35553 3.9949445,5.0675082 30.476627 0 0 -0.0284,-0.10181 3.9949445,5.0675082 30.476627 0 0 -0.11833,-0.39325 3.9949445,5.0675082 30.476627 0 0 -0.19534,-0.44442 3.9949445,5.0675082 30.476627 0 0 -0.24236,-0.40153 3.9949445,5.0675082 30.476627 0 0 -0.003,-0.004 3.9949445,5.0675082 30.476627 0 0 -1.75493,-1.27279 3.9949445,5.0675082 30.476627 0 0 -1.06867,-0.12764 z"></path>
      <path id="path3-5" style="fill:#d8ff00;fill-opacity:1;stroke-width:2.81966;stroke-dasharray:none" d="m 117.33014,138.39893 c -0.0589,0.009 -0.14947,0.0724 -0.26252,0.19842 h -5.2e-4 c -3.7694,3.49092 -9.34686,4.9268 -9.67124,5.00333 -0.23376,0.0551 -0.26858,0.32542 -0.11111,0.41391 1.39815,0.78569 2.99551,2.70653 0.57568,8.6553 -1.55357,3.81923 -4.49144,7.67971 -5.79034,10.04692 -0.321,0.58501 -0.53895,1.07553 -0.68007,1.49293 -0.0377,0.11142 -0.0725,0.2206 -0.0992,0.32144 -0.007,0.0273 -0.0111,0.0515 -0.0176,0.078 0.27191,-0.11176 0.572,-0.2384 0.89711,-0.38137 -0.32511,0.14297 -0.6252,0.26961 -0.89711,0.38137 -0.24204,0.99469 0.0469,1.46942 0.46923,1.71308 0.63126,0.36419 1.55409,0.21803 3.42356,-1.90635 0.73548,-0.83577 1.61786,-1.98203 2.52078,-3.25508 0.0577,-0.0814 0.11576,-0.16661 0.17363,-0.2491 5.7e-4,-8.1e-4 9.8e-4,-0.002 0.002,-0.003 1.33705,-1.90456 2.70163,-4.06277 3.6897,-5.92521 0.94992,-1.79057 1.50851,-3.30471 1.93115,-4.66019 0.33377,-1.07045 0.58464,-2.04427 0.86351,-2.96105 0.8048,-2.64576 1.68172,-6.01063 2.96933,-8.59742 0.12237,-0.24583 0.11261,-0.38143 0.0145,-0.36637 z m -9.90741,20.27058 c -0.2985,0.36036 -0.59172,0.70459 -0.87695,1.02682 -0.28523,0.3222 -0.5622,0.62277 -0.83147,0.90382 -0.26927,0.28104 -0.53112,0.54242 -0.78548,0.78703 -0.25437,0.24461 -0.50157,0.4723 -0.74208,0.68523 0.24051,-0.21293 0.48771,-0.44062 0.74208,-0.68523 0.25436,-0.24461 0.51621,-0.50599 0.78548,-0.78703 0.26927,-0.28105 0.54624,-0.58161 0.83147,-0.90382 0.28523,-0.32223 0.57845,-0.66646 0.87695,-1.02682 z m -0.0982,2.75126 c -0.18463,0.12846 -0.37275,0.25538 -0.56379,0.37982 -0.19105,0.12445 -0.38539,0.24642 -0.58136,0.36588 -0.19598,0.11946 -0.39356,0.23627 -0.59222,0.35035 0.19866,-0.11408 0.39624,-0.23089 0.59222,-0.35035 0.16058,-0.0979 0.31897,-0.19849 0.47645,-0.29973 0.0347,-0.0223 0.0704,-0.0437 0.10491,-0.0661 0.19104,-0.12445 0.37916,-0.25136 0.56379,-0.37982 z"></path>
      <path id="path21" style="fill:#d8ff00;fill-opacity:1;stroke-width:2.81966;stroke-dasharray:none" d="m 115.55222,117.3097 c -0.44575,-0.0101 -0.89229,-0.005 -1.33842,0.0202 -3.56901,0.19424 -7.11343,1.55398 -10.34252,3.1564 -3.22909,1.60241 -6.142306,3.44784 -7.623308,4.80746 -1.481002,1.35961 -1.529974,2.23362 -1.068669,2.67063 0.461305,0.43703 1.432792,0.43689 3.023072,-0.3886 1.590278,-0.8255 3.799215,-2.47657 6.567045,-3.82406 2.76782,-1.34749 6.09392,-2.39155 6.77374,-0.88625 0.36901,0.81709 0.44273,1.82969 -0.0912,3.3571 -0.30731,0.63639 -0.51455,1.57374 0.44301,0.66139 1.30234,-1.24083 4.35766,-3.67255 6.40719,-4.57425 2.81557,-1.23873 6.67839,-1.48083 8.63169,-1.62122 0.73149,-0.0526 0.74161,-0.41583 0.13646,-0.66844 -3.1297,-1.18239 -7.6985,-2.62533 -11.51807,-2.71024 z" sodipodi:nodetypes="scsssssscssscss"></path>
      <path style="fill:#d8ff00;fill-opacity:0.99854;stroke:none;stroke-width:0.0264583;stroke-linecap:round;stroke-linejoin:round;stroke-dasharray:none;stroke-dashoffset:0;stroke-opacity:1;paint-order:stroke fill markers" d="m 101.29946,130.10687 c -1.687715,0.58703 -6.850558,4.44238 -9.077602,6.9019 -2.227045,2.45953 -1.518167,3.52305 -0.674354,3.86697 0.843814,0.34392 1.822461,-0.0318 3.155751,-1.15064 1.33329,-1.11884 3.021102,-2.9807 4.758782,-5.25233 1.737683,-2.27164 3.525143,-4.95294 1.837423,-4.3659 z" id="path31" inkscape:path-effect="#path-effect31" inkscape:original-d="m 104.77467,126.83849 c -5.162925,3.85541 -10.325767,7.71076 -15.488774,11.56623 0.708917,1.06358 1.417797,2.1271 2.126717,3.19069 0.978704,-0.37575 1.957349,-0.75148 2.936054,-1.12722 1.687879,-1.86193 3.375688,-3.72379 5.063533,-5.58568 1.78752,-2.68138 3.57498,-5.36268 5.36247,-8.04402 z" transform="rotate(-178.477,97.02877,135.7048)" sodipodi:nodetypes="cccccc"></path>
      <path style="fill:#ececec;fill-opacity:0.99854;stroke:none;stroke-width:0.0264583;stroke-linecap:round;stroke-linejoin:round;stroke-dasharray:none;stroke-dashoffset:0;stroke-opacity:1;paint-order:stroke fill markers" d="m 128.56118,122.90326 c -2.51153,-0.0761 -5.64714,0.0152 -8.75233,1.14925 -3.1052,1.13401 -5.1595,2.5883 -7.8659,5.86234 -2.70641,3.27403 -3.0295,4.16875 -8.76777,7.38504 -5.738269,3.21629 -9.641907,4.27663 -12.684967,5.93727 -3.04306,1.66064 -1.124183,2.39164 3.031342,1.76755 4.155526,-0.6241 10.241285,-2.72895 14.139325,-4.2185 3.89803,-1.48954 5.63324,-2.37236 7.70338,-4.00107 2.07013,-1.62872 4.47506,-4.00321 6.07332,-5.70802 1.59825,-1.70481 2.38975,-2.73984 3.31826,-3.36392 0.92852,-0.62408 1.994,-0.83718 3.72926,-0.94373 1.73526,-0.10655 4.1402,-0.10655 6.95851,-0.55075 2.81831,-0.4442 6.04973,-1.33253 8.08964,-2.1333 2.03992,-0.80077 2.88801,-1.51385 2.71627,-1.94467 -0.17173,-0.43083 -1.36329,-0.57934 -3.43363,-0.31134 -2.07034,0.268 -5.01927,0.9525 -7.43751,1.17299 -2.41825,0.22049 -4.30566,-0.023 -6.8172,-0.0991 z" id="path32" inkscape:path-effect="#path-effect33" inkscape:original-d="m 129.18526,122.73583 c -3.13561,0.0913 -6.27122,0.18266 -9.40682,0.27399 -3.07479,2.1767 -5.12909,3.63099 -9.22417,6.52998 -1.31773,3.64908 -1.64082,4.5438 -2.96818,8.21956 -10.149178,2.75682 -14.052817,3.81716 -22.695108,6.16466 2.556171,0.97378 4.475049,1.70478 6.712638,2.5572 6.073459,-2.10061 12.15922,-4.20547 18.22002,-6.30169 1.73527,-0.88286 3.47048,-1.76568 5.20572,-2.64852 2.40503,-2.37459 4.80996,-4.74908 7.21494,-7.12362 0.79153,-1.03508 1.58303,-2.07011 2.37454,-3.10517 1.06552,-0.2131 2.131,-0.4262 3.1965,-0.6393 2.40502,0 4.80996,0 7.21494,0 3.23164,-0.88839 6.46306,-1.77673 9.69474,-2.66514 0.84815,-0.71313 1.69624,-1.42621 2.54438,-2.13933 -1.19161,-0.14853 -2.38317,-0.29704 -3.57479,-0.44557 -2.94906,0.68453 -5.89799,1.36903 -8.84699,2.05355 -1.88854,-0.23539 -3.77636,-0.47576 -5.66236,-0.7306 z" transform="translate(0.18265683,0.18265683)" sodipodi:nodetypes="ccccccccccccccccc"></path>
    </g>
  </g>
</svg></svg></g></svg></g></svg>