<?xml version="1.0" encoding="UTF-8" standalone="no"?>
<!-- Created with Inkscape (http://www.inkscape.org/) -->

<svg
   width="500.00003"
   height="500.00003"
   viewBox="0 0 132.29167 132.29168"
   version="1.1"
   id="svg1"
   inkscape:version="1.3.2 (091e20e, 2023-11-25, custom)"
   sodipodi:docname="favicon.svg"
   inkscape:export-filename="favicon.png"
   inkscape:export-xdpi="18.431999"
   inkscape:export-ydpi="18.431999"
   xmlns:inkscape="http://www.inkscape.org/namespaces/inkscape"
   xmlns:sodipodi="http://sodipodi.sourceforge.net/DTD/sodipodi-0.dtd"
   xmlns="http://www.w3.org/2000/svg"
   xmlns:svg="http://www.w3.org/2000/svg">
  <sodipodi:namedview
     id="namedview1"
     pagecolor="#505050"
     bordercolor="#ffffff"
     borderopacity="1"
     inkscape:showpageshadow="0"
     inkscape:pageopacity="0"
     inkscape:pagecheckerboard="1"
     inkscape:deskcolor="#505050"
     inkscape:document-units="px"
     inkscape:zoom="0.70710675"
     inkscape:cx="197.98991"
     inkscape:cy="123.74369"
     inkscape:window-width="1920"
     inkscape:window-height="1009"
     inkscape:window-x="-8"
     inkscape:window-y="-8"
     inkscape:window-maximized="1"
     inkscape:current-layer="layer1"
     inkscape:export-bgcolor="#2f2f2f00" />
  <defs
     id="defs1">
    <inkscape:path-effect
       effect="bspline"
       id="path-effect33"
       is_visible="true"
       lpeversion="1.3"
       weight="33.333333"
       steps="2"
       helper_size="0"
       apply_no_weight="true"
       apply_with_weight="true"
       only_selected="false"
       uniform="false" />
    <inkscape:path-effect
       effect="bspline"
       id="path-effect31"
       is_visible="true"
       lpeversion="1.3"
       weight="33.333333"
       steps="2"
       helper_size="0"
       apply_no_weight="true"
       apply_with_weight="true"
       only_selected="false"
       uniform="false" />
  </defs>
  <g
     inkscape:label="Capa 1"
     inkscape:groupmode="layer"
     id="layer1"
     transform="translate(-81.116524,-106.64584)">
    <rect
       width="132.29167"
       height="132.29167"
       rx="26.45833"
       ry="26.45833"
       fill="#e3e3e3"
       id="rect1"
       x="81.116524"
       y="106.64584"
       style="stroke-width:0.132291" />
    <g
       id="g1"
       transform="matrix(0.79999997,0,0,0.79999638,27.67578,34.956957)">
      <path
         id="path33-9"
         style="fill:#151515;fill-opacity:1;stroke:none;stroke-width:0.0502073;stroke-linecap:round;stroke-linejoin:round;stroke-dasharray:none;stroke-dashoffset:0;stroke-opacity:1;paint-order:stroke fill markers"
         d="m 93.259265,200.04745 a 9.921965,9.9214363 0 0 0 -9.921869,9.92133 9.921965,9.9214363 0 0 0 6.018817,9.10342 9.921965,9.9214363 0 0 0 0.04723,0.0166 9.921965,9.9214363 0 0 0 2.593446,0.71058 9.921965,9.9214363 0 0 0 0.183566,0.0125 9.921965,9.9214363 0 0 0 1.078814,0.0783 9.921965,9.9214363 0 0 0 9.921881,-9.92241 9.921965,9.9214363 0 0 0 -0.19652,-1.95893 9.921965,9.9214363 0 0 0 -0.0472,-0.21253 9.921965,9.9214363 0 0 0 -9.678208,-7.74988 z m 8.467345,11.30602 c -0.10863,0.21866 -0.22405,0.44089 -0.34779,0.66549 -0.12381,0.22462 -0.25546,0.45072 -0.39503,0.67842 0.13959,-0.2277 0.27129,-0.45377 0.39503,-0.67842 0.12381,-0.2246 0.23919,-0.44683 0.34779,-0.66549 z m -4.915302,5.78127 c -0.248418,0.17926 -0.500117,0.35374 -0.753563,0.52167 0.115288,-0.0764 0.228103,-0.15849 0.342434,-0.23721 0.01662,-0.0124 0.03366,-0.0226 0.05048,-0.0343 0.120272,-0.0836 0.241708,-0.1643 0.360672,-0.25011 z m -0.943569,0.47121 c -0.243785,0.0833 -0.508966,0.17075 -0.788979,0.25977 0.280013,-0.0891 0.545194,-0.17655 0.788979,-0.25977 z" />
      <path
         id="path14"
         style="fill:#151515;fill-opacity:1;stroke-width:6.2674;stroke-dasharray:none"
         d="m 176.45419,106.15474 a 8.4583944,11.000655 26.069318 0 0 -9.7428,8.11705 8.4583944,11.000655 26.069318 0 0 4.31522,12.70874 8.4583944,11.000655 26.069318 0 0 5.73628,-0.63345 8.4583944,11.000655 26.069318 0 0 0.0249,-0.0132 8.4583944,11.000655 26.069318 0 0 0.20792,-0.10548 8.4583944,11.000655 26.069318 0 0 0.10941,-0.0579 8.4583944,11.000655 26.069318 0 0 0.10837,-0.059 8.4583944,11.000655 26.069318 0 0 0.2307,-0.13025 8.4583944,11.000655 26.069318 0 0 0.0229,-0.0132 8.4583944,11.000655 26.069318 0 0 0.12786,-0.077 8.4583944,11.000655 26.069318 0 0 0.0168,-0.011 8.4583944,11.000655 26.069318 0 0 0.20248,-0.12697 8.4583944,11.000655 26.069318 0 0 0.12995,-0.0838 8.4583944,11.000655 26.069318 0 0 0.12136,-0.0816 8.4583944,11.000655 26.069318 0 0 0.20687,-0.14276 8.4583944,11.000655 26.069318 0 0 0.10291,-0.0748 8.4583944,11.000655 26.069318 0 0 0.26429,-0.19605 8.4583944,11.000655 26.069318 0 0 0.0748,-0.059 8.4583944,11.000655 26.069318 0 0 0.19828,-0.15986 8.4583944,11.000655 26.069318 0 0 0.15699,-0.12916 8.4583944,11.000655 26.069318 0 0 0.30761,-0.2697 8.4583944,11.000655 26.069318 0 0 0.0618,-0.0566 8.4583944,11.000655 26.069318 0 0 0.29895,-0.28329 8.4583944,11.000655 26.069318 0 0 0.0616,-0.0623 8.4583944,11.000655 26.069318 0 0 0.026,-0.025 8.4583944,11.000655 26.069318 0 0 0.21555,-0.22097 8.4583944,11.000655 26.069318 0 0 0.0738,-0.0783 8.4583944,11.000655 26.069318 0 0 0.0748,-0.0805 8.4583944,11.000655 26.069318 0 0 0.24259,-0.26972 8.4583944,11.000655 26.069318 0 0 0.0281,-0.0318 8.4583944,11.000655 26.069318 0 0 0.2708,-0.32297 8.4583944,11.000655 26.069318 0 0 0.0725,-0.0884 8.4583944,11.000655 26.069318 0 0 0.2567,-0.33202 8.4583944,11.000655 26.069318 0 0 0.0358,-0.0476 8.4583944,11.000655 26.069318 0 0 0.25018,-0.34678 8.4583944,11.000655 26.069318 0 0 0.0488,-0.0691 8.4583944,11.000655 26.069318 0 0 0.22746,-0.34222 8.4583944,11.000655 26.069318 0 0 0.0476,-0.0737 8.4583944,11.000655 26.069318 0 0 0.006,-0.009 8.4583944,11.000655 26.069318 0 0 0.21985,-0.3547 8.4583944,11.000655 26.069318 0 0 0.002,-0.004 8.4583944,11.000655 26.069318 0 0 0.0509,-0.0884 8.4583944,11.000655 26.069318 0 0 0.21662,-0.38189 8.4583944,11.000655 26.069318 0 0 0.21771,-0.41474 8.4583944,11.000655 26.069318 0 0 0.027,-0.0533 8.4583944,11.000655 26.069318 0 0 0.21012,-0.44081 8.4583944,11.000655 26.069318 0 0 0.19702,-0.45329 8.4583944,11.000655 26.069318 0 0 0.0105,-0.0226 8.4583944,11.000655 26.069318 0 0 0.18194,-0.46123 8.4583944,11.000655 26.069318 0 0 0.39966,-1.26464 8.4583944,11.000655 26.069318 0 0 0.11905,-0.53032 8.4583944,11.000655 26.069318 0 0 0.15175,-0.73544 8.4583944,11.000655 26.069318 0 0 0.0855,-0.65499 8.4583944,11.000655 26.069318 0 0 0.0585,-0.60966 8.4583944,11.000655 26.069318 0 0 0.0249,-0.69579 8.4583944,11.000655 26.069318 0 0 -0.008,-0.54052 8.4583944,11.000655 26.069318 0 0 -0.0455,-0.72299 8.4583944,11.000655 26.069318 0 0 -0.0585,-0.43401 8.4583944,11.000655 26.069318 0 0 -0.13331,-0.77962 8.4583944,11.000655 26.069318 0 0 -0.0595,-0.22326 8.4583944,11.000655 26.069318 0 0 -0.24802,-0.86234 8.4583944,11.000655 26.069318 0 0 -0.40943,-0.97455 8.4583944,11.000655 26.069318 0 0 -0.50798,-0.8805 8.4583944,11.000655 26.069318 0 0 -0.006,-0.009 8.4583944,11.000655 26.069318 0 0 -3.67833,-2.79105 8.4583944,11.000655 26.069318 0 0 -2.23992,-0.2799 z" />
      <path
         id="path3-5"
         style="fill:#151515;fill-opacity:1;stroke-width:6.04501;stroke-dasharray:none"
         d="m 154.58606,176.86898 c -0.12346,0.0197 -0.31329,0.15877 -0.55024,0.43511 h -0.001 c -7.90065,7.6551 -19.59098,10.80378 -20.27088,10.9716 -0.48996,0.12083 -0.56295,0.7136 -0.23289,0.90765 2.93052,1.7229 6.27858,5.93504 1.20662,18.97985 -3.25627,8.37504 -9.41404,16.84053 -12.13653,22.03149 -0.67281,1.28284 -1.12963,2.35849 -1.42542,3.27378 -0.079,0.24433 -0.15196,0.48375 -0.20792,0.70488 -0.0147,0.0599 -0.0233,0.11293 -0.0369,0.17104 0.56992,-0.24507 1.19891,-0.52278 1.88034,-0.83629 -0.68143,0.31351 -1.31042,0.59122 -1.88034,0.83629 -0.50732,2.18122 0.0983,3.22223 0.9835,3.75654 1.32312,0.79862 3.25737,0.47811 7.17577,-4.18035 1.54156,-1.83273 3.39103,-4.34632 5.28354,-7.13794 0.12094,-0.1785 0.24264,-0.36535 0.36393,-0.54624 0.001,-0.002 0.002,-0.004 0.004,-0.007 2.80246,-4.17643 5.66261,-8.90908 7.7336,-12.99315 1.99103,-3.92647 3.16183,-7.24677 4.04768,-10.21914 0.69958,-2.34735 1.22541,-4.4828 1.80992,-6.49317 1.68685,-5.80178 3.52487,-13.18047 6.2237,-18.85293 0.25649,-0.53908 0.23603,-0.83643 0.0304,-0.8034 z m -20.76589,44.45054 c -0.62566,0.79022 -1.24025,1.54507 -1.83809,2.25167 -0.59784,0.70654 -1.17837,1.36565 -1.74276,1.98195 -0.56438,0.61628 -1.11322,1.18945 -1.64636,1.72585 -0.53316,0.53639 -1.05129,1.03568 -1.5554,1.50261 0.50411,-0.46693 1.02224,-0.96622 1.5554,-1.50261 0.53314,-0.5364 1.08198,-1.10957 1.64636,-1.72585 0.56439,-0.6163 1.14492,-1.27539 1.74276,-1.98195 0.59784,-0.7066 1.21243,-1.46145 1.83809,-2.25167 z m -0.20583,6.03313 c -0.38698,0.28169 -0.78128,0.56001 -1.1817,0.83289 -0.40044,0.2729 -0.80778,0.54036 -1.21853,0.80232 -0.41077,0.26196 -0.8249,0.51811 -1.24129,0.76827 0.41639,-0.25016 0.83052,-0.50631 1.24129,-0.76827 0.33657,-0.21468 0.66856,-0.43526 0.99864,-0.65727 0.0727,-0.0489 0.14755,-0.0958 0.21989,-0.14494 0.40042,-0.2729 0.79472,-0.5512 1.1817,-0.8329 z" />
      <path
         id="path21"
         style="fill:#151515;fill-opacity:1;stroke-width:6.04501;stroke-dasharray:none"
         d="m 150.85954,130.62326 c -0.93429,-0.0221 -1.87023,-0.011 -2.80532,0.0443 -7.48063,0.42594 -14.90972,3.40766 -21.67788,6.92154 -6.76816,3.51386 -12.87425,7.56063 -15.97842,10.54208 -3.10418,2.98144 -3.20682,4.89802 -2.23993,5.85632 0.9669,0.95835 3.00313,0.95804 6.33635,-0.85214 3.33322,-1.81021 7.96314,-5.43077 13.7645,-8.38563 5.80134,-2.95486 12.77283,-5.24433 14.19773,-1.94342 0.77344,1.79176 0.92796,4.01225 -0.19115,7.36165 -0.64413,1.39551 -1.0785,3.45099 0.92854,1.45033 2.7297,-2.72096 9.13364,-8.05338 13.42945,-10.03069 5.90142,-2.71636 13.99787,-3.24725 18.09198,-3.5551 1.5332,-0.11535 1.55441,-0.91186 0.28602,-1.4658 -6.55984,-2.59281 -16.13602,-5.75698 -24.14182,-5.94318 z"
         sodipodi:nodetypes="scsssssscssscss" />
      <path
         style="fill:#151515;fill-opacity:1;stroke:none;stroke-width:0.0264583;stroke-linecap:round;stroke-linejoin:round;stroke-dasharray:none;stroke-dashoffset:0;stroke-opacity:1;paint-order:stroke fill markers"
         d="m 101.29946,130.10687 c -1.687715,0.58703 -6.850558,4.44238 -9.077602,6.9019 -2.227045,2.45953 -1.518167,3.52305 -0.674354,3.86697 0.843814,0.34392 1.822461,-0.0318 3.155751,-1.15064 1.33329,-1.11884 3.021102,-2.9807 4.758782,-5.25233 1.737683,-2.27164 3.525143,-4.95294 1.837423,-4.3659 z"
         id="path31"
         inkscape:path-effect="#path-effect31"
         inkscape:original-d="m 104.77467,126.83849 c -5.162925,3.85541 -10.325767,7.71076 -15.488774,11.56623 0.708917,1.06358 1.417797,2.1271 2.126717,3.19069 0.978704,-0.37575 1.957349,-0.75148 2.936054,-1.12722 1.687879,-1.86193 3.375688,-3.72379 5.063533,-5.58568 1.78752,-2.68138 3.57498,-5.36268 5.36247,-8.04402 z"
         transform="matrix(-2.0952555,-0.05828234,0.05570787,-2.1920849,307.7747,474.09265)"
         sodipodi:nodetypes="cccccc" />
      <path
         style="fill:#151515;fill-opacity:1;stroke:none;stroke-width:0.0264583;stroke-linecap:round;stroke-linejoin:round;stroke-dasharray:none;stroke-dashoffset:0;stroke-opacity:1;paint-order:stroke fill markers"
         d="m 128.56118,122.90326 c -2.51153,-0.0761 -5.64714,0.0152 -8.75233,1.14925 -3.1052,1.13401 -5.1595,2.5883 -7.8659,5.86234 -2.70641,3.27403 -3.0295,4.16875 -8.76777,7.38504 -5.738269,3.21629 -9.641907,4.27663 -12.684967,5.93727 -3.04306,1.66064 -1.124183,2.39164 3.031342,1.76755 4.155526,-0.6241 10.241285,-2.72895 14.139325,-4.2185 3.89803,-1.48954 5.63324,-2.37236 7.70338,-4.00107 2.07013,-1.62872 4.47506,-4.00321 6.07332,-5.70802 1.59825,-1.70481 2.38975,-2.73984 3.31826,-3.36392 0.92852,-0.62408 1.994,-0.83718 3.72926,-0.94373 1.73526,-0.10655 4.1402,-0.10655 6.95851,-0.55075 2.81831,-0.4442 6.04973,-1.33253 8.08964,-2.1333 2.03992,-0.80077 2.88801,-1.51385 2.71627,-1.94467 -0.17173,-0.43083 -1.36329,-0.57934 -3.43363,-0.31134 -2.07034,0.268 -5.01927,0.9525 -7.43751,1.17299 -2.41825,0.22049 -4.30566,-0.023 -6.8172,-0.0991 z"
         id="path32"
         inkscape:path-effect="#path-effect33"
         inkscape:original-d="m 129.18526,122.73583 c -3.13561,0.0913 -6.27122,0.18266 -9.40682,0.27399 -3.07479,2.1767 -5.12909,3.63099 -9.22417,6.52998 -1.31773,3.64908 -1.64082,4.5438 -2.96818,8.21956 -10.149178,2.75682 -14.052817,3.81716 -22.695108,6.16466 2.556171,0.97378 4.475049,1.70478 6.712638,2.5572 6.073459,-2.10061 12.15922,-4.20547 18.22002,-6.30169 1.73527,-0.88286 3.47048,-1.76568 5.20572,-2.64852 2.40503,-2.37459 4.80996,-4.74908 7.21494,-7.12362 0.79153,-1.03508 1.58303,-2.07011 2.37454,-3.10517 1.06552,-0.2131 2.131,-0.4262 3.1965,-0.6393 2.40502,0 4.80996,0 7.21494,0 3.23164,-0.88839 6.46306,-1.77673 9.69474,-2.66514 0.84815,-0.71313 1.69624,-1.42621 2.54438,-2.13933 -1.19161,-0.14853 -2.38317,-0.29704 -3.57479,-0.44557 -2.94906,0.68453 -5.89799,1.36903 -8.84699,2.05355 -1.88854,-0.23539 -3.77636,-0.47576 -5.66236,-0.7306 z"
         transform="matrix(2.0959959,0,0,2.1928596,-90.954588,-126.2199)"
         sodipodi:nodetypes="ccccccccccccccccc" />
    </g>
  </g>
</svg>
