<?xml version="1.0" encoding="UTF-8" standalone="no"?>
<!-- Created with Inkscape (http://www.inkscape.org/) -->

<svg
   width="500"
   height="500"
   viewBox="0 0 132.29166 132.29167"
   version="1.1"
   id="svg1"
   xmlns="http://www.w3.org/2000/svg"
   xmlns:svg="http://www.w3.org/2000/svg">
  <defs
     id="defs1" />
  <g
     id="g1">
    <path
       id="path14"
       style="fill:#d8ff00;fill-opacity:1;stroke-width:6.2674;stroke-dasharray:none"
       d="m 93.116805,0.00610233 a 8.4583944,11.000655 26.069318 0 0 -9.742796,8.11704527 8.4583944,11.000655 26.069318 0 0 4.315215,12.7087394 8.4583944,11.000655 26.069318 0 0 5.73628,-0.633451 8.4583944,11.000655 26.069318 0 0 0.02494,-0.01316 8.4583944,11.000655 26.069318 0 0 0.207923,-0.105477 8.4583944,11.000655 26.069318 0 0 0.109411,-0.05789 8.4583944,11.000655 26.069318 0 0 0.108363,-0.05899 8.4583944,11.000655 26.069318 0 0 0.230706,-0.130256 8.4583944,11.000655 26.069318 0 0 0.02285,-0.01316 8.4583944,11.000655 26.069318 0 0 0.127856,-0.07697 8.4583944,11.000655 26.069318 0 0 0.01677,-0.01096 8.4583944,11.000655 26.069318 0 0 0.202473,-0.126966 8.4583944,11.000655 26.069318 0 0 0.129952,-0.08377 8.4583944,11.000655 26.069318 0 0 0.121358,-0.08157 8.4583944,11.000655 26.069318 0 0 0.206875,-0.142755 8.4583944,11.000655 26.069318 0 0 0.102913,-0.07478 8.4583944,11.000655 26.069318 0 0 0.264285,-0.196041 8.4583944,11.000655 26.069318 0 0 0.07483,-0.05899 8.4583944,11.000655 26.069318 0 0 0.198281,-0.15986 8.4583944,11.000655 26.069318 0 0 0.15699,-0.129159 8.4583944,11.000655 26.069318 0 0 0.307608,-0.2697 8.4583944,11.000655 26.069318 0 0 0.06183,-0.05658 8.4583944,11.000655 26.069318 0 0 0.298952,-0.283295 8.4583944,11.000655 26.069318 0 0 0.06162,-0.06228 8.4583944,11.000655 26.069318 0 0 0.02599,-0.025 8.4583944,11.000655 26.069318 0 0 0.215552,-0.220975 8.4583944,11.000655 26.069318 0 0 0.07378,-0.07828 8.4583944,11.000655 26.069318 0 0 0.07483,-0.08048 8.4583944,11.000655 26.069318 0 0 0.242591,-0.269721 8.4583944,11.000655 26.069318 0 0 0.02809,-0.0318 8.4583944,11.000655 26.069318 0 0 0.270803,-0.322964 8.4583944,11.000655 26.069318 0 0 0.07252,-0.08837 8.4583944,11.000655 26.069318 0 0 0.256697,-0.332021 8.4583944,11.000655 26.069318 0 0 0.03584,-0.04759 8.4583944,11.000655 26.069318 0 0 0.250178,-0.346779 8.4583944,11.000655 26.069318 0 0 0.04884,-0.06908 8.4583944,11.000655 26.069318 0 0 0.227457,-0.342218 8.4583944,11.000655 26.069318 0 0 0.04758,-0.07368 8.4583944,11.000655 26.069318 0 0 0.0063,-0.0088 8.4583944,11.000655 26.069318 0 0 0.219849,-0.354695 8.4583944,11.000655 26.069318 0 0 0.0021,-0.0044 8.4583944,11.000655 26.069318 0 0 0.05093,-0.08837 8.4583944,11.000655 26.069318 0 0 0.216621,-0.381887 8.4583944,11.000655 26.069318 0 0 0.217712,-0.414735 8.4583944,11.000655 26.069318 0 0 0.02704,-0.05329 8.4583944,11.000655 26.069318 0 0 0.210124,-0.440809 8.4583944,11.000655 26.069318 0 0 0.197023,-0.453286 8.4583944,11.000655 26.069318 0 0 0.01048,-0.02259 8.4583944,11.000655 26.069318 0 0 0.181933,-0.461224 8.4583944,11.000655 26.069318 0 0 0.39967,-1.264644 8.4583944,11.000655 26.069318 0 0 0.11905,-0.530321 8.4583944,11.000655 26.069318 0 0 0.15175,-0.735442 8.4583944,11.000655 26.069318 0 0 0.0855,-0.6549849 8.4583944,11.000655 26.069318 0 0 0.0585,-0.6096588 8.4583944,11.000655 26.069318 0 0 0.025,-0.6957944 8.4583944,11.000655 26.069318 0 0 -0.008,-0.5405179 8.4583944,11.000655 26.069318 0 0 -0.0455,-0.7229859 8.4583944,11.000655 26.069318 0 0 -0.0585,-0.4340107 8.4583944,11.000655 26.069318 0 0 -0.1333,-0.7796274 8.4583944,11.000655 26.069318 0 0 -0.0595,-0.223255 8.4583944,11.000655 26.069318 0 0 -0.248022,-0.8623421 8.4583944,11.000655 26.069318 0 0 -0.409432,-0.9745506 8.4583944,11.000655 26.069318 0 0 -0.507986,-0.880499 8.4583944,11.000655 26.069318 0 0 -0.0063,-0.00877 8.4583944,11.000655 26.069318 0 0 -3.678326,-2.79104976 8.4583944,11.000655 26.069318 0 0 -2.239928,-0.2798966 z" />
    <path
       id="path3-5"
       style="fill:#d8ff00;fill-opacity:1;stroke-width:6.04501;stroke-dasharray:none"
       d="m 69.535531,72.256726 c -7.961116,6.878671 -18.455118,9.708907 -19.109069,9.870324 -0.48996,0.120826 -0.562942,0.7136 -0.232886,0.907646 2.930517,1.722908 6.278577,5.935041 1.206623,18.979854 -3.256276,8.37504 -9.41404,16.84053 -12.136529,22.03149 -0.672815,1.28284 -1.129637,2.35849 -1.425424,3.27378 -0.07902,0.24433 -0.151959,0.48375 -0.207923,0.70488 -0.01467,0.0599 -0.02326,0.11293 -0.03689,0.17104 0.569922,-0.24507 1.19891,-0.52278 1.880339,-0.83629 -0.681429,0.31351 -1.310417,0.59122 -1.880339,0.83629 -0.507315,2.18122 0.0983,3.22223 0.983504,3.75654 1.323118,0.79862 3.257366,0.47811 7.175768,-4.18035 1.541563,-1.83273 3.391028,-4.34632 5.283544,-7.13794 0.120939,-0.1785 0.242633,-0.36535 0.363928,-0.54624 0.0012,-0.002 0.0021,-0.004 0.0042,-0.007 2.802451,-4.17643 5.662605,-8.90908 7.733596,-12.99315 1.991029,-3.92647 3.161831,-7.246765 4.047683,-10.219143 0.69958,-2.347346 1.225403,-4.482797 1.809913,-6.493167 1.535275,-5.280449 2.478955,-12.246485 5.417793,-17.336704 0.602767,-1.04402 0.190107,-1.705102 -0.877824,-0.78228 z M 50.482782,115.17088 c -0.625655,0.79022 -1.240243,1.54507 -1.838084,2.25167 -0.597841,0.70654 -1.178369,1.36565 -1.742758,1.98195 -0.564388,0.61628 -1.113225,1.18945 -1.646363,1.72585 -0.533158,0.53639 -1.051288,1.03568 -1.555396,1.50261 0.504108,-0.46693 1.022238,-0.96622 1.555396,-1.50261 0.533138,-0.5364 1.081975,-1.10957 1.646363,-1.72585 0.564389,-0.6163 1.144917,-1.27539 1.742758,-1.98195 0.597841,-0.7066 1.212429,-1.46145 1.838084,-2.25167 z m -0.205827,6.03313 c -0.386984,0.28169 -0.781283,0.56001 -1.181702,0.83289 -0.40044,0.2729 -0.807776,0.54036 -1.218528,0.80232 -0.410773,0.26196 -0.8249,0.51811 -1.241291,0.76827 0.416391,-0.25016 0.830518,-0.50631 1.241291,-0.76827 0.336575,-0.21468 0.66856,-0.43526 0.998637,-0.65727 0.07273,-0.0489 0.147559,-0.0958 0.219891,-0.14494 0.400419,-0.2729 0.794718,-0.5512 1.181702,-0.8329 z" />
    <path
       id="path21"
       style="fill:#d8ff00;fill-opacity:1;stroke-width:6.04501;stroke-dasharray:none"
       d="m 67.522159,24.474622 c -0.93429,-0.02215 -1.870236,-0.01096 -2.805322,0.0443 -7.480631,0.425941 -14.909721,3.40766 -21.67788,6.921542 -6.768159,3.51386 -12.874248,7.560629 -15.978422,10.542084 -3.104174,2.981434 -3.20682,4.898015 -2.239926,5.856317 0.966893,0.958346 3.003126,0.958039 6.336346,-0.852145 3.333217,-1.810206 7.963139,-5.43077 13.7645,-8.385627 5.801339,-2.954856 12.772831,-5.244333 14.197731,-1.943422 0.773443,1.791764 0.92796,4.012254 -0.191155,7.361649 -0.64412,1.395514 -1.078494,3.450991 0.928547,1.450336 2.7297,-2.720966 9.133638,-8.053387 13.429444,-10.030688 5.901423,-2.716361 13.997878,-3.247253 18.091987,-3.555108 1.5332,-0.115345 1.554412,-0.911857 0.28602,-1.465795 C 85.10419,27.82525 75.528004,24.661085 67.522201,24.474889 Z" />
    <path
       style="fill:#d8ff00;fill-opacity:0.99854;stroke:none;stroke-width:0.0567234;stroke-linecap:round;stroke-linejoin:round;stroke-dasharray:none;stroke-dashoffset:0;stroke-opacity:1;paint-order:stroke fill markers"
       d="m 19.437046,76.834735 c 3.568896,-1.188455 14.601145,-9.338807 19.404386,-14.600487 4.803243,-5.261701 3.377209,-7.634342 1.628364,-8.437423 -1.748847,-0.803081 -3.820293,-0.03651 -6.676204,2.338376 -2.855912,2.374885 -6.496029,6.35787 -10.26346,11.2362 -3.767439,4.878352 -7.661993,10.651812 -4.093086,9.463334 z"
       id="path31" />
    <path
       style="fill:#ffffff;fill-opacity:0.99854;stroke:none;stroke-width:0.0567234;stroke-linecap:round;stroke-linejoin:round;stroke-dasharray:none;stroke-dashoffset:0;stroke-opacity:1;paint-order:stroke fill markers"
       d="m 95.171736,37.141054 c -5.264156,-0.166877 -11.836382,0.03333 -18.344848,2.520143 -6.508486,2.486725 -10.81429,5.675779 -16.486894,12.855289 -5.672624,7.179488 -6.349819,9.141483 -18.37721,16.194356 -12.027388,7.052872 -20.209397,9.378049 -26.587639,13.019599 -6.3782408,3.641551 -2.356283,5.244531 6.353681,3.875989 8.709965,-1.368563 21.465691,-5.984204 29.635967,-9.250578 C 59.535048,73.0895 63.172041,71.1536 67.511046,67.582067 71.85003,64.010513 76.890753,58.80359 80.2407,55.065181 c 3.349925,-3.738409 5.008906,-6.008085 6.955059,-7.376604 1.946174,-1.36852 4.179416,-1.835819 7.816514,-2.069468 3.637098,-0.233649 8.677847,-0.233649 14.585007,-1.207717 5.90717,-0.974068 12.68021,-2.922051 16.95585,-4.678028 4.27567,-1.755976 6.05326,-3.31966 5.69329,-4.264388 -0.35994,-0.94475 -2.85745,-1.270411 -7.19687,-0.682725 -4.33942,0.587687 -10.52037,2.088699 -15.58899,2.572203 -5.06864,0.483503 -9.02465,-0.05044 -14.288824,-0.217313 z"
       id="path32" />
    <ellipse
       style="fill:#ffffff;stroke-width:46.0253;stroke-linejoin:round;paint-order:markers fill stroke"
       id="path2"
       cx="10.186463"
       cy="104.24583"
       rx="10.186459"
       ry="10.186458" />
  </g>
</svg>
