<?xml version="1.0" encoding="UTF-8" standalone="no"?>
<!-- Created with Inkscape (http://www.inkscape.org/) -->

<svg
   width="500"
   height="500"
   viewBox="0 0 132.29166 132.29167"
   version="1.1"
   id="svg1"
   xmlns="http://www.w3.org/2000/svg"
   xmlns:svg="http://www.w3.org/2000/svg">
  <defs
     id="defs1" />
  <g
     id="layer1"
     transform="translate(-83.337386,-106.14864)"
     style="fill:#000000">
    <g
       id="g1"
       transform="matrix(2.0959959,0,0,2.1928596,-91.337436,-126.62044)"
       style="fill:#000000">
      <g
         id="g2"
         style="fill:#000000">
        <path
           id="path14"
           style="fill:#000000;fill-opacity:1;stroke-width:2.92339;stroke-dasharray:none"
           d="m 127.76343,106.15143 a 3.9949445,5.0675082 30.476627 0 0 -4.64829,3.70158 3.9949445,5.0675082 30.476627 0 0 2.05879,5.79551 3.9949445,5.0675082 30.476627 0 0 2.73678,-0.28887 3.9949445,5.0675082 30.476627 0 0 0.0119,-0.006 3.9949445,5.0675082 30.476627 0 0 0.0992,-0.0481 3.9949445,5.0675082 30.476627 0 0 0.0522,-0.0264 3.9949445,5.0675082 30.476627 0 0 0.0517,-0.0269 3.9949445,5.0675082 30.476627 0 0 0.11007,-0.0594 3.9949445,5.0675082 30.476627 0 0 0.0109,-0.006 3.9949445,5.0675082 30.476627 0 0 0.061,-0.0351 3.9949445,5.0675082 30.476627 0 0 0.008,-0.005 3.9949445,5.0675082 30.476627 0 0 0.0966,-0.0579 3.9949445,5.0675082 30.476627 0 0 0.062,-0.0382 3.9949445,5.0675082 30.476627 0 0 0.0579,-0.0372 3.9949445,5.0675082 30.476627 0 0 0.0987,-0.0651 3.9949445,5.0675082 30.476627 0 0 0.0491,-0.0341 3.9949445,5.0675082 30.476627 0 0 0.12609,-0.0894 3.9949445,5.0675082 30.476627 0 0 0.0357,-0.0269 3.9949445,5.0675082 30.476627 0 0 0.0946,-0.0729 3.9949445,5.0675082 30.476627 0 0 0.0749,-0.0589 3.9949445,5.0675082 30.476627 0 0 0.14676,-0.12299 3.9949445,5.0675082 30.476627 0 0 0.0295,-0.0258 3.9949445,5.0675082 30.476627 0 0 0.14263,-0.12919 3.9949445,5.0675082 30.476627 0 0 0.0294,-0.0284 3.9949445,5.0675082 30.476627 0 0 0.0124,-0.0114 3.9949445,5.0675082 30.476627 0 0 0.10284,-0.10077 3.9949445,5.0675082 30.476627 0 0 0.0352,-0.0357 3.9949445,5.0675082 30.476627 0 0 0.0357,-0.0367 3.9949445,5.0675082 30.476627 0 0 0.11574,-0.123 3.9949445,5.0675082 30.476627 0 0 0.0134,-0.0145 3.9949445,5.0675082 30.476627 0 0 0.1292,-0.14728 3.9949445,5.0675082 30.476627 0 0 0.0346,-0.0403 3.9949445,5.0675082 30.476627 0 0 0.12247,-0.15141 3.9949445,5.0675082 30.476627 0 0 0.0171,-0.0217 3.9949445,5.0675082 30.476627 0 0 0.11936,-0.15814 3.9949445,5.0675082 30.476627 0 0 0.0233,-0.0315 3.9949445,5.0675082 30.476627 0 0 0.10852,-0.15606 3.9949445,5.0675082 30.476627 0 0 0.0227,-0.0336 3.9949445,5.0675082 30.476627 0 0 0.003,-0.004 3.9949445,5.0675082 30.476627 0 0 0.10489,-0.16175 3.9949445,5.0675082 30.476627 0 0 0.001,-0.002 3.9949445,5.0675082 30.476627 0 0 0.0243,-0.0403 3.9949445,5.0675082 30.476627 0 0 0.10335,-0.17415 3.9949445,5.0675082 30.476627 0 0 0.10387,-0.18913 3.9949445,5.0675082 30.476627 0 0 0.0129,-0.0243 3.9949445,5.0675082 30.476627 0 0 0.10025,-0.20102 3.9949445,5.0675082 30.476627 0 0 0.094,-0.20671 3.9949445,5.0675082 30.476627 0 0 0.005,-0.0103 3.9949445,5.0675082 30.476627 0 0 0.0868,-0.21033 3.9949445,5.0675082 30.476627 0 0 0.19068,-0.57671 3.9949445,5.0675082 30.476627 0 0 0.0568,-0.24184 3.9949445,5.0675082 30.476627 0 0 0.0724,-0.33538 3.9949445,5.0675082 30.476627 0 0 0.0408,-0.29869 3.9949445,5.0675082 30.476627 0 0 0.0279,-0.27802 3.9949445,5.0675082 30.476627 0 0 0.0119,-0.3173 3.9949445,5.0675082 30.476627 0 0 -0.004,-0.24649 3.9949445,5.0675082 30.476627 0 0 -0.0217,-0.3297 3.9949445,5.0675082 30.476627 0 0 -0.0279,-0.19792 3.9949445,5.0675082 30.476627 0 0 -0.0636,-0.35553 3.9949445,5.0675082 30.476627 0 0 -0.0284,-0.10181 3.9949445,5.0675082 30.476627 0 0 -0.11833,-0.39325 3.9949445,5.0675082 30.476627 0 0 -0.19534,-0.44442 3.9949445,5.0675082 30.476627 0 0 -0.24236,-0.40153 3.9949445,5.0675082 30.476627 0 0 -0.003,-0.004 3.9949445,5.0675082 30.476627 0 0 -1.75493,-1.27279 3.9949445,5.0675082 30.476627 0 0 -1.06867,-0.12764 z" />
        <path
           id="path3-5"
           style="fill:#000000;fill-opacity:1;stroke-width:2.81966;stroke-dasharray:none"
           d="m 116.5128,139.09956 c -3.79825,3.13685 -8.80494,4.42751 -9.11694,4.50112 -0.23376,0.0551 -0.26858,0.32542 -0.11111,0.41391 1.39815,0.78569 2.99551,2.70653 0.57568,8.6553 -1.55357,3.81923 -4.49144,7.67971 -5.79034,10.04692 -0.321,0.58501 -0.53895,1.07553 -0.68007,1.49293 -0.0377,0.11142 -0.0725,0.2206 -0.0992,0.32144 -0.007,0.0273 -0.0111,0.0515 -0.0176,0.078 0.27191,-0.11176 0.572,-0.2384 0.89711,-0.38137 -0.32511,0.14297 -0.6252,0.26961 -0.89711,0.38137 -0.24204,0.99469 0.0469,1.46942 0.46923,1.71308 0.63126,0.36419 1.55409,0.21803 3.42356,-1.90635 0.73548,-0.83577 1.61786,-1.98203 2.52078,-3.25508 0.0577,-0.0814 0.11576,-0.16661 0.17363,-0.2491 5.7e-4,-8.1e-4 9.8e-4,-0.002 0.002,-0.003 1.33705,-1.90456 2.70163,-4.06277 3.6897,-5.92521 0.94992,-1.79057 1.50851,-3.30471 1.93115,-4.66019 0.33377,-1.07045 0.58464,-2.04427 0.86351,-2.96105 0.73248,-2.40802 1.18271,-5.58471 2.58483,-7.90598 0.28758,-0.4761 0.0907,-0.77757 -0.41881,-0.35674 z m -9.09007,19.56995 c -0.2985,0.36036 -0.59172,0.70459 -0.87695,1.02682 -0.28523,0.3222 -0.5622,0.62277 -0.83147,0.90382 -0.26927,0.28104 -0.53112,0.54242 -0.78548,0.78703 -0.25437,0.24461 -0.50157,0.4723 -0.74208,0.68523 0.24051,-0.21293 0.48771,-0.44062 0.74208,-0.68523 0.25436,-0.24461 0.51621,-0.50599 0.78548,-0.78703 0.26927,-0.28105 0.54624,-0.58161 0.83147,-0.90382 0.28523,-0.32223 0.57845,-0.66646 0.87695,-1.02682 z m -0.0982,2.75126 c -0.18463,0.12846 -0.37275,0.25538 -0.56379,0.37982 -0.19105,0.12445 -0.38539,0.24642 -0.58136,0.36588 -0.19598,0.11946 -0.39356,0.23627 -0.59222,0.35035 0.19866,-0.11408 0.39624,-0.23089 0.59222,-0.35035 0.16058,-0.0979 0.31897,-0.19849 0.47645,-0.29973 0.0347,-0.0223 0.0704,-0.0437 0.10491,-0.0661 0.19104,-0.12445 0.37916,-0.25136 0.56379,-0.37982 z" />
        <path
           id="path21"
           style="fill:#000000;fill-opacity:1;stroke-width:2.81966;stroke-dasharray:none"
           d="m 115.55222,117.3097 c -0.44575,-0.0101 -0.89229,-0.005 -1.33842,0.0202 -3.56901,0.19424 -7.11343,1.55398 -10.34252,3.1564 -3.22909,1.60241 -6.142306,3.44784 -7.623308,4.80746 -1.481002,1.35961 -1.529974,2.23362 -1.068669,2.67063 0.461305,0.43703 1.432792,0.43689 3.023072,-0.3886 1.590278,-0.8255 3.799215,-2.47657 6.567045,-3.82406 2.76782,-1.34749 6.09392,-2.39155 6.77374,-0.88625 0.36901,0.81709 0.44273,1.82969 -0.0912,3.3571 -0.30731,0.63639 -0.51455,1.57374 0.44301,0.66139 1.30234,-1.24083 4.35766,-3.67255 6.40719,-4.57425 2.81557,-1.23873 6.67839,-1.48083 8.63169,-1.62122 0.73149,-0.0526 0.74161,-0.41583 0.13646,-0.66844 -3.1297,-1.18239 -7.6985,-2.62533 -11.51807,-2.71024 z" />
        <path
           style="fill:#000000;fill-opacity:0.99854;stroke:none;stroke-width:0.0264583;stroke-linecap:round;stroke-linejoin:round;stroke-dasharray:none;stroke-dashoffset:0;stroke-opacity:1;paint-order:stroke fill markers"
           d="m 101.29946,130.10687 c -1.687715,0.58703 -6.850558,4.44238 -9.077602,6.9019 -2.227045,2.45953 -1.518167,3.52305 -0.674354,3.86697 0.843814,0.34392 1.822461,-0.0318 3.155751,-1.15064 1.33329,-1.11884 3.021102,-2.9807 4.758782,-5.25233 1.737683,-2.27164 3.525143,-4.95294 1.837423,-4.3659 z"
           id="path31"
           transform="rotate(-178.477,97.02877,135.7048)" />
        <path
           style="fill:#000000;fill-opacity:0.99854;stroke:none;stroke-width:0.0264583;stroke-linecap:round;stroke-linejoin:round;stroke-dasharray:none;stroke-dashoffset:0;stroke-opacity:1;paint-order:stroke fill markers"
           d="m 128.56118,122.90326 c -2.51153,-0.0761 -5.64714,0.0152 -8.75233,1.14925 -3.1052,1.13401 -5.1595,2.5883 -7.8659,5.86234 -2.70641,3.27403 -3.0295,4.16875 -8.76777,7.38504 -5.738269,3.21629 -9.641907,4.27663 -12.684967,5.93727 -3.04306,1.66064 -1.124183,2.39164 3.031342,1.76755 4.155526,-0.6241 10.241285,-2.72895 14.139325,-4.2185 3.89803,-1.48954 5.63324,-2.37236 7.70338,-4.00107 2.07013,-1.62872 4.47506,-4.00321 6.07332,-5.70802 1.59825,-1.70481 2.38975,-2.73984 3.31826,-3.36392 0.92852,-0.62408 1.994,-0.83718 3.72926,-0.94373 1.73526,-0.10655 4.1402,-0.10655 6.95851,-0.55075 2.81831,-0.4442 6.04973,-1.33253 8.08964,-2.1333 2.03992,-0.80077 2.88801,-1.51385 2.71627,-1.94467 -0.17173,-0.43083 -1.36329,-0.57934 -3.43363,-0.31134 -2.07034,0.268 -5.01927,0.9525 -7.43751,1.17299 -2.41825,0.22049 -4.30566,-0.023 -6.8172,-0.0991 z"
           id="path32"
           transform="translate(0.18265683,0.18265683)" />
        <ellipse
           style="fill:#000000;stroke-width:21.4682;stroke-linejoin:round;paint-order:markers fill stroke"
           id="path2"
           cx="88.19735"
           cy="153.68741"
           rx="4.859961"
           ry="4.6452851" />
      </g>
    </g>
  </g>
</svg>
