<?xml version="1.0" encoding="UTF-8" standalone="no"?>
<!-- Created with Inkscape (http://www.inkscape.org/) -->

<svg
   width="500"
   height="500"
   viewBox="0 0 132.29166 132.29167"
   version="1.1"
   id="svg1"
   inkscape:version="1.3.2 (091e20e, 2023-11-25, custom)"
   sodipodi:docname="safari-pinned-tab.svg"
   inkscape:export-filename="logo.png"
   inkscape:export-xdpi="18.431999"
   inkscape:export-ydpi="18.431999"
   xmlns:inkscape="http://www.inkscape.org/namespaces/inkscape"
   xmlns:sodipodi="http://sodipodi.sourceforge.net/DTD/sodipodi-0.dtd"
   xmlns="http://www.w3.org/2000/svg"
   xmlns:svg="http://www.w3.org/2000/svg">
  <sodipodi:namedview
     id="namedview1"
     pagecolor="#505050"
     bordercolor="#ffffff"
     borderopacity="1"
     inkscape:showpageshadow="0"
     inkscape:pageopacity="0"
     inkscape:pagecheckerboard="1"
     inkscape:deskcolor="#505050"
     inkscape:document-units="px"
     inkscape:zoom="1.4142135"
     inkscape:cx="50.204584"
     inkscape:cy="234.40591"
     inkscape:window-width="1920"
     inkscape:window-height="1009"
     inkscape:window-x="-8"
     inkscape:window-y="-8"
     inkscape:window-maximized="1"
     inkscape:current-layer="layer1"
     inkscape:export-bgcolor="#2f2f2f00" />
  <defs
     id="defs1">
    <inkscape:path-effect
       effect="bspline"
       id="path-effect33"
       is_visible="true"
       lpeversion="1.3"
       weight="33.333333"
       steps="2"
       helper_size="0"
       apply_no_weight="true"
       apply_with_weight="true"
       only_selected="false"
       uniform="false" />
    <inkscape:path-effect
       effect="bspline"
       id="path-effect31"
       is_visible="true"
       lpeversion="1.3"
       weight="33.333333"
       steps="2"
       helper_size="0"
       apply_no_weight="true"
       apply_with_weight="true"
       only_selected="false"
       uniform="false" />
  </defs>
  <g
     inkscape:label="Capa 1"
     inkscape:groupmode="layer"
     id="layer1"
     transform="translate(-83.337396,-106.14923)">
    <path
       id="path33-9"
       style="fill:#000000;fill-opacity:0.999708;stroke:none;stroke-width:0.0502074;stroke-linecap:round;stroke-linejoin:round;stroke-dasharray:none;stroke-dashoffset:0;stroke-opacity:1;paint-order:stroke fill markers"
       d="m 176.45487,106.15278 -5.2e-4,0.002 a 8.4584145,11.000706 26.069 0 0 -9.74258,8.11686 8.4584145,11.000706 26.069 0 0 4.315,12.70885 8.4584145,11.000706 26.069 0 0 5.73609,-0.63355 8.4584145,11.000706 26.069 0 0 0.0253,-0.0129 8.4584145,11.000706 26.069 0 0 0.20774,-0.10542 8.4584145,11.000706 26.069 0 0 0.10955,-0.0579 8.4584145,11.000706 26.069 0 0 0.10801,-0.0594 8.4584145,11.000706 26.069 0 0 0.23099,-0.13024 8.4584145,11.000706 26.069 0 0 0.0227,-0.0129 8.4584145,11.000706 26.069 0 0 0.12816,-0.077 8.4584145,11.000706 26.069 0 0 0.0165,-0.0108 8.4584145,11.000706 26.069 0 0 0.20258,-0.12712 8.4584145,11.000706 26.069 0 0 0.1297,-0.0837 8.4584145,11.000706 26.069 0 0 0.12144,-0.0816 8.4584145,11.000706 26.069 0 0 0.20671,-0.14262 8.4584145,11.000706 26.069 0 0 0.10335,-0.0749 8.4584145,11.000706 26.069 0 0 0.26407,-0.19637 8.4584145,11.000706 26.069 0 0 0.0749,-0.0589 8.4584145,11.000706 26.069 0 0 0.19792,-0.15968 8.4584145,11.000706 26.069 0 0 0.1571,-0.12919 8.4584145,11.000706 26.069 0 0 0.30799,-0.26975 8.4584145,11.000706 26.069 0 0 0.0615,-0.0563 8.4584145,11.000706 26.069 0 0 0.29921,-0.2837 8.4584145,11.000706 26.069 0 0 0.0615,-0.062 8.4584145,11.000706 26.069 0 0 0.0258,-0.0253 8.4584145,11.000706 26.069 0 0 0.21549,-0.22067 8.4584145,11.000706 26.069 0 0 0.0739,-0.0785 8.4584145,11.000706 26.069 0 0 0.0749,-0.0801 8.4584145,11.000706 26.069 0 0 0.24236,-0.26975 8.4584145,11.000706 26.069 0 0 0.0284,-0.032 8.4584145,11.000706 26.069 0 0 0.27078,-0.32298 8.4584145,11.000706 26.069 0 0 0.0724,-0.0884 8.4584145,11.000706 26.069 0 0 0.25683,-0.33228 8.4584145,11.000706 26.069 0 0 0.0357,-0.0475 8.4584145,11.000706 26.069 0 0 0.25011,-0.34675 8.4584145,11.000706 26.069 0 0 0.0491,-0.0687 8.4584145,11.000706 26.069 0 0 0.22738,-0.34263 8.4584145,11.000706 26.069 0 0 0.0475,-0.0734 8.4584145,11.000706 26.069 0 0 0.006,-0.009 8.4584145,11.000706 26.069 0 0 0.22015,-0.3545 8.4584145,11.000706 26.069 0 0 0.002,-0.004 8.4584145,11.000706 26.069 0 0 0.0506,-0.0884 8.4584145,11.000706 26.069 0 0 0.21652,-0.38189 8.4584145,11.000706 26.069 0 0 0.21808,-0.41444 8.4584145,11.000706 26.069 0 0 0.0269,-0.0538 8.4584145,11.000706 26.069 0 0 0.21032,-0.44081 8.4584145,11.000706 26.069 0 0 0.19689,-0.4532 8.4584145,11.000706 26.069 0 0 0.0103,-0.0227 8.4584145,11.000706 26.069 0 0 0.1819,-0.46095 8.4584145,11.000706 26.069 0 0 0.39998,-1.26453 8.4584145,11.000706 26.069 0 0 0.11886,-0.5302 8.4584145,11.000706 26.069 0 0 0.15192,-0.73588 8.4584145,11.000706 26.069 0 0 0.0853,-0.65475 8.4584145,11.000706 26.069 0 0 0.0584,-0.60978 8.4584145,11.000706 26.069 0 0 0.0248,-0.69557 8.4584145,11.000706 26.069 0 0 -0.008,-0.54054 8.4584145,11.000706 26.069 0 0 -0.0455,-0.72295 8.4584145,11.000706 26.069 0 0 -0.0584,-0.43408 8.4584145,11.000706 26.069 0 0 -0.13333,-0.77981 8.4584145,11.000706 26.069 0 0 -0.0594,-0.22324 8.4584145,11.000706 26.069 0 0 -0.24804,-0.86248 8.4584145,11.000706 26.069 0 0 -0.4098,-0.97463 8.4584145,11.000706 26.069 0 0 -0.50798,-0.88005 8.4584145,11.000706 26.069 0 0 -0.006,-0.009 8.4584145,11.000706 26.069 0 0 -3.67834,-2.79107 8.4584145,11.000706 26.069 0 0 -2.24017,-0.27957 z m -26.99737,24.46376 c -0.46766,0.007 -0.93548,0.0235 -1.40301,0.0512 -7.48064,0.42594 -14.91014,3.40768 -21.67831,6.92158 -6.76815,3.51385 -12.8742,7.56058 -15.97837,10.54204 -3.10419,2.98146 -3.20656,4.89822 -2.23967,5.85652 0.9669,0.95836 3.00284,0.95803 6.33606,-0.85214 3.33323,-1.81022 7.96321,-5.43071 13.76456,-8.38559 5.80135,-2.95487 12.77324,-5.24448 14.19812,-1.94356 0.77344,1.79177 0.92791,4.01247 -0.1912,7.36186 -0.64413,1.39552 -1.07841,3.45071 0.92863,1.45006 2.72969,-2.72097 9.13338,-8.05313 13.42917,-10.03045 5.90143,-2.71638 13.99784,-3.24751 18.09195,-3.55536 1.53321,-0.11535 1.55469,-0.91161 0.28629,-1.46555 -6.55985,-2.59282 -16.13644,-5.75714 -24.14224,-5.94334 v -5.2e-4 c -0.46714,-0.0111 -0.93432,-0.0136 -1.40198,-0.007 z m 63.019,10.02734 c -1.09366,-0.021 -2.46189,0.0706 -4.08916,0.29094 -4.33943,0.5877 -10.52064,2.08896 -15.58926,2.57247 -5.06863,0.48351 -9.02439,-0.0507 -14.28856,-0.21756 -5.26416,-0.16687 -11.83669,0.0335 -18.34516,2.52027 -6.50847,2.48675 -10.81427,5.6761 -16.48688,12.85562 -5.6726,7.17952 -6.34981,9.14156 -18.3772,16.19444 -12.02739,7.05289 -20.20933,9.37786 -26.587569,13.01943 -6.37824,3.64157 -2.356332,5.24483 6.353629,3.87627 8.70996,-1.36855 21.4657,-5.98428 29.63597,-9.25065 8.17026,-3.26635 11.80733,-5.20262 16.14632,-8.77418 4.339,-3.57156 9.37954,-8.77819 12.72948,-12.51662 3.34993,-3.73841 5.00897,-6.00832 6.95515,-7.37685 1.94615,-1.36853 4.17949,-1.836 7.81658,-2.06965 3.63711,-0.23365 8.67802,-0.23361 14.58518,-1.20769 5.90716,-0.97406 12.67994,-2.92179 16.95558,-4.67777 4.27566,-1.75598 6.05316,-3.31962 5.69321,-4.26436 -0.22498,-0.59047 -1.28455,-0.93914 -3.10731,-0.97411 z m -90.0484,18.99429 c -1.45427,-0.0119 -3.15491,0.86469 -5.29684,2.64585 -2.85592,2.37489 -6.49604,6.35822 -10.26348,11.23659 -3.76743,4.87835 -7.662193,10.65149 -4.0933,9.46304 3.56891,-1.18848 14.6013,-9.33851 19.40454,-14.60023 4.80324,-5.2617 3.37716,-7.63469 1.62833,-8.43777 -0.43721,-0.20077 -0.89449,-0.30352 -1.37925,-0.30748 z m 32.15881,17.23005 -5.1e-4,0.001 c -0.12346,0.0197 -0.31341,0.15878 -0.55036,0.43513 h -0.001 c -7.90065,7.65513 -19.59125,10.80417 -20.27116,10.97199 -0.48995,0.12083 -0.5626,0.71339 -0.23254,0.90744 2.93053,1.72291 6.27861,5.93496 1.20666,18.97982 -3.25628,8.37508 -9.41426,16.84087 -12.13675,22.03185 -0.67282,1.28284 -1.12946,2.35843 -1.42525,3.27372 -0.079,0.24433 -0.15229,0.48374 -0.20825,0.70487 -0.0147,0.0599 -0.0231,0.11294 -0.0367,0.17105 -0.50732,2.18123 0.0982,3.22206 0.9834,3.75638 1.32313,0.79862 3.2574,0.47835 7.17581,-4.18013 1.54156,-1.83273 3.39089,-4.34647 5.28341,-7.1381 0.12094,-0.1785 0.24303,-0.36533 0.36432,-0.54622 0.001,-0.002 0.002,-0.004 0.004,-0.007 2.80246,-4.17644 5.66292,-8.90898 7.73391,-12.99306 1.99103,-3.92649 3.16145,-7.24669 4.04731,-10.21908 0.69958,-2.34735 1.22571,-4.48279 1.81022,-6.49317 1.68685,-5.8018 3.52457,-13.18073 6.2234,-18.85321 0.25649,-0.53908 0.23612,-0.83609 0.0305,-0.80306 z m -61.327622,23.17856 v 10e-4 a 9.9219816,9.9214888 0 0 0 -9.921892,9.92141 9.9219816,9.9214888 0 0 0 6.018764,9.10337 9.9219816,9.9214888 0 0 0 0.04754,0.0171 9.9219816,9.9214888 0 0 0 2.593129,0.71055 9.9219816,9.9214888 0 0 0 0.183451,0.0124 9.9219816,9.9214888 0 0 0 1.079006,0.078 9.9219816,9.9214888 0 0 0 9.921894,-9.92245 9.9219816,9.9214888 0 0 0 -0.19637,-1.95854 9.9219816,9.9214888 0 0 0 -0.0476,-0.21291 9.9219816,9.9214888 0 0 0 -9.677974,-7.74995 z" />
  </g>
</svg>
