<?xml version="1.0" encoding="UTF-8" standalone="no"?>
<svg
   version="1.1"
   id="Layer_1"
   x="0px"
   y="0px"
   viewBox="0 0 122.71 122.88"
   style="enable-background:new 0 0 122.71 122.88"
   xml:space="preserve"
   sodipodi:docname="waze-icon.svg"
   inkscape:version="1.3 (0e150ed6c4, 2023-07-21)"
   xmlns:inkscape="http://www.inkscape.org/namespaces/inkscape"
   xmlns:sodipodi="http://sodipodi.sourceforge.net/DTD/sodipodi-0.dtd"
   xmlns="http://www.w3.org/2000/svg"
   xmlns:svg="http://www.w3.org/2000/svg"><defs
     id="defs5" /><sodipodi:namedview
     id="namedview5"
     pagecolor="#505050"
     bordercolor="#ffffff"
     borderopacity="1"
     inkscape:showpageshadow="0"
     inkscape:pageopacity="0"
     inkscape:pagecheckerboard="1"
     inkscape:deskcolor="#505050"
     inkscape:zoom="6.6162111"
     inkscape:cx="66.201032"
     inkscape:cy="61.439999"
     inkscape:window-width="1920"
     inkscape:window-height="1009"
     inkscape:window-x="-8"
     inkscape:window-y="-8"
     inkscape:window-maximized="1"
     inkscape:current-layer="Layer_1" /><style
     type="text/css"
     id="style1"><![CDATA[
	.st0{fill:#FFFFFF;}
]]></style><path
     d="m 54.95,110.49 c -1.03,4.69 -3.56,8.16 -7.69,10.31 -5.25,2.72 -10.6,2.63 -15.57,-0.56 -5.16,-3.28 -7.41,-8.25 -7.03,-14.35 0.09,-1.03 -0.19,-1.41 -1.03,-1.88 C 14.53,99.23 7.32,92.57 2.35,83.57 1.41,81.79 0.66,79.91 0.19,77.94 c -0.66,-2.72 0.38,-4.03 3.19,-4.31 3.38,-0.38 6.38,-1.69 7.88,-4.88 0.66,-1.41 1.03,-3.09 1.03,-4.69 0.19,-4.03 0,-8.06 0.19,-12.1 1.03,-15.57 7.5,-28.5 19.32,-38.63 10.87,-9.36 23.62,-13.76 37.96,-13.3 25.04,0.94 46.51,18.57 51.57,43.23 4.59,22.32 -2.34,40.98 -20.07,55.51 -1.03,0.84 -2.16,1.69 -3.38,2.44 -0.66,0.47 -0.84,0.84 -0.56,1.59 2.34,7.13 -0.94,15 -7.5,18.38 -8.91,4.41 -19.22,-0.09 -21.94,-9.66 -0.09,-0.38 -0.56,-0.84 -0.84,-0.84 -3.93,-0.28 -7.97,-0.19 -12.09,-0.19 z m 0.19,-6.28 c 4.22,0 8.44,0.19 12.66,-0.09 3.84,-0.19 7.88,-0.56 11.63,-1.5 29.82,-7.31 45.76,-40.23 32.72,-68.07 C 104.27,17.76 90.77,8.19 72.3,6.22 58.14,4.72 45.48,8.94 34.79,18.5 24.29,27.97 18.85,39.78 18.48,53.94 c -0.09,3.28 0,6.66 0,9.94 -0.1,7.14 -4.13,12.67 -10.98,14.82 -0.09,0 -0.28,0.19 -0.38,0.19 2.63,6.94 13.31,17.16 19.97,19.69 8.36,-11.44 25.23,-7.4 28.05,5.63 z"
     id="path2" /><path
     d="M 74.92,79.74 C 63.85,79.18 56.54,74.77 51.85,65.96 c -1.13,-2.16 -0.09,-4.31 2.06,-4.78 1.31,-0.28 2.53,0.66 3.47,2.16 1.22,1.88 2.44,3.75 4.03,5.25 8.81,8.34 23.25,5.72 28.79,-5.06 0.66,-1.31 1.5,-2.34 3.09,-2.34 2.34,0.09 3.66,2.44 2.63,4.59 -2.91,5.91 -7.5,10.22 -13.69,12.28 -2.72,0.93 -5.53,1.3 -7.31,1.68 z"
     id="path3" /><path
     d="m 55.32,48.98 c -3.38,0 -6.09,-2.72 -6.09,-6.09 0,-3.37 2.72,-6.09 6.09,-6.09 3.37,0 6.09,2.72 6.09,6.09 0.01,3.28 -2.71,6.09 -6.09,6.09 z"
     id="path4" /><path
     d="m 98.27,42.79 c 0,3.38 -2.72,6.09 -6,6.19 -3.38,0 -6.09,-2.63 -6.09,-6.09 0,-3.38 2.63,-6.09 6,-6.19 3.28,0 5.99,2.72 6.09,6.09 z"
     id="path5" /></svg>
