<?xml version="1.0" encoding="UTF-8" standalone="no"?>
<!-- Created with Inkscape (http://www.inkscape.org/) -->

<svg
   version="1.1"
   id="svg1"
   width="779.20776"
   height="500"
   viewBox="0 0 779.20776 500"
   xmlns:xlink="http://www.w3.org/1999/xlink"
   xmlns="http://www.w3.org/2000/svg"
   xmlns:svg="http://www.w3.org/2000/svg">
  <defs
     id="defs1" />
  <g
     id="g7"
     transform="matrix(2.808709,0,0,2.808709,-364.65727,-286.61982)">
    <g
       id="g6"
       transform="translate(-0.5)">
      <g
         id="g5">
        <g
           id="g4"
           transform="translate(0.13043,-0.69580003)">
          <g
             id="g3">
            <path
               id="path1"
               style="fill:#d8ff00;fill-opacity:1;stroke-width:170;stroke-linejoin:round;paint-order:markers fill stroke"
               d="m 266.66235,241.46389 c -6.2776,-0.0165 -12.47543,0.21246 -18.43946,3.06054 -2.56682,1.22577 -3.05966,3.30359 -2.39843,6.18165 0.37524,1.63325 2.63786,7.50272 6.09375,9.83007 1.45822,0.98202 2.46884,1.61206 4.10547,2.40235 1.56482,0.75562 1.91537,2.11815 0.0449,2.91406 -2.35924,1.0039 -4.69807,1.8836 -7.32032,3.92187 -2.36367,1.83727 -4.58204,3.99805 -4.58204,3.99805 0,0 8.49749,-4.12749 12.9043,-5.35742 5.55631,-1.55072 18.12552,-1.55176 23.68555,0 4.40681,1.22993 12.90429,5.35742 12.90429,5.35742 0,0 -2.21836,-2.16078 -4.58203,-3.99805 -2.62225,-2.03827 -4.96107,-2.91797 -7.32031,-3.92187 -1.87045,-0.79591 -1.5199,-2.15844 0.0449,-2.91406 1.63663,-0.79029 2.64725,-1.42033 4.10547,-2.40235 3.4559,-2.32735 5.71851,-8.19682 6.09375,-9.83007 0.66123,-2.87806 0.16839,-4.95588 -2.39843,-6.18165 -5.96403,-2.84808 -12.16186,-3.07702 -18.43946,-3.06054 -1.50069,0.0173 -3.00125,0.008 -4.50195,0 z m -15.85742,4.91406 c 0.28353,0.004 0.56295,0.0363 0.82422,0.0957 1.64366,0.37383 2.5875,1.82139 4.09765,2.57032 1.81771,0.90147 4.16133,1.16611 4.74024,1.22461 4.81982,0.48677 5.15219,5.77006 -0.10938,7.41601 -2.2691,0.70983 -4.80496,0.58623 -7.03711,-0.23242 -1.42301,-0.5219 -2.76669,-1.43744 -3.7207,-2.61524 -1.00301,-1.23829 -1.74041,-2.80879 -1.87696,-4.39648 -0.0956,-1.11221 -0.0237,-2.4743 0.76954,-3.25976 0.57117,-0.56562 1.46188,-0.81404 2.3125,-0.80274 z m 36.21679,0 c 0.85062,-0.0113 1.74133,0.23712 2.3125,0.80274 0.79323,0.78546 0.86518,2.14755 0.76953,3.25976 -0.13655,1.58769 -0.87394,3.15819 -1.87696,4.39648 -0.954,1.1778 -2.29768,2.09334 -3.7207,2.61524 -2.23215,0.81865 -4.76801,0.94225 -7.03711,0.23242 -5.26157,-1.64595 -4.92919,-6.92924 -0.10937,-7.41601 0.57891,-0.0585 2.92252,-0.32314 4.74024,-1.22461 1.51015,-0.74893 2.45398,-2.19649 4.09765,-2.57032 0.26127,-0.0594 0.54068,-0.092 0.82422,-0.0957 z" />
            <path
               id="path2"
               style="fill:#d8ff00;fill-opacity:1;stroke-width:170;stroke-linejoin:round;paint-order:markers fill stroke"
               d="m 303.60851,139.63579 c 6.93327,7.07822 8.75851,10.17473 8.64648,21.40235 -0.044,4.40843 -0.92809,5.50591 -2.88085,6.28711 -11.33254,4.53359 -18.02351,11.20049 -21.18359,22.99414 -7.21646,26.93219 8.03632,47.31732 13.87695,57.43359 1.45566,2.52128 0.7685,5.85772 0.31055,8.73438 -0.82061,5.15475 -2.75936,9.7452 -0.73828,15.1289 -0.30187,-4.88228 -0.0768,-9.52984 1.8457,-14.14453 5.53762,-13.29233 10.38694,-25.69668 8.11914,-40.59179 -0.41389,-2.71845 0.36719,-8.24024 0.36719,-8.24024 0,0 0.57042,3.08479 1.10742,4.55078 0.59915,1.63563 2.33789,4.67383 2.33789,4.67383 0,0 3.07123,-11.79653 3.68945,-17.83594 0.48849,-4.7721 0.20798,-9.59809 0,-14.39062 -0.041,-0.94568 -0.32829,-1.88514 -0.24609,-2.82813 0.0553,-0.63409 0.55669,-1.21248 0.49219,-1.8457 -0.065,-0.63845 -0.89258,-1.32227 -0.89258,-1.32227 0,0 0.88993,0.38747 1.72266,0.52344 0.89113,0.14551 2.79882,0.27539 2.79882,0.27539 0,0 -2.25951,-1.21788 -3.33593,-1.98242 -0.96967,-0.68871 -1.52344,-1.55273 -1.52344,-1.55273 0.1065,-0.22981 0.78506,-1.77956 0.12305,-2.58399 -0.2226,-0.2705 -0.98438,-0.36914 -0.98438,-0.36914 -3.07696,-4.12355 -3.56641,-6.19007 -3.56641,-7.625 0,-16.90694 -1.60445,-19.68935 -10.08594,-26.69141 z m 11.6914,36.17383 c 1.01174,0.001 1.7168,0.0469 1.7168,0.0469 -6.0765,2.72097 -8.61988,4.48578 -10.87695,6.96679 -2.02035,2.2208 -3.42378,5.88052 -4.09375,8.59571 0,0 -1.15434,-3.26826 -1.06446,-4.72461 0.21983,-3.56615 4.83799,-8.55731 8.54102,-10.11524 1.55184,-0.65288 4.09112,-0.772 5.77734,-0.76953 z m 2.12305,5.28516 c 0,0 0.25865,1.31002 0.15234,1.95508 -0.37302,2.26364 -2.03725,4.6654 -3.88672,5.61914 -1.41137,0.72783 -5.73454,1.45646 -7.54882,-0.83789 1.18142,-0.17868 4.77772,-0.78454 6.64453,-1.75586 2.19277,-1.14092 3.40794,-2.90897 4.63867,-4.98047 z" />
            <path
               id="path2-7"
               style="fill:#d8ff00;fill-opacity:1;stroke-width:170;stroke-linejoin:round;paint-order:markers fill stroke"
               d="m 234.21805,139.63579 c -6.93327,7.07822 -8.75851,10.17473 -8.64648,21.40235 0.044,4.40843 0.9281,5.50591 2.88086,6.28711 11.33253,4.53359 18.02351,11.20049 21.1836,22.99414 7.21646,26.93219 -8.03632,47.31732 -13.87695,57.43359 -1.45566,2.52128 -0.7685,5.85772 -0.31055,8.73438 0.8206,5.15475 2.75935,9.7452 0.73828,15.1289 0.30187,-4.88228 0.0768,-9.52984 -1.8457,-14.14453 -5.53762,-13.29233 -10.38694,-25.69668 -8.11914,-40.59179 0.41389,-2.71845 -0.36719,-8.24024 -0.36719,-8.24024 0,0 -0.57042,3.08479 -1.10742,4.55078 -0.59915,1.63563 -2.33789,4.67383 -2.33789,4.67383 0,0 -3.07123,-11.79653 -3.68945,-17.83594 -0.48849,-4.7721 -0.20798,-9.59809 0,-14.39062 0.041,-0.94568 0.32829,-1.88514 0.24609,-2.82813 -0.0553,-0.63409 -0.55669,-1.21248 -0.49219,-1.8457 0.065,-0.63845 0.89258,-1.32227 0.89258,-1.32227 0,0 -0.88993,0.38747 -1.72266,0.52344 -0.89113,0.14551 -2.79882,0.27539 -2.79882,0.27539 0,0 2.25951,-1.21788 3.33593,-1.98242 0.96967,-0.68871 1.52344,-1.55273 1.52344,-1.55273 -0.1065,-0.22981 -0.78506,-1.77956 -0.12305,-2.58399 0.2226,-0.2705 0.98438,-0.36914 0.98438,-0.36914 3.07696,-4.12355 3.56641,-6.19007 3.56641,-7.625 0,-16.90694 1.60445,-19.68935 10.08592,-26.69141 z m -11.6914,36.17383 c -1.01174,0.001 -1.7168,0.0469 -1.7168,0.0469 6.0765,2.72097 8.61988,4.48578 10.87695,6.96679 2.02035,2.2208 3.42378,5.88052 4.09375,8.59571 0,0 1.15434,-3.26826 1.06446,-4.72461 -0.21983,-3.56615 -4.83799,-8.55731 -8.54102,-10.11524 -1.55184,-0.65288 -4.09112,-0.772 -5.77734,-0.76953 z m -2.12305,5.28516 c 0,0 -0.25865,1.31002 -0.15234,1.95508 0.37302,2.26364 2.03725,4.6654 3.88672,5.61914 1.41137,0.72783 5.73454,1.45646 7.54882,-0.83789 -1.18142,-0.17868 -4.77772,-0.78454 -6.64453,-1.75586 -2.19277,-1.14092 -3.40794,-2.90897 -4.63867,-4.98047 z" />
          </g>
          <path
             style="fill:#d8ff00;fill-opacity:1;stroke-width:170;stroke-linejoin:round;paint-order:markers fill stroke"
             d="m 302.46002,129.66359 c 18.03949,14.9228 13.24609,27.12505 21.27922,45.38745 30.97778,-0.82654 44.06765,14.68092 73.18573,-5.65806 2.33463,-10.65969 4.19553,-13.28995 10.70111,-19.31119 -40.45652,-22.09664 -45.43596,27.50477 -77.36778,8.48709 35.0006,1.67303 22.16469,-15.26417 54.98155,-18.20419 -18.71636,-4.97346 -31.5884,-0.78406 -46.86347,8.97909 -6.5229,4.05598 -11.76948,3.17454 -17.44688,-1.25549 -5.44623,-4.45398 -2.39123,-5.45762 -18.46948,-18.4247 z"
             id="path3" />
          <path
             style="fill:#d8ff00;fill-opacity:1;stroke-width:170;stroke-linejoin:round;paint-order:markers fill stroke"
             d="m 235.36655,129.66359 c -18.03949,14.9228 -13.24609,27.12505 -21.27922,45.38745 -30.97778,-0.82654 -44.06765,14.68092 -73.18573,-5.65806 -2.33463,-10.65969 -4.19553,-13.28995 -10.70111,-19.31119 40.45652,-22.09664 45.43596,27.50477 77.36778,8.48709 -35.0006,1.67303 -22.16469,-15.26417 -54.98155,-18.20419 18.71636,-4.97346 31.5884,-0.78406 46.86347,8.97909 6.5229,4.05598 11.76948,3.17454 17.44688,-1.25549 5.44623,-4.45398 2.39123,-5.45762 18.46948,-18.4247 z"
             id="path3-8" />
        </g>
        <path
           style="fill:#d8ff00;fill-opacity:1;stroke-width:170;stroke-linejoin:round;paint-order:markers fill stroke"
           d="m 321.45961,140.31583 c 8.63472,-11.52632 19.37512,-24.06291 11.1328,-38.26901 0.64677,10.99945 -11.53722,21.19978 -25.7446,21.56981 8.48175,5.36078 10.56256,7.80188 14.6118,16.6992 z"
           id="path4" />
        <use
           x="0"
           y="0"
           xlink:href="#path4"
           id="use4"
           transform="matrix(-1,0,0,1,538.08743,0)" />
      </g>
      <path
         id="path5"
         style="fill:#d8ff00;fill-opacity:1;stroke-width:170;stroke-linejoin:round;paint-order:markers fill stroke"
         d="m 243.69996,121.02148 c 7.34815,-4.0411 21.54353,-12.05288 25.34375,-0.31836 3.80022,-11.73452 17.9956,-3.72274 25.34375,0.31836 -15.06282,-11.94336 -35.62842,-11.94039 -50.6875,0 z" />
    </g>
    <path
       id="path6"
       style="fill:#d8ff00;fill-opacity:1;stroke-width:170;stroke-linejoin:round;paint-order:markers fill stroke"
       d="m 267.11398,272.74414 c -3.18847,0.007 -10.05821,0.15945 -14.00586,1.28125 -5.71139,1.62301 4.65856,5.03321 6.82422,5.39453 2.7295,0.4554 7.71497,0.61637 8.54297,0.64063 v 0.004 c 0.008,-2.4e-4 0.0581,-0.002 0.0684,-0.002 0.0102,2.9e-4 0.06,0.002 0.0684,0.002 v -0.004 c 0.828,-0.0243 5.81347,-0.18523 8.54297,-0.64063 2.16566,-0.36132 12.53561,-3.77152 6.82422,-5.39453 -3.94765,-1.1218 -10.81738,-1.27471 -14.00585,-1.28125 -0.73569,-0.002 -1.11546,0.006 -1.36133,0.01 -0.0207,-3.7e-4 -0.11203,4.2e-4 -0.13673,0 -0.24587,-0.004 -0.62563,-0.0116 -1.36133,-0.01 z" />
  </g>
</svg>
