<?xml version="1.0" encoding="UTF-8" standalone="no"?>
<!-- Created with Inkscape (http://www.inkscape.org/) -->

<svg
   version="1.1"
   id="svg1"
   width="559.14172"
   height="500"
   viewBox="0 0 559.14172 499.99999"
   sodipodi:docname="FerreteriaJavierDelCerro.svg"
   inkscape:version="1.3.2 (091e20e, 2023-11-25, custom)"
   xmlns:inkscape="http://www.inkscape.org/namespaces/inkscape"
   xmlns:sodipodi="http://sodipodi.sourceforge.net/DTD/sodipodi-0.dtd"
   xmlns="http://www.w3.org/2000/svg"
   xmlns:svg="http://www.w3.org/2000/svg">
  <sodipodi:namedview
     id="namedview1"
     pagecolor="#505050"
     bordercolor="#ffffff"
     borderopacity="1"
     inkscape:showpageshadow="0"
     inkscape:pageopacity="0"
     inkscape:pagecheckerboard="1"
     inkscape:deskcolor="#505050"
     inkscape:zoom="1.0988439"
     inkscape:cx="119.2162"
     inkscape:cy="210.67596"
     inkscape:window-width="1920"
     inkscape:window-height="991"
     inkscape:window-x="-9"
     inkscape:window-y="-9"
     inkscape:window-maximized="1"
     inkscape:current-layer="svg1" />
  <defs
     id="defs1">
    <clipPath
       clipPathUnits="userSpaceOnUse"
       id="clipPath84">
      <path
         d="M 0,172.913 H 257.953 V 0 H 0 Z"
         transform="translate(-139.502,-145.9617)"
         id="path84" />
    </clipPath>
    <clipPath
       clipPathUnits="userSpaceOnUse"
       id="clipPath86">
      <path
         d="M 0,172.913 H 257.953 V 0 H 0 Z"
         transform="translate(-125.5772,-141.2444)"
         id="path86" />
    </clipPath>
    <clipPath
       clipPathUnits="userSpaceOnUse"
       id="clipPath88">
      <path
         d="M 0,172.913 H 257.953 V 0 H 0 Z"
         transform="translate(-140.36141,-110.8406)"
         id="path88" />
    </clipPath>
  </defs>
  <g
     id="g274"
     transform="matrix(1.1182834,0,0,1.1182834,-139.86305,-27.505835)">
    <path
       id="path83"
       d="m 0,0 h -21.051 c -2.008,0 -3.863,-1.071 -4.866,-2.809 L -36.443,-21.04 c -1.004,-1.738 -1.004,-3.88 0,-5.619 l 10.526,-18.231 c 1.003,-1.738 2.858,-2.809 4.866,-2.809 H 0 c 2.007,0 3.862,1.071 4.866,2.809 l 10.526,18.231 c 1.004,1.739 1.004,3.881 0,5.619 L 4.866,-2.809 C 3.862,-1.071 2.007,0 0,0 m 0,-2.193 c 1.22,0 2.356,-0.657 2.966,-1.713 l 10.526,-18.231 c 0.61,-1.056 0.61,-2.369 0,-3.425 L 2.966,-43.793 C 2.356,-44.849 1.22,-45.505 0,-45.505 h -21.051 c -1.22,0 -2.357,0.656 -2.967,1.712 l -10.525,18.231 c -0.61,1.056 -0.61,2.369 0,3.425 l 10.525,18.231 c 0.61,1.056 1.747,1.713 2.967,1.713 H 0"
       style="fill:#d8ff00;fill-opacity:1;fill-rule:nonzero;stroke:none"
       transform="matrix(9.3736525,0,0,-9.3736525,473.73179,24.59648)"
       clip-path="url(#clipPath84)" />
    <path
       id="path85"
       d="m 0,0 h 0.637 c 0.889,0 1.61,-0.721 1.61,-1.609 v -35.046 c 0,-0.889 -0.721,-1.61 -1.61,-1.61 h -6.324 c -0.594,0 -1.14,0.327 -1.42,0.851 l -2.558,4.782 c -0.575,1.074 0.206,2.372 1.424,2.368 0.541,-0.001 1.046,-0.275 1.342,-0.729 l 2.144,-3.279 c 0.297,-0.456 0.803,-0.729 1.347,-0.729 h 0.189 c 0.889,0 1.61,0.72 1.61,1.609 V -1.609 C -1.609,-0.721 -0.889,0 0,0"
       style="fill:#d8ff00;fill-opacity:1;fill-rule:nonzero;stroke:none"
       transform="matrix(9.3736525,0,0,-9.3736525,343.20555,68.81481)"
       clip-path="url(#clipPath86)" />
    <path
       id="path87"
       d="m 0,0 h 0.366 c 1.103,0 1.831,-1.148 1.36,-2.146 l -2.288,-4.852 c -0.249,-0.526 -0.779,-0.863 -1.361,-0.863 h -6.44 c -0.831,0 -1.505,0.674 -1.505,1.505 v 35.255 c 0,0.831 0.674,1.505 1.505,1.505 h 6.183 c 0.562,0 1.076,-0.313 1.335,-0.811 l 2.443,-4.704 c 0.52,-1.001 -0.207,-2.198 -1.336,-2.198 -0.572,0 -1.095,0.326 -1.348,0.839 l -1.245,2.519 c -0.256,0.516 -0.784,0.842 -1.36,0.838 L -4.519,26.88 C -5.345,26.874 -6.012,26.202 -6.012,25.376 V -2.797 c 0,-0.83 0.674,-1.504 1.505,-1.504 h 0.616 c 0.59,0 1.126,0.345 1.37,0.883 l 1.151,2.535 C -1.126,-0.345 -0.59,0 0,0"
       style="fill:#d8ff00;fill-opacity:1;fill-rule:nonzero;stroke:none"
       transform="matrix(9.3736525,0,0,-9.3736525,481.78753,353.80947)"
       clip-path="url(#clipPath88)" />
  </g>
</svg>
