<?xml version="1.0" encoding="UTF-8" standalone="no"?>
<!-- Created with Inkscape (http://www.inkscape.org/) -->

<svg
   version="1.1"
   id="svg1"
   width="339.36075"
   height="500"
   viewBox="0 0 339.36075 500"
   xmlns="http://www.w3.org/2000/svg"
   xmlns:svg="http://www.w3.org/2000/svg">
  <defs
     id="defs1" />
  <g
     id="g8"
     transform="matrix(2.3262872,0,0,2.3262872,-315.48391,-145.32482)">
    <path
       id="path7"
       style="fill:#d8ff00;fill-opacity:1;stroke:none;stroke-width:170;stroke-linejoin:round;stroke-opacity:1;paint-order:markers fill stroke"
       d="m 208.64231,62.470725 c -25.67669,0 -52.7832,14.911062 -52.7832,69.195305 0,6.4957 -0.52544,8.01481 -2.34375,12.03907 0,0 1.79889,-0.86024 2.55664,-1.49219 1.00575,-0.83878 2.55664,-2.98242 2.55664,-2.98242 0,0 0.82908,7.83074 0.42578,11.71875 -2.27353,21.91821 -8.51599,31.88579 -19.8164,46.23633 0,0 3.93477,-0.18363 5.7539,-0.85352 1.88627,-0.69462 5.11328,-3.19531 5.11328,-3.19531 0,0 -2.30951,13.07429 -5.64648,18.64453 -2.14216,3.5758 -8.8418,8.8418 -8.8418,8.8418 0,0 8.49849,-0.31929 12.39258,-1.82618 3.10467,-1.2014 6.28681,-2.8349 7.87305,-5.76171 1.72734,-3.18718 3.46081,-13.21052 4.7832,-19.77539 1.04715,-5.19847 10.1798,-4.08189 9.41602,1.76953 -0.55408,4.2448 -1.84571,12.27929 -1.84571,12.27929 0,0 6.95556,-10.15453 9.45313,-15.10351 1.96474,-3.89319 3.88142,-12.65652 3.88142,-12.65652 0,0 -2.48853,-3.09224 -3.76842,-4.66881 -2.43356,-3.64125 -0.14125,-8.87147 4.52148,-8.41981 l -0.41573,-11.69432 c 0,0 13.21467,6.37415 25.16211,6.40235 11.60467,0.0274 25.00976,-5.49805 25.00976,-5.49805 l 0.22195,6.91371 c 0,0 2.77833,2.02801 1.8679,5.42578 -0.88289,3.29498 -0.96281,3.71812 -1.43555,5.48242 0,0 -0.006,3.43189 0.0996,5.37926 0.28882,5.3284 2.45058,10.51316 4.9707,15.2168 2.71888,5.07458 11.41406,14.05078 11.41406,14.05078 3.81017,-1.27288 6.40358,-2.4491 8.49261,0.37609 1.91911,2.59539 0.43403,4.82145 0.43403,4.82145 0,0 7.99924,3.60672 11.58313,4.53878 4.35843,1.13349 11.76953,1.82617 11.76953,1.82617 -6.02059,-3.66375 -12.1173,-9.95928 -14.76562,-15.2168 -2.37496,-4.71481 -3.16407,-15.51757 -3.16407,-15.51757 0,0 3.52602,2.01508 5.42383,2.71093 1.98988,0.72961 6.17774,1.50586 6.17774,1.50586 -10.11113,-10.45647 -15.93621,-24.28252 -16.42188,-25.46093 -4.68392,-11.36495 -4.0524,-20.09756 -3.4668,-27.04883 0,0 1.97836,2.16026 3.58594,3.2207 2.16378,1.42732 4.55078,2.2832 4.55078,2.2832 0,0 -3.12329,-4.77642 -3.99218,-7.45898 -1.39374,-4.30297 -1.82618,-8.92226 -1.82618,-13.44531 0,-48.553507 -25.96856,-62.802735 -48.95703,-62.802735 z m 1.55274,12.017579 c 0,0 11.07177,5.759237 16.27148,9.189453 2.90104,1.913793 5.89542,3.804682 8.28516,6.328125 1.96351,2.073359 3.35013,5.208761 4.89648,7.609371 3.78364,5.873877 7.14374,11.923397 11.42383,16.976567 0.58967,0.69617 0.41211,0.79692 0.41211,4.9375 0,21.26833 -22.46834,36.61718 -42.04297,36.61718 -19.37775,0 -44.16973,-14.94346 -43.83203,-36.91211 0.0184,-1.19849 -0.009,-2.49299 0.74023,-3.43164 2.61027,-3.27004 4.81542,-6.70499 7.24219,-10.74804 3.3622,-5.601487 4.28469,-9.708337 7.68555,-13.683594 8.07124,-9.434452 19.23284,-13.458459 28.91797,-16.882812 z" />
    <path
       style="fill:#d8ff00;fill-opacity:1;stroke:none;stroke-width:170;stroke-linejoin:round;stroke-opacity:1;paint-order:markers fill stroke"
       d="m 162.32252,194.38988 -12.05308,64.78531 c 0,0 -1.40652,6.0972 3.61592,7.90984 15.11979,5.45684 30.82298,10.32045 47.15768,10.32045 4.38855,0 4.29358,-6.3997 0.23016,-6.54123 -14.17707,-0.49379 -25.59927,-3.58591 -40.45728,-8.37446 -2.21443,-0.71369 -3.31411,-2.66014 -2.71194,-6.32787 0,0 7.24402,-41.13319 9.94379,-60.56673 0.64457,-4.63971 -5.15433,-4.67849 -5.72521,-1.20531 -1e-5,1e-5 -4e-5,0 -4e-5,0 z"
       id="path3" />
    <path
       style="fill:#d8ff00;fill-opacity:1;stroke:none;stroke-width:170;stroke-linejoin:round;stroke-opacity:1;paint-order:markers fill stroke"
       d="m 179.82888,174.2801 c 6.82871,8.50652 13.07901,15.72754 19.60247,23.65081 2.03168,2.1088 3.54353,4.58103 3.83527,7.45746 2.25787,22.26143 4.96158,49.02802 7.24439,68.3956 0.51379,4.35903 7.24747,3.74076 6.81825,-0.42615 -2.49407,-24.21223 -4.91418,-45.65619 -7.45746,-68.39559 -0.36494,-3.26289 -0.7659,-7.08058 -2.98299,-9.58816 -7.45412,-8.43081 -14.533,-16.55565 -22.37239,-25.78152 -2.9215,-3.4382 -8.04389,0.50656 -4.68754,4.68755 z"
       id="path4" />
    <path
       style="fill:#d8ff00;fill-opacity:1;stroke:none;stroke-width:170;stroke-linejoin:round;stroke-opacity:1;paint-order:markers fill stroke"
       d="m 212.0025,194.09564 c 7.10788,-8.87372 13.12451,-19.9953 14.89019,-27.76267 0.94116,-4.14021 6.74413,-2.94753 5.56457,1.76809 -1.87345,7.48961 -5.79573,17.64568 -15.76721,30.36253 -2.50453,3.19408 -7.73532,-0.56301 -4.68755,-4.36795 z"
       id="path5" />
    <path
       style="fill:#d8ff00;fill-opacity:1;stroke:none;stroke-width:170;stroke-linejoin:round;stroke-opacity:1;paint-order:markers fill stroke"
       d="m 252.87128,209.00424 c -8.05049,3.28562 -16.15818,5.63552 -24.71032,7.46061 -3.25769,0.73555 -3.2998,2.25237 -2.75062,5.10602 1.45039,9.33124 2.85023,16.32363 4.63542,24.11993 0.69532,3.03662 1.50202,2.9386 4.14325,2.2223 6.97637,-1.89199 13.10761,-4.88501 19.88758,-7.26952 1.63753,-0.57592 2.99281,-0.0678 3.3146,1.50664 0.93967,4.59745 2.01358,9.88008 2.71194,14.76502 0.21579,1.50941 -0.23633,2.75764 -1.50663,3.46526 -6.10136,3.39877 -16.97882,7.32627 -27.2701,9.64247 -3.0706,0.69108 -2.38685,5.83063 1.42752,5.37061 12.18916,-1.47003 27.36001,-8.83555 32.49762,-12.4518 1.67557,-1.17849 1.73107,-2.81929 1.45337,-4.67057 -1.17812,-7.85409 -2.85323,-16.00616 -4.64315,-23.9555 -0.60001,-2.66472 -1.71897,-3.12042 -4.33157,-1.95862 -6.45908,2.87229 -12.86064,5.43227 -19.86875,7.92867 -1.82966,0.65175 -2.39034,0.11287 -2.73079,-1.37481 -1.11372,-4.86664 -2.07737,-9.73308 -2.7496,-14.84036 -0.23562,-1.79015 -0.0301,-2.56617 1.63846,-3.01327 7.50587,-2.01119 14.58717,-4.2864 21.11173,-7.53317 2.83245,-1.40949 1.19883,-5.93153 -2.25996,-4.51991 z"
       id="path6" />
  </g>
</svg>
