<?xml version="1.0" encoding="UTF-8" standalone="no"?>
<!-- Created with Inkscape (http://www.inkscape.org/) -->

<svg
   version="1.1"
   id="svg1"
   width="519.42609"
   height="500"
   viewBox="0 0 519.42609 500"
   xmlns="http://www.w3.org/2000/svg"
   xmlns:svg="http://www.w3.org/2000/svg">
  <defs
     id="defs1" />
  <g
     id="g1"
     transform="translate(-613.88835,592.76276)">
    <path
       id="path1"
       d="m 638.17163,-330.0351 16.06231,-16.06231 56.00194,56.00196 -16.0623,16.06229 z m -0.22195,-16.29593 c -1.81065,1.81066 -3.84327,2.95546 -6.33147,3.62132 -2.37137,0.57239 -4.87126,0.57239 -7.24263,-1e-5 -2.48819,-0.66585 -4.5325,-1.79898 -6.34316,-3.60964 -1.91579,-1.91579 -3.16572,-4.07691 -3.71477,-6.44828 -0.5724,-2.37138 -0.57239,-4.87125 1e-5,-7.24264 0.78267,-2.37138 1.9158,-4.41568 3.72644,-6.22634 1.91579,-1.91579 3.96009,-3.0489 6.22633,-3.72645 2.3714,-0.57239 4.85959,-0.56072 7.24264,0 2.35972,0.56071 4.52082,1.81066 6.43662,3.72645 1.81066,1.81067 2.94378,3.85497 3.62131,6.33148 0.56072,2.38306 0.5724,4.87125 0,7.24263 -0.56072,2.38308 -1.70552,4.41568 -3.62132,6.33148 z m 75.22706,-30.64979 c -2.94377,2.94377 -4.63762,6.22633 -5.0932,9.62568 -0.56073,3.50451 -2e-5,6.77538 1.47189,10.06962 1.35507,3.38768 3.62132,6.56509 6.44828,9.39205 l 26.01509,26.0151 -16.06231,16.0623 -27.82574,-27.82574 c -5.54879,-5.54879 -9.39208,-11.65832 -11.6583,-18.22342 -2.37139,-6.67023 -2.71016,-13.34048 -1.13313,-20.36115 1.70552,-7.12582 5.89924,-13.79606 12.34753,-20.24435 6.56509,-6.56509 13.34047,-10.86396 20.34947,-12.45267 6.90387,-1.69384 13.80774,-1.35506 20.37284,0.91117 6.67024,2.37137 12.77975,6.21465 18.32856,11.76346 l 27.82574,27.82573 -16.0623,16.06231 -25.90996,-25.90995 c -2.9321,-2.9321 -5.99269,-5.08153 -9.4972,-6.55342 -3.29424,-1.47189 -6.68192,-1.9158 -10.06959,-1.4719 -3.39937,0.45559 -6.79875,2.26626 -9.84767,5.31518 z m 115.49672,-28.16452 c -5.42029,5.42029 -10.85228,8.81967 -16.5062,10.40837 -5.66562,1.57701 -11.20274,1.4602 -16.5179,-0.23363 -5.43198,-1.81067 -10.40836,-4.96471 -15.04599,-9.60234 l -48.19859,-48.19859 16.07398,-16.07397 47.62619,47.62618 c 3.16573,3.16573 6.55342,4.75442 10.0696,4.6493 3.38769,-10e-6 6.67026,-1.48359 9.60235,-4.41567 1.58869,-1.58871 3.17741,-3.62131 4.42735,-5.9927 1.46019,-2.37138 2.37138,-4.63762 2.93211,-6.78707 l 14.36845,14.36847 c -0.56072,2.14942 -1.69384,4.6376 -3.39935,7.23095 -1.57704,2.72184 -3.50451,5.09321 -5.432,7.0207 z m -32.58018,-55.66319 -46.0375,46.03749 -13.57409,-13.5741 46.03748,-46.03749 z m 82.70917,5.09029 c -5.88757,5.88757 -12.33585,9.83596 -19.46167,11.9854 -7.23097,2.04431 -14.36846,2.14943 -21.37746,0.35045 -7.25433,-1.81066 -13.80773,-5.65393 -19.80043,-11.64663 -5.32686,-5.32685 -9.05331,-11.55316 -10.9691,-18.44537 -2.16112,-6.90385 -2.26624,-13.80773 -0.5724,-20.92187 1.81069,-7.02068 5.54879,-13.46898 11.31953,-19.23972 5.87588,-5.87587 12.20737,-9.73084 18.88927,-11.20272 6.78705,-1.57703 13.5741,-1.35508 20.02239,0.79436 6.56511,2.0326 12.32416,5.54878 17.41738,10.642 l 4.85958,4.85957 -44.44878,44.44878 -1.57703,-6.55343 c 3.15406,3.38768 6.55344,5.66562 10.29156,6.90387 3.72646,1.24995 7.4529,1.35508 11.07423,0.4439 3.73814,-1.00462 7.13751,-3.04891 10.18642,-6.09784 3.0606,-3.06059 5.21003,-6.5651 6.21465,-10.30322 1.02799,-3.94842 0.79436,-7.80336 -0.4439,-11.75177 l 18.6673,-6.00437 c 2.4882,7.46458 2.93211,14.70722 1.23825,22.05499 -1.79896,7.24264 -5.6539,13.80773 -11.52979,19.68362 z m -49.67048,-20.69992 24.99878,-24.99878 c -2.25457,-1.81066 -4.62594,-2.82698 -7.23095,-3.39937 -2.60502,-0.33878 -5.19835,-0.22195 -7.92019,0.67754 -2.60501,0.80604 -5.0932,2.38305 -7.35944,4.64929 -2.25457,2.25457 -3.84328,4.75446 -4.75444,7.4646 -0.79437,2.82697 -1.01631,5.31516 -0.56073,8.03698 0.45558,2.69848 1.36677,5.19835 2.82697,7.56974 z m 115.16377,-44.79338 c -4.0652,4.29886 -8.70285,7.34777 -14.02969,9.49719 -5.09318,2.14944 -10.5252,3.28256 -15.94548,3.28256 -5.43197,-0.0117 -10.64202,-1.13312 -15.84033,-3.17741 -5.19837,-2.02094 -9.73085,-4.96473 -13.80775,-9.04163 -4.06522,-4.06522 -7.009,-8.59771 -9.04161,-13.80773 -2.0443,-5.19834 -3.16576,-10.40837 -3.16574,-15.82867 -0.0117,-5.43198 1.23825,-10.74714 3.28256,-15.94549 2.26623,-5.21003 5.31515,-9.84764 9.614,-13.91287 5.43199,-5.43198 11.76346,-9.28694 19.00609,-11.31955 7.00901,-2.03261 14.59041,-1.69383 22.62744,1.13313 l -6.12123,20.58311 c -3.72643,-1.24994 -7.34778,-1.46022 -10.86396,-0.67756 -3.60965,0.68923 -6.78705,2.48822 -9.61401,5.31518 -2.60502,2.60501 -4.28718,5.66563 -5.19835,9.05329 -0.79435,3.50451 -0.66586,6.78706 0.23364,10.18643 0.8995,3.39936 2.59332,6.44829 5.30347,9.15844 2.60501,2.60501 5.65394,4.29883 9.17011,5.31516 3.39937,0.89947 6.78706,1.13312 10.18645,0.23362 3.50449,-0.79435 6.55337,-2.48821 9.15838,-5.09319 2.82702,-2.82696 4.52081,-6.10952 5.31519,-9.61402 0.67755,-3.62133 0.45561,-7.25434 -0.67755,-10.86397 l 20.5948,-6.10951 c 2.71018,7.92018 3.16571,15.61839 1.13315,22.62741 -2.14947,7.12582 -5.88755,13.57409 -11.31958,19.00608 z m 0,0"
       style="fill:#d8ff00;fill-opacity:1;fill-rule:nonzero;stroke:none;stroke-width:1.40973"
       aria-label="intec" />
    <g
       id="g7"
       transform="matrix(0.7476272,-0.7476272,0.7476272,0.7476272,608.08256,-356.50285)">
      <path
         id="path5"
         style="fill:#d8ff00;fill-opacity:1;fill-rule:nonzero;stroke:none;stroke-width:1.33333"
         d="m 246.34766,376.36719 c -2.42187,0 -4.54688,0.60937 -6.65625,1.82812 -1.96875,1.20313 -3.64062,2.87499 -4.84375,4.84375 -1.21875,2.10937 -1.8125,4.23438 -1.8125,6.65625 0,2.5625 0.59375,4.6875 1.8125,6.65625 1.20313,1.96875 2.875,3.625 4.84375,4.84375 2.10937,1.20313 4.23438,1.8125 6.65625,1.8125 2.56249,0 4.84375,-0.60937 6.79687,-1.8125 1.96875,-1.21875 3.64063,-2.875 4.84375,-4.84375 1.0625,-1.96875 1.67188,-4.09375 1.67188,-6.65625 0,-2.42187 -0.60938,-4.54688 -1.67188,-6.65625 -1.20312,-1.96876 -2.875,-3.64062 -4.84375,-4.84375 -1.95312,-1.21875 -4.23438,-1.82812 -6.79687,-1.82812 z m -99.26563,2.57812 v 21.48438 h 74.90625 v -21.48438 z" />
      <path
         style="fill:#d8ff00;fill-opacity:1;fill-rule:nonzero;stroke:none;stroke-width:1.33333"
         d="M 203.22265,460.5078"
         id="path7" />
      <path
         style="fill:#d8ff00;fill-opacity:1;fill-rule:nonzero;stroke:none;stroke-width:1.33333"
         d="m 203.22265,460.5078 c 0,-3.93751 -1.0625,-7.26562 -3.03125,-9.84374 -1.96875,-2.71876 -4.53125,-4.53126 -7.71875,-5.75 -3.17187,-1.35938 -6.8125,-1.96876 -10.59375,-1.96876 h -34.79687 v -21.48438 h 37.21875 c 7.42187,0 14.07812,1.51563 19.98437,4.39063 6.04688,2.875 10.73438,7.10937 14.375,12.85937 3.625,5.90626 5.28125,13.17188 5.28125,21.79688 0,8.78125 -1.65625,16.18749 -5.28125,21.93749 -3.48437,5.75 -8.32812,10.14063 -14.23437,13.01563 -6.04688,2.875 -12.70313,4.39063 -20.125,4.39063 h -37.21875 v -21.48438 h 34.65625 c 3.92187,0 7.40625,-0.60937 10.73437,-1.96874 3.1875,-1.21875 5.75,-3.18751 7.71875,-5.75 1.96875,-2.57814 3.03125,-6.06251 3.03125,-10.14063 z"
         id="path6" />
      <path
         style="fill:#d8ff00;fill-opacity:1;fill-rule:nonzero;stroke:none;stroke-width:1.33333"
         d="m 144.95703,313.89062 c 0,-7.26563 1.82812,-13.78125 5.45312,-19.375 3.48438,-5.45312 8.32813,-9.82812 14.375,-13.01563 5.90625,-3.17188 12.5625,-4.84374 19.82813,-4.84374 7.25,0 13.92187,1.81249 19.8125,5.45312 6.0625,3.625 10.75,8.46874 14.375,14.53125 3.48437,6.04688 5.29687,13 5.29687,20.71875 0,7.71874 -1.65625,14.6875 -5.14062,20.89062 -3.48438,6.04688 -8.17188,10.89063 -14.07813,14.375 -5.89062,3.46875 -12.70312,5.29688 -20.26562,5.29688 h -37.53125 v -20.28125 h 26.9375 l 1.8125,6.35937 c -5.90625,0 -11.04688,-1.21875 -15.73438,-3.64063 -4.6875,-2.56249 -8.32812,-6.04686 -11.04687,-10.43749 -2.71875,-4.53125 -4.09375,-9.82813 -4.09375,-16.03125 z m 20.28125,3.46875 c 0,3.64062 0.76562,6.96874 2.57812,9.84374 1.8125,2.875 4.07813,5.14063 6.95313,6.79688 3.03125,1.67188 6.20312,2.42188 9.6875,2.42188 3.625,0 6.8125,-0.75 9.82812,-2.42188 2.875,-1.65625 5.29688,-3.92188 6.96875,-6.79688 1.8125,-2.875 2.57813,-6.20312 2.57813,-9.84374 0,-3.78126 -0.76563,-6.95312 -2.57813,-9.82812 -1.67187,-2.875 -4.09375,-5.14063 -6.96875,-6.81251 -3.01562,-1.67187 -6.20312,-2.57812 -9.82812,-2.57812 -3.48438,0 -6.65625,0.90625 -9.6875,2.57812 -2.875,1.67188 -5.14063,3.93751 -6.95313,6.81251 -1.8125,2.875 -2.57812,6.04686 -2.57812,9.82812 z"
         id="path3" />
      <path
         style="fill:#d8ff00;fill-opacity:1;fill-rule:nonzero;stroke:none;stroke-width:1.33333"
         d="m 224.55078,225.8164 c 0,8.01562 -1.65625,14.82812 -5.29688,20.28125 -3.46875,5.4375 -8.01562,9.53125 -13.92187,12.25 -5.75,2.71874 -12.09375,4.07813 -19.0625,4.07813 h -39.1875 V 240.9414 h 35.5625 c 3.78125,0 7.40625,-0.59375 10.59375,-1.65625 3.17187,-1.21875 5.75,-3.03125 7.5625,-5.45313 1.96875,-2.57812 2.875,-5.75 2.875,-9.6875 0,-3.78124 -0.90625,-6.95312 -2.71875,-9.37499 -1.96875,-2.42188 -4.39063,-4.23438 -7.57813,-5.45313 -3.17187,-1.20312 -6.65625,-1.65625 -10.59375,-1.65625 h -35.70312 v -21.48437 h 35.70312 c 3.9375,0 7.42188,-0.60938 10.59375,-1.82813 3.1875,-1.04687 5.60938,-2.875 7.57813,-5.28125 1.8125,-2.57812 2.71875,-5.75 2.71875,-9.6875 0,-3.9375 -0.90625,-7.10937 -2.875,-9.53125 -1.8125,-2.42187 -4.39063,-4.25 -7.5625,-5.45312 -3.1875,-1.0625 -6.65625,-1.67188 -10.59375,-1.67188 h -35.5625 v -21.48437 h 39.1875 c 6.96875,0 13.3125,1.375 19.0625,4.09375 5.90625,2.71875 10.45312,6.8125 13.92187,12.25 3.64063,5.45312 5.29688,12.10937 5.29688,20.125 0,6.51562 -1.20313,12.10937 -3.48438,16.79687 -2.40625,4.6875 -5.59375,8.32813 -9.82812,10.89063 -4.23438,2.57812 -9.07813,3.9375 -14.53125,3.9375 v -4.84375 c 5.45312,0.15625 10.29687,1.51562 14.53125,4.23437 4.23437,2.73438 7.42187,6.51563 9.82812,11.04688 2.28125,4.70312 3.48438,9.98437 3.48438,16.04687 z"
         id="path2" />
    </g>
  </g>
</svg>
