<?xml version="1.0" encoding="UTF-8" standalone="no"?>
<!-- Created with Inkscape (http://www.inkscape.org/) -->

<svg
   version="1.1"
   id="svg1"
   width="2477.572"
   height="500"
   viewBox="0 0 2477.572 500"
   sodipodi:docname="Intecmain.svg"
   inkscape:version="1.3.2 (091e20e, 2023-11-25, custom)"
   xmlns:inkscape="http://www.inkscape.org/namespaces/inkscape"
   xmlns:sodipodi="http://sodipodi.sourceforge.net/DTD/sodipodi-0.dtd"
   xmlns="http://www.w3.org/2000/svg"
   xmlns:svg="http://www.w3.org/2000/svg">
  <sodipodi:namedview
     id="namedview1"
     pagecolor="#505050"
     bordercolor="#ffffff"
     borderopacity="1"
     inkscape:showpageshadow="0"
     inkscape:pageopacity="0"
     inkscape:pagecheckerboard="1"
     inkscape:deskcolor="#505050"
     inkscape:zoom="0.38849998"
     inkscape:cx="1132.5612"
     inkscape:cy="-83.655089"
     inkscape:window-width="1920"
     inkscape:window-height="991"
     inkscape:window-x="-9"
     inkscape:window-y="-9"
     inkscape:window-maximized="1"
     inkscape:current-layer="svg1" />
  <defs
     id="defs1" />
  <g
     id="g1"
     transform="matrix(4.9539441,0,0,4.9539441,0.46443339,-999.12927)">
    <path
       id="path1"
       d="M 6.8542965,-45.936992 H 13.85039 V 5.078125e-4 H 6.8542965 Z m 40.7929685,18.105469 c -2.191406,0 -4.042969,0.550781 -5.484375,1.570312 -1.511719,1.101563 -2.601562,2.542969 -3.363281,4.253906 -0.75,1.78125 -1.089844,3.703125 -1.089844,5.765625 V 5.078125e-4 H 30.924609 V -16.933086 c 0,-3.222656 0.609375,-6.164062 1.910156,-8.847656 1.300781,-2.601563 3.152344,-4.722656 5.625,-6.234375 2.472656,-1.582031 5.554688,-2.332031 9.1875,-2.332031 3.632813,0 6.785156,0.75 9.257813,2.261718 2.53125,1.582032 4.382812,3.632813 5.683593,6.304688 1.300782,2.613281 1.992188,5.554687 1.992188,8.777344 V 5.078125e-4 H 57.795703 V -16.183086 c 0,-2.050781 -0.410157,-3.972656 -1.171875,-5.753906 -0.75,-1.78125 -1.851563,-3.222656 -3.351563,-4.324219 -1.511719,-1.019531 -3.363281,-1.570312 -5.625,-1.570312 z M 94.955859,0.89113281 c -2.8125,0 -5.144531,-0.55078125 -6.996094,-1.640625 C 86.03789,-1.7807422 84.608203,-3.3627734 83.576953,-5.2729297 82.616015,-7.1948047 82.135547,-9.4565234 82.135547,-11.999492 v -30.292969 h 6.785156 v 30.023438 c 0,2.261718 0.621094,3.9726558 1.78125,5.1445308 1.242187,1.2304688 2.8125,1.8515625 4.804687,1.8515625 1.089844,0 2.191407,-0.2109375 3.351563,-0.5507812 1.101562,-0.3515625 2.062497,-0.8203125 2.882817,-1.4414063 v 6.234375 C 100.9207,-0.40964844 99.81914,5.078125e-4 98.588672,0.34035156 97.358203,0.75050781 96.116015,0.89113281 94.955859,0.89113281 Z M 101.74102,-27.690898 H 75.491015 v -5.835938 h 26.250005 z m 29.06835,28.51171831 c -3.35156,0 -6.375,-0.75 -9.11718,-2.33203121 -2.67188,-1.5 -4.79297,-3.6328125 -6.30469,-6.3046875 -1.58203,-2.6718746 -2.33203,-5.6835936 -2.33203,-9.1171876 0,-3.222656 0.6914,-6.164062 2.12109,-8.847656 1.44141,-2.671875 3.4336,-4.792969 5.96485,-6.375 2.54296,-1.570313 5.48437,-2.390625 8.84765,-2.390625 3.42188,0 6.375,0.75 8.77735,2.261719 2.46093,1.5 4.38281,3.492187 5.68359,6.023437 1.30078,2.542969 1.99219,5.355469 1.99219,8.507813 v 2.671875 h -28.17188 l 1.30078,-2.671875 c -0.14062,2.332031 0.19922,4.453125 1.16016,6.375 0.89062,1.8515621 2.19141,3.3632808 3.98437,4.4531246 1.71094,1.1015625 3.76172,1.6523437 6.09375,1.6523437 2.0625,0 3.97266,-0.421875 5.69532,-1.3125 1.71093,-0.9609375 3.08203,-2.3320312 4.11328,-4.1718753 l 5.20312,2.7421878 c -1.5,2.8710938 -3.5625,5.0625 -6.16406,6.5742188 -2.60156,1.51171871 -5.55469,2.26171871 -8.84766,2.26171871 z M 119.91094,-19.405742 h 19.74609 c -0.0703,-1.851563 -0.55078,-3.421875 -1.37109,-4.722656 -0.89063,-1.371094 -1.99219,-2.472657 -3.4336,-3.222657 -1.4414,-0.691406 -3.08203,-1.101562 -4.86328,-1.101562 -1.92187,0 -3.5625,0.410156 -5.0039,1.242187 -1.44141,0.75 -2.54297,1.839844 -3.4336,3.210938 -0.89062,1.371094 -1.42969,2.882812 -1.64062,4.59375 z m 55.46777,20.22656231 c -2.40234,0 -4.73437,-0.48046875 -6.85547,-1.37109375 -2.13281,-0.89062496 -3.98437,-2.19140626 -5.55469,-3.77343746 -1.65234,-1.5703125 -2.88281,-3.4921875 -3.77343,-5.6132813 -0.96094,-2.1914058 -1.3711,-4.4648438 -1.3711,-6.8554688 0,-2.472656 0.41016,-4.734375 1.3711,-6.855469 0.89062,-2.132812 2.12109,-3.984375 3.77343,-5.625 1.57032,-1.582031 3.42188,-2.882812 5.55469,-3.773437 2.1211,-0.890625 4.45313,-1.371094 6.85547,-1.300781 3.08203,0 5.96484,0.691406 8.63672,2.121093 2.60156,1.441407 4.72266,3.644532 6.30469,6.726563 l -5.69532,3.082031 c -0.96093,-1.851562 -2.26171,-3.222656 -3.90234,-4.183594 -1.58203,-0.890625 -3.43359,-1.371093 -5.34375,-1.371093 -1.99219,0 -3.77344,0.480468 -5.42578,1.511718 -1.64063,1.03125 -2.94141,2.402344 -3.90234,4.042969 -0.96094,1.710938 -1.44141,3.5625 -1.44141,5.625 0,2.050781 0.48047,3.902344 1.44141,5.613281 0.96093,1.6523441 2.26171,3.0234378 3.90234,4.0546878 1.65234,1.0195313 3.43359,1.5 5.42578,1.5 1.91016,0 3.76172,-0.4804687 5.34375,-1.3710937 1.64063,-0.9609375 2.94141,-2.3320313 3.90234,-4.1132811 l 5.69532,3.0937498 c -1.58203,3.0117188 -3.70313,5.203125 -6.30469,6.6445313 -2.67188,1.44140621 -5.55469,2.19140621 -8.63672,2.19140621 z M 244.20293,-34.546367 c 3.43359,0 6.24609,0.75 8.57812,2.320312 2.32032,1.511719 4.11329,3.503907 5.27344,6.105469 1.23047,2.542969 1.78125,5.34375 1.78125,8.507813 V 5.078125e-4 h -6.78515 V -16.52293 c 0,-2.050781 -0.26954,-3.972656 -0.96094,-5.683593 -0.67969,-1.792969 -1.71094,-3.164063 -3.08203,-4.183594 -1.3711,-1.101563 -3.15235,-1.582031 -5.21485,-1.582031 -2.05078,0 -3.77343,0.480468 -5.14453,1.511718 -1.30078,1.03125 -2.32031,2.402344 -3.01172,4.113282 -0.67968,1.710937 -1.03125,3.5625 -1.03125,5.625 V 5.078125e-4 h -6.78515 V -16.663555 c 0,-2.121093 -0.33985,-3.972656 -1.03125,-5.683593 -0.67969,-1.710938 -1.71094,-3.082032 -3.08203,-4.113282 -1.44141,-1.03125 -3.15235,-1.511718 -5.20313,-1.511718 -2.13281,0 -3.84375,0.480468 -5.21484,1.582031 -1.30078,1.019531 -2.33203,2.390625 -3.01172,4.113281 -0.6211,1.78125 -0.96094,3.632813 -0.96094,5.683594 V 5.078125e-4 h -6.78516 V -17.55418 c 0,-3.152343 0.60938,-6.023437 1.78125,-8.566406 1.16016,-2.601562 2.94141,-4.59375 5.20313,-6.105469 2.33203,-1.570312 5.14453,-2.320312 8.50781,-2.320312 2.80078,0 5.27344,0.539062 7.33594,1.640625 2.05078,1.160156 3.69141,2.671875 4.86328,4.59375 1.16016,1.921875 1.78125,4.113281 1.85156,6.644531 h -1.51172 c 0.0703,-2.53125 0.69141,-4.722656 1.85157,-6.644531 1.17187,-1.921875 2.8125,-3.433594 4.80468,-4.59375 2.05079,-1.101563 4.38282,-1.640625 6.98438,-1.640625 z m 45.45703,35.36718731 c -3.22266,0 -6.09375,-0.8203124975 -8.63672,-2.40234371 -2.53125,-1.5703125 -4.52344,-3.6914063 -5.96484,-6.375 -1.5,-2.6718746 -2.19141,-5.6132816 -2.19141,-8.9062496 0,-3.222657 0.75,-6.105469 2.33203,-8.777344 1.57032,-2.671875 3.70313,-4.792969 6.44532,-6.375 2.67187,-1.582031 5.68359,-2.402344 9.04687,-2.402344 3.43359,0 6.51563,0.820313 9.1875,2.332031 2.67188,1.582032 4.79297,3.632813 6.375,6.304688 1.58203,2.613281 2.40234,5.625 2.40234,8.917969 V 5.078125e-4 h -6.44531 V -12.479961 l 2.26172,-1.78125 c 0,2.8125 -0.62109,5.3437501 -1.85156,7.6757813 -1.23047,2.2617188 -3.01172,4.0546875 -5.21485,5.4257813 -2.1914,1.30078121 -4.79296,1.98046871 -7.74609,1.98046871 z m 1.03125,-6.37500001 c 2.12109,0 4.04297,-0.5507812 5.69531,-1.5703125 1.71094,-1.03125 3.01172,-2.3320312 3.97266,-4.0546878 1.03125,-1.710937 1.51172,-3.5625 1.51172,-5.613281 0,-2.0625 -0.48047,-3.914062 -1.51172,-5.625 -0.96094,-1.640625 -2.26172,-3.011719 -3.97266,-4.042969 -1.65234,-1.03125 -3.57422,-1.511718 -5.69531,-1.511718 -2.05078,0 -3.97266,0.480468 -5.625,1.511718 -1.64062,1.03125 -3.01172,2.402344 -3.97266,4.042969 -0.96093,1.710938 -1.4414,3.5625 -1.4414,5.625 0,2.050781 0.48047,3.902344 1.4414,5.613281 0.96094,1.7226566 2.33204,3.0234378 3.97266,4.0546878 1.65234,1.0195313 3.57422,1.5703125 5.625,1.5703125 z m 34.42383,-27.9726563 h 6.78515 V 5.078125e-4 h -6.78515 z m 3.42187,-6.644531 c -0.82031,0 -1.58203,-0.210938 -2.26172,-0.621094 -0.6914,-0.410156 -1.23046,-0.890625 -1.58203,-1.640625 -0.41015,-0.691406 -0.60937,-1.441406 -0.60937,-2.261719 0,-0.820312 0.19922,-1.582031 0.60937,-2.261718 0.35157,-0.691407 0.89063,-1.242188 1.58203,-1.582032 0.67969,-0.410156 1.44141,-0.609375 2.26172,-0.609375 0.82032,0 1.58203,0.199219 2.19141,0.609375 0.69141,0.339844 1.17187,0.890625 1.58203,1.582032 0.41016,0.679687 0.60938,1.441406 0.60938,2.261718 0,0.820313 -0.19922,1.570313 -0.60938,2.261719 -0.41016,0.75 -0.89062,1.230469 -1.58203,1.640625 -0.60938,0.410156 -1.37109,0.621094 -2.19141,0.621094 z m 36.47461,12.339844 c -2.1914,0 -4.04297,0.550781 -5.48437,1.570312 -1.51172,1.101563 -2.60156,2.542969 -3.36328,4.253906 -0.75,1.78125 -1.08985,3.703125 -1.08985,5.765625 V 5.078125e-4 h -6.78515 V -16.933086 c 0,-3.222656 0.60937,-6.164062 1.91015,-8.847656 1.30078,-2.601563 3.15235,-4.722656 5.625,-6.234375 2.47266,-1.582031 5.55469,-2.332031 9.1875,-2.332031 3.63282,0 6.78516,0.75 9.25782,2.261718 2.53125,1.582032 4.38281,3.632813 5.68359,6.304688 1.30078,2.613281 1.99219,5.554687 1.99219,8.777344 V 5.078125e-4 h -6.78516 V -16.183086 c 0,-2.050781 -0.41016,-3.972656 -1.17187,-5.753906 -0.75,-1.78125 -1.85157,-3.222656 -3.35157,-4.324219 -1.51172,-1.019531 -3.36328,-1.570312 -5.625,-1.570312 z m 0,0"
       style="fill:#d8ff00;fill-opacity:1;fill-rule:nonzero;stroke:none"
       aria-label="Intecmain"
       transform="matrix(1.3333333,0,0,1.3333333,-9.232812,267.21417)" />
    <path
       id="path2"
       d="M 3.9013429,0.02379744 H 0.93649919 L 2.7646242,-11.577765 c 0.1171875,-0.703125 0.3984375,-1.21875 0.8554687,-1.582031 0.4570313,-0.386719 1.0429688,-0.5625 1.7226563,-0.5625 0.5976562,0 1.1132812,0.164062 1.59375,0.445312 0.46875,0.269531 0.7851562,0.738281 0.9492187,1.394531 l 2.2382811,8.3789067 c 0,0.046875 0.01172,0.058594 0.03516,0.058594 0,0 0.02344,0 0.02344,0 0,0 0,-0.011719 0.02344,-0.058594 l 2.214844,-8.3437497 c 0.164063,-0.632813 0.480469,-1.113282 0.960938,-1.417969 0.480468,-0.292969 1.019531,-0.433594 1.640625,-0.433594 0.65625,0 1.21875,0.175781 1.675781,0.539063 0.445312,0.375 0.726562,0.914062 0.820312,1.640625 L 19.159155,3.599375e-4 H 16.217749 L 14.916968,-10.558234 c 0,-0.05859 -0.01172,-0.105469 -0.01172,-0.128906 -0.02344,-0.01172 -0.04687,-0.01172 -0.105469,-0.01172 -0.02344,0 -0.03516,0 -0.05859,0.01172 -0.02344,0.02344 -0.03516,0.04687 -0.05859,0.105469 l -2.484375,8.9179684 c -0.152344,0.5039063 -0.421875,0.87890629 -0.773438,1.12500004 -0.363281,0.2578125 -0.785156,0.375 -1.265625,0.375 -0.4570308,0 -0.8789058,-0.1171875 -1.2773433,-0.3515625 C 8.4950929,-0.76135881 8.2372804,-1.1246401 8.1200929,-1.6051088 l -2.484375,-9.0000002 c -0.011719,-0.03516 -0.011719,-0.08203 -0.035156,-0.09375 -0.023437,0 -0.058594,-0.02344 -0.082031,-0.02344 -0.023437,0 -0.058594,0.02344 -0.082031,0.03516 -0.011719,0.02344 -0.035156,0.07031 -0.035156,0.128906 z m 24.0585941,0.2578125 c -1.019532,0 -1.921875,-0.24609375 -2.742188,-0.7265625 -0.796875,-0.45703125 -1.441406,-1.08984374 -1.921875,-1.89843754 -0.46875,-0.7734375 -0.714844,-1.6523437 -0.714844,-2.6132812 0,-0.9609375 0.246094,-1.8398438 0.714844,-2.625 0.480469,-0.796875 1.125,-1.4179688 1.921875,-1.8984375 0.820313,-0.4570313 1.722656,-0.7031252 2.742188,-0.7031252 1.019531,0 1.945312,0.2460939 2.742187,0.7031252 0.796875,0.4804687 1.441406,1.1015625 1.921875,1.8984375 0.457031,0.7851562 0.703125,1.6640625 0.703125,2.625 0,0.9609375 -0.246094,1.8398437 -0.703125,2.6132812 -0.480469,0.8085938 -1.125,1.44140629 -1.921875,1.89843754 -0.820312,0.48046875 -1.722656,0.7265625 -2.742187,0.7265625 z m 0,-2.68359374 c 0.503906,0 0.925781,-0.09375 1.300781,-0.3398438 0.386719,-0.234375 0.679687,-0.5390625 0.902344,-0.9140625 0.222656,-0.4101562 0.316406,-0.8203125 0.316406,-1.2890625 0,-0.4804687 -0.09375,-0.890625 -0.316406,-1.3007812 -0.222657,-0.375 -0.515625,-0.6914063 -0.902344,-0.9140625 -0.375,-0.2460938 -0.796875,-0.3398438 -1.300781,-0.3398438 -0.480469,0 -0.914063,0.09375 -1.300782,0.3398438 -0.375,0.2226562 -0.679687,0.5390625 -0.902343,0.9140625 -0.210938,0.4101562 -0.339844,0.8203125 -0.339844,1.3007812 0,0.46875 0.128906,0.8789063 0.339844,1.2890625 0.222656,0.375 0.527343,0.6796875 0.902343,0.9140625 0.386719,0.2460938 0.820313,0.3398438 1.300782,0.3398438 z m 14.422851,2.68359374 c -1.042968,0 -1.957031,-0.22265625 -2.765625,-0.6796875 -0.820312,-0.4453125 -1.441406,-1.06640624 -1.921875,-1.86328124 -0.457031,-0.7734375 -0.691406,-1.6757813 -0.691406,-2.6601563 V -14.43714 h 2.835938 v 7.4999999 l -1.359375,0.234375 c 0,-0.5976562 0.175781,-1.1835937 0.5625,-1.6992187 0.375,-0.5390625 0.878906,-0.9609375 1.5,-1.2773438 0.621093,-0.3281254 1.277343,-0.4804684 1.980468,-0.4804684 1.042969,0 1.933594,0.2226559 2.71875,0.6562497 0.785157,0.4453125 1.394532,1.0664062 1.839844,1.8398437 0.445313,0.796875 0.65625,1.6992188 0.65625,2.7421875 0,0.9375 -0.234375,1.8164063 -0.691406,2.6015625 -0.480469,0.7851563 -1.125,1.41796879 -1.921875,1.89843754 -0.820313,0.45703125 -1.722656,0.703125 -2.742188,0.703125 z m 0,-2.66015624 c 0.480469,0 0.914063,-0.1171875 1.300782,-0.3632813 0.375,-0.2226562 0.679687,-0.5390625 0.902343,-0.9140625 0.210938,-0.4101562 0.316407,-0.8203125 0.316407,-1.2890625 0,-0.4570312 -0.105469,-0.8789062 -0.316407,-1.2773437 -0.222656,-0.375 -0.527343,-0.703125 -0.902343,-0.9140625 -0.386719,-0.2460938 -0.820313,-0.3632813 -1.300782,-0.3632813 -0.503906,0 -0.925781,0.1171875 -1.300781,0.3632813 -0.375,0.2109375 -0.679687,0.5390625 -0.902344,0.9140625 -0.222656,0.3984375 -0.339843,0.8203125 -0.339843,1.2773437 0,0.46875 0.117187,0.8789063 0.339843,1.2890625 0.222657,0.375 0.527344,0.6914063 0.902344,0.9140625 0.375,0.2460938 0.796875,0.3632813 1.300781,0.3632813 z m 9.418946,-7.5234375 h 2.835937 V 3.599375e-4 h -2.835937 z m 1.417968,-1.4648442 c -0.316406,0 -0.597656,-0.07031 -0.878906,-0.234375 -0.257812,-0.164062 -0.480469,-0.375 -0.644531,-0.644531 -0.152344,-0.28125 -0.234375,-0.550781 -0.234375,-0.878906 0,-0.339844 0.08203,-0.632813 0.234375,-0.902344 0.164062,-0.257812 0.386719,-0.480469 0.644531,-0.632812 0.28125,-0.140625 0.5625,-0.222657 0.878906,-0.222657 0.339844,0 0.621094,0.08203 0.878907,0.222657 0.257812,0.152343 0.480468,0.375 0.644531,0.632812 0.152344,0.269531 0.234375,0.5625 0.234375,0.902344 0,0.328125 -0.08203,0.597656 -0.234375,0.878906 -0.164063,0.269531 -0.386719,0.480469 -0.644531,0.644531 -0.257813,0.164063 -0.539063,0.234375 -0.878907,0.234375 z m 6.342774,-3.070312 h 2.835937 V 3.599375e-4 h -2.835937 z m 7.798828,4.5351562 h 2.835937 V 3.599375e-4 h -2.835937 z m 1.417969,-1.4648442 c -0.316407,0 -0.597657,-0.07031 -0.878907,-0.234375 -0.257812,-0.164062 -0.480468,-0.375 -0.644531,-0.644531 -0.152344,-0.28125 -0.234375,-0.550781 -0.234375,-0.878906 0,-0.339844 0.08203,-0.632813 0.234375,-0.902344 0.164063,-0.257812 0.386719,-0.480469 0.644531,-0.632812 0.28125,-0.140625 0.5625,-0.222657 0.878907,-0.222657 0.339843,0 0.621093,0.08203 0.878906,0.222657 0.257812,0.152343 0.480469,0.375 0.644531,0.632812 0.152344,0.269531 0.234375,0.5625 0.234375,0.902344 0,0.328125 -0.08203,0.597656 -0.234375,0.878906 -0.164062,0.269531 -0.386719,0.480469 -0.644531,0.644531 -0.257813,0.164063 -0.539063,0.234375 -0.878906,0.234375 z m 10.40332,11.64843794 c -0.960938,0 -1.816406,-0.24609375 -2.566406,-0.7265625 -0.714844,-0.45703125 -1.289063,-1.08984374 -1.710938,-1.89843754 -0.421875,-0.7734375 -0.644531,-1.6523437 -0.644531,-2.6132812 0,-0.9609375 0.246094,-1.8398438 0.714844,-2.625 0.480468,-0.796875 1.125,-1.4179688 1.921875,-1.8984375 0.808593,-0.4570313 1.722656,-0.7031252 2.742187,-0.7031252 1.019531,0 1.945313,0.2226564 2.765625,0.6796877 0.796875,0.4570312 1.441406,1.078125 1.898438,1.8632812 0.457031,0.7734375 0.703125,1.6757813 0.703125,2.6835938 V 3.599375e-4 H 82.323218 V -3.5621401 l 0.84375,-0.234375 c 0,0.7734375 -0.164063,1.453125 -0.480469,2.0742188 -0.339844,0.6210937 -0.808594,1.10156249 -1.382812,1.46484374 -0.597657,0.36328125 -1.300782,0.5390625 -2.121094,0.5390625 z m 0.457031,-2.68359374 c 0.480469,0 0.925781,-0.09375 1.300781,-0.3398438 0.386719,-0.234375 0.679688,-0.5390625 0.902344,-0.9140625 0.222656,-0.4101562 0.316406,-0.8203125 0.316406,-1.2890625 0,-0.4804687 -0.09375,-0.890625 -0.316406,-1.3007812 -0.222656,-0.375 -0.515625,-0.6914063 -0.902344,-0.9140625 -0.375,-0.2460938 -0.820312,-0.3398438 -1.300781,-0.3398438 -0.492187,0 -0.914062,0.09375 -1.300781,0.3398438 -0.375,0.2226562 -0.679688,0.5390625 -0.902344,0.9140625 -0.210937,0.4101562 -0.339844,0.8203125 -0.339844,1.3007812 0,0.46875 0.128907,0.8789063 0.339844,1.2890625 0.222656,0.375 0.527344,0.6796875 0.902344,0.9140625 0.386719,0.2460938 0.808594,0.3398438 1.300781,0.3398438 z M 92.020484,3.599375e-4 H 89.184546 V -5.6832338 c 0,-0.8320313 0.152344,-1.59375 0.492188,-2.2734375 0.328125,-0.6796875 0.808593,-1.2070313 1.464843,-1.6054688 0.644532,-0.3984375 1.464844,-0.5976559 2.425782,-0.5976559 0.339843,0 0.65625,0.03516 0.972656,0.09375 0.328125,0.05859 0.621094,0.1406247 0.867187,0.2695309 v 2.7304688 c -0.246093,-0.140625 -0.503906,-0.234375 -0.761718,-0.2929688 -0.28125,-0.082031 -0.5625,-0.1054687 -0.820313,-0.1054687 -0.539062,0 -0.984375,0.1640625 -1.300781,0.5039062 -0.339844,0.3398438 -0.503906,0.796875 -0.503906,1.3828125 z M 98.500952,-9.9019838 h 2.835938 V 3.599375e-4 h -2.835938 z m 1.417969,-1.4648442 c -0.316406,0 -0.597656,-0.07031 -0.878906,-0.234375 -0.257813,-0.164062 -0.480469,-0.375 -0.644531,-0.644531 -0.152344,-0.28125 -0.234375,-0.550781 -0.234375,-0.878906 0,-0.339844 0.08203,-0.632813 0.234375,-0.902344 0.164062,-0.257812 0.386718,-0.480469 0.644531,-0.632812 0.28125,-0.140625 0.5625,-0.222657 0.878906,-0.222657 0.339839,0 0.621089,0.08203 0.878909,0.222657 0.25781,0.152343 0.48047,0.375 0.64453,0.632812 0.15234,0.269531 0.23437,0.5625 0.23437,0.902344 0,0.328125 -0.082,0.597656 -0.23437,0.878906 -0.16406,0.269531 -0.38672,0.480469 -0.64453,0.644531 -0.25782,0.164063 -0.53907,0.234375 -0.878909,0.234375 z M 110.77927,0.28160994 c -1.01953,0 -1.92187,-0.24609375 -2.74218,-0.7265625 -0.79688,-0.45703125 -1.44141,-1.08984374 -1.92188,-1.89843754 -0.46875,-0.7734375 -0.71484,-1.6523437 -0.71484,-2.6132812 0,-0.9609375 0.24609,-1.8398438 0.71484,-2.625 0.48047,-0.796875 1.125,-1.4179688 1.92188,-1.8984375 0.82031,-0.4570313 1.72265,-0.7031252 2.74218,-0.7031252 1.01953,0 1.94532,0.2460939 2.74219,0.7031252 0.79688,0.4804687 1.44141,1.1015625 1.92188,1.8984375 0.45703,0.7851562 0.70312,1.6640625 0.70312,2.625 0,0.9609375 -0.24609,1.8398437 -0.70312,2.6132812 -0.48047,0.8085938 -1.125,1.44140629 -1.92188,1.89843754 -0.82031,0.48046875 -1.72266,0.7265625 -2.74219,0.7265625 z m 0,-2.68359374 c 0.50391,0 0.92578,-0.09375 1.30078,-0.3398438 0.38672,-0.234375 0.67969,-0.5390625 0.90235,-0.9140625 0.22265,-0.4101562 0.3164,-0.8203125 0.3164,-1.2890625 0,-0.4804687 -0.0937,-0.890625 -0.3164,-1.3007812 -0.22266,-0.375 -0.51563,-0.6914063 -0.90235,-0.9140625 -0.375,-0.2460938 -0.79687,-0.3398438 -1.30078,-0.3398438 -0.48047,0 -0.91406,0.09375 -1.30078,0.3398438 -0.375,0.2226562 -0.67969,0.5390625 -0.90234,0.9140625 -0.21094,0.4101562 -0.33985,0.8203125 -0.33985,1.3007812 0,0.46875 0.12891,0.8789063 0.33985,1.2890625 0.22265,0.375 0.52734,0.6796875 0.90234,0.9140625 0.38672,0.2460938 0.82031,0.3398438 1.30078,0.3398438 z m 21.38672,2.66015624 c -1.04297,0 -1.96875,-0.22265625 -2.78906,-0.65625 -0.82031,-0.45703125 -1.45313,-1.07812504 -1.92188,-1.86328124 -0.46875,-0.796875 -0.71484,-1.7226563 -0.71484,-2.7773438 0,-0.9375 0.22266,-1.828125 0.65625,-2.6015625 0.42188,-0.796875 1.01953,-1.4179687 1.80469,-1.8984375 0.78515,-0.4687504 1.67578,-0.7031254 2.69531,-0.7031254 1.04297,0 1.94531,0.222657 2.66016,0.6796879 0.75,0.4570313 1.32422,1.078125 1.71093,1.8398438 0.39844,0.7617187 0.59766,1.5820312 0.59766,2.484375 v 0.8554687 h -7.86328 l 0.43359,-0.7148437 c -0.0117,0.5742187 0.082,1.078125 0.30469,1.5117187 0.22266,0.4453125 0.53906,0.7851563 0.9375,1.03125 0.42188,0.234375 0.90234,0.3515625 1.44141,0.3515625 0.53906,0 1.04297,-0.1171875 1.46484,-0.3515625 0.43359,-0.2695312 0.76172,-0.6210937 0.99609,-1.0898437 l 2.17969,1.125 c -0.43359,0.8789062 -1.04297,1.55859374 -1.83984,2.06249999 -0.79688,0.48046875 -1.72266,0.71484375 -2.75391,0.71484375 z m -2.5664,-6.22265624 h 4.41796 c -0.0351,-0.3515625 -0.15234,-0.65625 -0.33984,-0.9375 -0.19922,-0.2578125 -0.43359,-0.4804688 -0.75,-0.6445313 -0.30469,-0.1523437 -0.66797,-0.234375 -1.06641,-0.234375 -0.39843,0 -0.76171,0.082031 -1.07812,0.234375 -0.31641,0.1875 -0.5625,0.3867188 -0.76172,0.6679688 -0.19922,0.28125 -0.33984,0.5742187 -0.42187,0.9140625 z m 16.25976,-1.453125 c -0.51562,0 -0.96094,0.140625 -1.30078,0.3984375 -0.36328,0.2578125 -0.59766,0.5976562 -0.76172,1.0195312 -0.17578,0.421875 -0.25781,0.9023438 -0.25781,1.3945313 V 3.599375e-4 H 140.7031 V -4.9215151 c 0,-0.984375 0.19922,-1.8632812 0.57422,-2.6367187 0.38672,-0.8085938 0.9375,-1.4179688 1.69922,-1.8984375 0.78515,-0.4804688 1.74609,-0.7031247 2.88281,-0.7031247 1.16016,0 2.14453,0.2226559 2.90625,0.7031247 0.76172,0.4570312 1.33594,1.0898437 1.71094,1.875 0.38672,0.796875 0.58594,1.6757812 0.58594,2.6601562 V 3.599375e-4 h -2.83594 V -4.5816713 c 0,-0.515625 -0.082,-0.984375 -0.26953,-1.4179688 -0.15235,-0.421875 -0.41016,-0.7617187 -0.76172,-1.0195312 -0.33985,-0.2578125 -0.79688,-0.3984375 -1.33594,-0.3984375 z m 26.625,4.6757812 h -7.78125 v -2.6132812 h 7.78125 z M 161.96091,3.599375e-4 165.54685,-11.542609 c 0.21094,-0.738281 0.59766,-1.277344 1.16016,-1.640625 0.53906,-0.363281 1.13672,-0.539062 1.75781,-0.539062 0.63281,0 1.24219,0.175781 1.78125,0.539062 0.53906,0.363281 0.91406,0.902344 1.13672,1.640625 l 3.58594,11.5429689375 h -2.98829 L 168.92185,-10.68714 c -0.082,-0.269531 -0.23437,-0.398438 -0.44531,-0.398438 -0.21094,0 -0.35156,0.128907 -0.4336,0.398438 L 164.93748,3.599375e-4 Z m 20.9795,0.2578125025 c -0.73829,0.0234375 -1.41797,-0.1171875 -2.07422,-0.3984375 -0.64453,-0.2578125 -1.23047,-0.64453125 -1.71094,-1.12500004 -0.46875,-0.4804687 -0.83203,-1.03125 -1.11328,-1.6757812 -0.28125,-0.6445313 -0.42188,-1.3007813 -0.42188,-2.015625 0,-0.7265625 0.14063,-1.3828125 0.42188,-2.0273438 0.28125,-0.6328125 0.64453,-1.1953125 1.11328,-1.6757812 0.48047,-0.4804688 1.06641,-0.84375 1.71094,-1.125 0.65625,-0.2578127 1.33593,-0.3984377 2.07422,-0.3749997 0.96093,0 1.86328,0.2226559 2.68359,0.6796872 0.79687,0.4335937 1.44141,1.1367187 1.89844,2.0976562 l -2.35547,1.2773438 c -0.22266,-0.4335938 -0.52735,-0.7734375 -0.90235,-1.0195313 -0.38671,-0.2578125 -0.82031,-0.375 -1.32421,-0.375 -0.45704,0 -0.87891,0.1171875 -1.25391,0.3398438 -0.38672,0.234375 -0.66797,0.5390625 -0.89063,0.9140625 -0.21093,0.3867187 -0.33984,0.8085937 -0.33984,1.2890625 0,0.4570312 0.12891,0.8789062 0.33984,1.2773437 0.22266,0.375 0.50391,0.703125 0.89063,0.9140625 0.375,0.2460938 0.79687,0.3632813 1.25391,0.3632813 0.5039,0 0.9375,-0.140625 1.32421,-0.375 0.375,-0.2578125 0.67969,-0.5976563 0.90235,-1.0195313 l 2.35547,1.2773438 c -0.45703,0.9375 -1.10157,1.66406249 -1.89844,2.09765624 -0.82031,0.4453125 -1.72266,0.6796875 -2.68359,0.6796875 z m 12.96386,0 c -1.04297,0 -1.96875,-0.22265625 -2.78906,-0.65625 -0.82031,-0.45703125 -1.45312,-1.07812504 -1.92187,-1.86328124 -0.46875,-0.796875 -0.71485,-1.7226563 -0.71485,-2.7773438 0,-0.9375 0.22266,-1.828125 0.65625,-2.6015625 0.42188,-0.796875 1.01953,-1.4179687 1.80469,-1.8984375 0.78516,-0.4687504 1.67578,-0.7031254 2.69531,-0.7031254 1.04297,0 1.94531,0.222657 2.66016,0.6796879 0.75,0.4570313 1.32422,1.078125 1.71094,1.8398438 0.39843,0.7617187 0.59765,1.5820312 0.59765,2.484375 v 0.8554687 h -7.86328 l 0.43359,-0.7148437 c -0.0117,0.5742187 0.082,1.078125 0.30469,1.5117187 0.22266,0.4453125 0.53906,0.7851563 0.9375,1.03125 0.42188,0.234375 0.90235,0.3515625 1.44141,0.3515625 0.53906,0 1.04297,-0.1171875 1.46484,-0.3515625 0.4336,-0.2695312 0.76172,-0.6210937 0.9961,-1.0898437 l 2.17968,1.125 c -0.43359,0.8789062 -1.04297,1.55859374 -1.83984,2.06249999 -0.79688,0.48046875 -1.72266,0.71484375 -2.75391,0.71484375 z m -2.5664,-6.22265624 h 4.41797 c -0.0352,-0.3515625 -0.15235,-0.65625 -0.33985,-0.9375 -0.19922,-0.2578125 -0.43359,-0.4804688 -0.75,-0.6445313 -0.30469,-0.1523437 -0.66797,-0.234375 -1.0664,-0.234375 -0.39844,0 -0.76172,0.082031 -1.07813,0.234375 -0.31641,0.1875 -0.5625,0.3867188 -0.76172,0.6679688 -0.19922,0.28125 -0.33984,0.5742187 -0.42187,0.9140625 z m 13.94238,5.9648437375 h -2.83594 V -5.6832338 c 0,-0.8320313 0.15235,-1.59375 0.49219,-2.2734375 0.32812,-0.6796875 0.80859,-1.2070313 1.46484,-1.6054688 0.64453,-0.3984375 1.46485,-0.5976559 2.42578,-0.5976559 0.33985,0 0.65625,0.03516 0.97266,0.09375 0.32813,0.05859 0.62109,0.1406247 0.86719,0.2695309 v 2.7304688 c -0.2461,-0.140625 -0.50391,-0.234375 -0.76172,-0.2929688 -0.28125,-0.082031 -0.5625,-0.1054687 -0.82031,-0.1054687 -0.53907,0 -0.98438,0.1640625 -1.30078,0.5039062 -0.33985,0.3398438 -0.50391,0.796875 -0.50391,1.3828125 z M 218.70017,0.28160994 c -1.01953,0 -1.92187,-0.24609375 -2.74219,-0.7265625 -0.79687,-0.45703125 -1.4414,-1.08984374 -1.92187,-1.89843754 -0.46875,-0.7734375 -0.71485,-1.6523437 -0.71485,-2.6132812 0,-0.9609375 0.2461,-1.8398438 0.71485,-2.625 0.48047,-0.796875 1.125,-1.4179688 1.92187,-1.8984375 0.82032,-0.4570313 1.72266,-0.7031252 2.74219,-0.7031252 1.01953,0 1.94531,0.2460939 2.74219,0.7031252 0.79687,0.4804687 1.4414,1.1015625 1.92187,1.8984375 0.45703,0.7851562 0.70313,1.6640625 0.70313,2.625 0,0.9609375 -0.2461,1.8398437 -0.70313,2.6132812 -0.48047,0.8085938 -1.125,1.44140629 -1.92187,1.89843754 -0.82031,0.48046875 -1.72266,0.7265625 -2.74219,0.7265625 z m 0,-2.68359374 c 0.50391,0 0.92578,-0.09375 1.30078,-0.3398438 0.38672,-0.234375 0.67969,-0.5390625 0.90235,-0.9140625 0.22265,-0.4101562 0.3164,-0.8203125 0.3164,-1.2890625 0,-0.4804687 -0.0937,-0.890625 -0.3164,-1.3007812 -0.22266,-0.375 -0.51563,-0.6914063 -0.90235,-0.9140625 -0.375,-0.2460938 -0.79687,-0.3398438 -1.30078,-0.3398438 -0.48047,0 -0.91406,0.09375 -1.30078,0.3398438 -0.375,0.2226562 -0.67969,0.5390625 -0.90234,0.9140625 -0.21094,0.4101562 -0.33985,0.8203125 -0.33985,1.3007812 0,0.46875 0.12891,0.8789063 0.33985,1.2890625 0.22265,0.375 0.52734,0.6796875 0.90234,0.9140625 0.38672,0.2460938 0.82031,0.3398438 1.30078,0.3398438 z m 17.0625,-11.0390622 h 2.91797 V 3.599375e-4 h -2.91797 z m 12.83789,6.0234372 c -0.51562,0 -0.96094,0.140625 -1.30078,0.3984375 -0.36328,0.2578125 -0.59766,0.5976562 -0.76172,1.0195312 -0.17578,0.421875 -0.25781,0.9023438 -0.25781,1.3945313 V 3.599375e-4 h -2.83594 V -4.9215151 c 0,-0.984375 0.19922,-1.8632812 0.57422,-2.6367187 0.38672,-0.8085938 0.9375,-1.4179688 1.69922,-1.8984375 0.78516,-0.4804688 1.74609,-0.7031247 2.88281,-0.7031247 1.16016,0 2.14453,0.2226559 2.90625,0.7031247 0.76172,0.4570312 1.33594,1.0898437 1.71094,1.875 0.38672,0.796875 0.58594,1.6757812 0.58594,2.6601562 V 3.599375e-4 h -2.83594 V -4.5816713 c 0,-0.515625 -0.082,-0.984375 -0.26953,-1.4179688 -0.15235,-0.421875 -0.41016,-0.7617187 -0.76172,-1.0195312 -0.33984,-0.2578125 -0.79688,-0.3984375 -1.33594,-0.3984375 z m 14.23828,7.69921874 c -1.01953,0 -1.92187,-0.24609375 -2.74218,-0.7265625 -0.79688,-0.45703125 -1.44141,-1.08984374 -1.92188,-1.89843754 -0.46875,-0.7734375 -0.71484,-1.6523437 -0.71484,-2.6132812 0,-0.9609375 0.24609,-1.8398438 0.71484,-2.625 0.48047,-0.796875 1.125,-1.4179688 1.92188,-1.8984375 0.82031,-0.4570313 1.72265,-0.7031252 2.74218,-0.7031252 1.01953,0 1.94532,0.2460939 2.74219,0.7031252 0.79688,0.4804687 1.44141,1.1015625 1.92188,1.8984375 0.45703,0.7851562 0.70312,1.6640625 0.70312,2.625 0,0.9609375 -0.24609,1.8398437 -0.70312,2.6132812 -0.48047,0.8085938 -1.125,1.44140629 -1.92188,1.89843754 -0.82031,0.48046875 -1.72266,0.7265625 -2.74219,0.7265625 z m 0,-2.68359374 c 0.50391,0 0.92578,-0.09375 1.30078,-0.3398438 0.38672,-0.234375 0.67969,-0.5390625 0.90235,-0.9140625 0.22265,-0.4101562 0.3164,-0.8203125 0.3164,-1.2890625 0,-0.4804687 -0.0937,-0.890625 -0.3164,-1.3007812 -0.22266,-0.375 -0.51563,-0.6914063 -0.90235,-0.9140625 -0.375,-0.2460938 -0.79687,-0.3398438 -1.30078,-0.3398438 -0.48047,0 -0.91406,0.09375 -1.30078,0.3398438 -0.375,0.2226562 -0.67969,0.5390625 -0.90234,0.9140625 -0.21094,0.4101562 -0.33985,0.8203125 -0.33985,1.3007812 0,0.46875 0.12891,0.8789063 0.33985,1.2890625 0.22265,0.375 0.52734,0.6796875 0.90234,0.9140625 0.38672,0.2460938 0.82031,0.3398438 1.30078,0.3398438 z m 19.47657,2.4023437375 h -3.17579 L 277.44041,-2.7183901 c -0.17579,-0.3164062 -0.33985,-0.6796875 -0.44532,-1.0664062 -0.0937,-0.375 -0.14062,-0.7382813 -0.14062,-1.1132813 0,-0.3867187 0.0469,-0.7617187 0.14062,-1.1484375 0.10547,-0.375 0.26953,-0.7382812 0.44532,-1.078125 l 1.67578,-2.7773437 h 3.22265 l -2.3789,3.9023437 c -0.25782,0.421875 -0.39844,0.7734375 -0.39844,1.0546875 0,0.328125 0.14062,0.7265625 0.43359,1.1835938 z m -8.13282,0 h -3.1875 L 273.31541,-3.7613588 c 0.28125,-0.4570313 0.44531,-0.8554688 0.44531,-1.1835938 0,-0.28125 -0.14063,-0.6328125 -0.39844,-1.0546875 l -2.37891,-3.9023437 h 3.21094 l 1.66406,2.7773437 c 0.19922,0.3398438 0.36329,0.703125 0.45704,1.078125 0.10546,0.3867188 0.14062,0.7617188 0.14062,1.1484375 0,0.375 -0.0352,0.7382813 -0.14062,1.1132813 -0.0937,0.3867187 -0.25782,0.75 -0.45704,1.0664062 z M 278.45994,-3.7262026 h -3.375 v -2.53125 h 3.375 z m 7.90136,-6.1757812 h 2.83594 V 3.599375e-4 h -2.83594 z m 1.41797,-1.4648442 c -0.3164,0 -0.59765,-0.07031 -0.8789,-0.234375 -0.25782,-0.164062 -0.48047,-0.375 -0.64453,-0.644531 -0.15235,-0.28125 -0.23438,-0.550781 -0.23438,-0.878906 0,-0.339844 0.082,-0.632813 0.23438,-0.902344 0.16406,-0.257812 0.38671,-0.480469 0.64453,-0.632812 0.28125,-0.140625 0.5625,-0.222657 0.8789,-0.222657 0.33985,0 0.6211,0.08203 0.87891,0.222657 0.25781,0.152343 0.48047,0.375 0.64453,0.632812 0.15234,0.269531 0.23438,0.5625 0.23438,0.902344 0,0.328125 -0.082,0.597656 -0.23438,0.878906 -0.16406,0.269531 -0.38672,0.480469 -0.64453,0.644531 -0.25781,0.164063 -0.53906,0.234375 -0.87891,0.234375 z m 10.88086,11.64843794 c -1.01953,0 -1.93359,-0.24609375 -2.74219,-0.703125 -0.79687,-0.48046875 -1.4414,-1.11328124 -1.92187,-1.89843754 -0.46875,-0.7851562 -0.71484,-1.6640625 -0.71484,-2.6015625 0,-1.0429687 0.22265,-1.9453125 0.65625,-2.7421875 0.44531,-0.7734375 1.0664,-1.3945312 1.83984,-1.8398437 0.80859,-0.4335938 1.71094,-0.6562497 2.73047,-0.6562497 0.71484,0 1.37109,0.152343 1.99219,0.4804684 0.59765,0.3164063 1.10156,0.7382813 1.48828,1.2773438 0.375,0.515625 0.57422,1.1015625 0.57422,1.6992187 l -1.38282,-0.234375 V -14.43714 h 2.84766 v 9.5156249 c 0,0.984375 -0.24609,1.8867188 -0.70313,2.6601563 -0.45703,0.796875 -1.10156,1.41796874 -1.89843,1.86328124 -0.82032,0.45703125 -1.7461,0.6796875 -2.76563,0.6796875 z m 0,-2.66015624 c 0.48047,0 0.92578,-0.1171875 1.30078,-0.3632813 0.38672,-0.2226562 0.67969,-0.5390625 0.90235,-0.9140625 0.22265,-0.4101562 0.3164,-0.8203125 0.3164,-1.2890625 0,-0.4570312 -0.0937,-0.8789062 -0.3164,-1.2773437 -0.22266,-0.375 -0.51563,-0.703125 -0.90235,-0.9140625 -0.375,-0.2460938 -0.82031,-0.3632813 -1.30078,-0.3632813 -0.49219,0 -0.91406,0.1171875 -1.30078,0.3632813 -0.375,0.2109375 -0.67969,0.5390625 -0.90234,0.9140625 -0.21094,0.3984375 -0.33985,0.8203125 -0.33985,1.2773437 0,0.46875 0.12891,0.8789063 0.33985,1.2890625 0.22265,0.375 0.52734,0.6914063 0.90234,0.9140625 0.38672,0.2460938 0.80859,0.3632813 1.30078,0.3632813 z m 13.94238,2.66015624 c -0.96093,0 -1.8164,-0.24609375 -2.5664,-0.7265625 -0.71485,-0.45703125 -1.28906,-1.08984374 -1.71094,-1.89843754 -0.42187,-0.7734375 -0.64453,-1.6523437 -0.64453,-2.6132812 0,-0.9609375 0.24609,-1.8398438 0.71484,-2.625 0.48047,-0.796875 1.125,-1.4179688 1.92188,-1.8984375 0.80859,-0.4570313 1.72265,-0.7031252 2.74219,-0.7031252 1.01953,0 1.94531,0.2226564 2.76562,0.6796877 0.79688,0.4570312 1.44141,1.078125 1.89844,1.8632812 0.45703,0.7734375 0.70312,1.6757813 0.70312,2.6835938 V 3.599375e-4 h -2.68359 V -3.5621401 l 0.84375,-0.234375 c 0,0.7734375 -0.16406,1.453125 -0.48047,2.0742188 -0.33984,0.6210937 -0.80859,1.10156249 -1.38281,1.46484374 -0.59766,0.36328125 -1.30078,0.5390625 -2.1211,0.5390625 z m 0.45704,-2.68359374 c 0.48046,0 0.92578,-0.09375 1.30078,-0.3398438 0.38672,-0.234375 0.67968,-0.5390625 0.90234,-0.9140625 0.22266,-0.4101562 0.31641,-0.8203125 0.31641,-1.2890625 0,-0.4804687 -0.0937,-0.890625 -0.31641,-1.3007812 -0.22266,-0.375 -0.51562,-0.6914063 -0.90234,-0.9140625 -0.375,-0.2460938 -0.82032,-0.3398438 -1.30078,-0.3398438 -0.49219,0 -0.91407,0.09375 -1.30079,0.3398438 -0.375,0.2226562 -0.67968,0.5390625 -0.90234,0.9140625 -0.21094,0.4101562 -0.33984,0.8203125 -0.33984,1.3007812 0,0.46875 0.1289,0.8789063 0.33984,1.2890625 0.22266,0.375 0.52734,0.6796875 0.90234,0.9140625 0.38672,0.2460938 0.8086,0.3398438 1.30079,0.3398438 z m 14.90332,2.68359374 c -1.04297,0 -1.95703,-0.22265625 -2.76563,-0.6796875 -0.82031,-0.4453125 -1.4414,-1.06640624 -1.92187,-1.86328124 -0.45703,-0.7734375 -0.69141,-1.6757813 -0.69141,-2.6601563 V -14.43714 h 2.83594 v 7.4999999 l -1.35938,0.234375 c 0,-0.5976562 0.17578,-1.1835937 0.5625,-1.6992187 0.375,-0.5390625 0.87891,-0.9609375 1.5,-1.2773438 0.6211,-0.3281254 1.27735,-0.4804684 1.98047,-0.4804684 1.04297,0 1.9336,0.2226559 2.71875,0.6562497 0.78516,0.4453125 1.39453,1.0664062 1.83985,1.8398437 0.44531,0.796875 0.65625,1.6992188 0.65625,2.7421875 0,0.9375 -0.23438,1.8164063 -0.69141,2.6015625 -0.48047,0.7851563 -1.125,1.41796879 -1.92188,1.89843754 -0.82031,0.45703125 -1.72265,0.703125 -2.74218,0.703125 z m 0,-2.66015624 c 0.48047,0 0.91406,-0.1171875 1.30078,-0.3632813 0.375,-0.2226562 0.67969,-0.5390625 0.90234,-0.9140625 0.21094,-0.4101562 0.31641,-0.8203125 0.31641,-1.2890625 0,-0.4570312 -0.10547,-0.8789062 -0.31641,-1.2773437 -0.22265,-0.375 -0.52734,-0.703125 -0.90234,-0.9140625 -0.38672,-0.2460938 -0.82031,-0.3632813 -1.30078,-0.3632813 -0.50391,0 -0.92578,0.1171875 -1.30078,0.3632813 -0.375,0.2109375 -0.67969,0.5390625 -0.90235,0.9140625 -0.22265,0.3984375 -0.33984,0.8203125 -0.33984,1.2773437 0,0.46875 0.11719,0.8789063 0.33984,1.2890625 0.22266,0.375 0.52735,0.6914063 0.90235,0.9140625 0.375,0.2460938 0.79687,0.3632813 1.30078,0.3632813 z m 9.41894,-12.0585937 h 2.83594 V 3.599375e-4 h -2.83594 z m 12.34278,14.69531244 c -1.04297,0 -1.96875,-0.22265625 -2.78907,-0.65625 -0.82031,-0.45703125 -1.45312,-1.07812504 -1.92187,-1.86328124 -0.46875,-0.796875 -0.71485,-1.7226563 -0.71485,-2.7773438 0,-0.9375 0.22266,-1.828125 0.65625,-2.6015625 0.42188,-0.796875 1.01954,-1.4179687 1.80469,-1.8984375 0.78516,-0.4687504 1.67578,-0.7031254 2.69531,-0.7031254 1.04297,0 1.94532,0.222657 2.66016,0.6796879 0.75,0.4570313 1.32422,1.078125 1.71094,1.8398438 0.39844,0.7617187 0.59765,1.5820312 0.59765,2.484375 v 0.8554687 h -7.86328 l 0.4336,-0.7148437 c -0.0117,0.5742187 0.082,1.078125 0.30468,1.5117187 0.22266,0.4453125 0.53907,0.7851563 0.9375,1.03125 0.42188,0.234375 0.90235,0.3515625 1.44141,0.3515625 0.53906,0 1.04297,-0.1171875 1.46484,-0.3515625 0.4336,-0.2695312 0.76172,-0.6210937 0.9961,-1.0898437 l 2.17969,1.125 c -0.4336,0.8789062 -1.04297,1.55859374 -1.83985,2.06249999 -0.79687,0.48046875 -1.72265,0.71484375 -2.7539,0.71484375 z m -2.56641,-6.22265624 h 4.41797 c -0.0352,-0.3515625 -0.15235,-0.65625 -0.33985,-0.9375 -0.19921,-0.2578125 -0.43359,-0.4804688 -0.75,-0.6445313 -0.30468,-0.1523437 -0.66796,-0.234375 -1.0664,-0.234375 -0.39844,0 -0.76172,0.082031 -1.07813,0.234375 -0.3164,0.1875 -0.5625,0.3867188 -0.76172,0.6679688 -0.19921,0.28125 -0.33984,0.5742187 -0.42187,0.9140625 z m 0,0"
       style="fill:#d8ff00;fill-opacity:1;fill-rule:nonzero;stroke:none"
       aria-label="Mobiliario en Acero Inoxidable"
       transform="matrix(1.3333333,0,0,1.3333333,13.098991,302.2378)" />
  </g>
</svg>
