<?xml version="1.0" encoding="UTF-8" standalone="no"?>
<!-- Created with Inkscape (http://www.inkscape.org/) -->

<svg
   version="1.1"
   id="svg1"
   width="719.69647"
   height="500"
   viewBox="0 0 719.69646 500"
   sodipodi:docname="LukalShop.svg"
   inkscape:version="1.3.2 (091e20e, 2023-11-25, custom)"
   xmlns:inkscape="http://www.inkscape.org/namespaces/inkscape"
   xmlns:sodipodi="http://sodipodi.sourceforge.net/DTD/sodipodi-0.dtd"
   xmlns="http://www.w3.org/2000/svg"
   xmlns:svg="http://www.w3.org/2000/svg">
  <sodipodi:namedview
     id="namedview1"
     pagecolor="#505050"
     bordercolor="#ffffff"
     borderopacity="1"
     inkscape:showpageshadow="0"
     inkscape:pageopacity="0"
     inkscape:pagecheckerboard="1"
     inkscape:deskcolor="#505050"
     inkscape:zoom="0.777"
     inkscape:cx="150.57915"
     inkscape:cy="173.10167"
     inkscape:window-width="1920"
     inkscape:window-height="991"
     inkscape:window-x="-9"
     inkscape:window-y="-9"
     inkscape:window-maximized="1"
     inkscape:current-layer="svg1" />
  <defs
     id="defs1">
    <clipPath
       clipPathUnits="userSpaceOnUse"
       id="clipPath1470">
      <path
         d="M 0,595.276 H 841.89 V 0 H 0 Z"
         transform="translate(-519.18091,-334.88031)"
         id="path1470" />
    </clipPath>
    <clipPath
       clipPathUnits="userSpaceOnUse"
       id="clipPath1472">
      <path
         d="M 0,595.276 H 841.89 V 0 H 0 Z"
         transform="translate(-560.19232,-384.50951)"
         id="path1472" />
    </clipPath>
    <clipPath
       clipPathUnits="userSpaceOnUse"
       id="clipPath1474">
      <path
         d="M 0,595.276 H 841.89 V 0 H 0 Z"
         transform="translate(-669.24071,-334.88031)"
         id="path1474" />
    </clipPath>
    <clipPath
       clipPathUnits="userSpaceOnUse"
       id="clipPath1476">
      <path
         d="M 0,595.276 H 841.89 V 0 H 0 Z"
         transform="translate(-423.01461,-542.33151)"
         id="path1476" />
    </clipPath>
    <clipPath
       clipPathUnits="userSpaceOnUse"
       id="clipPath1478">
      <path
         d="M 0,595.276 H 841.89 V 0 H 0 Z"
         transform="translate(-506.67892,-450.82471)"
         id="path1478" />
    </clipPath>
    <clipPath
       clipPathUnits="userSpaceOnUse"
       id="clipPath1480">
      <path
         d="M 0,595.276 H 841.89 V 0 H 0 Z"
         transform="translate(-587.56001,-542.33151)"
         id="path1480" />
    </clipPath>
    <clipPath
       clipPathUnits="userSpaceOnUse"
       id="clipPath1482">
      <path
         d="M 0,595.276 H 841.89 V 0 H 0 Z"
         transform="translate(-636.45641,-461.33081)"
         id="path1482" />
    </clipPath>
    <clipPath
       clipPathUnits="userSpaceOnUse"
       id="clipPath1484">
      <path
         d="M 0,595.276 H 841.89 V 0 H 0 Z"
         transform="translate(-713.05802,-542.33151)"
         id="path1484" />
    </clipPath>
    <clipPath
       clipPathUnits="userSpaceOnUse"
       id="clipPath1486">
      <path
         d="M 0,595.276 H 841.89 V 0 H 0 Z"
         id="path1486" />
    </clipPath>
  </defs>
  <g
     id="g1808"
     transform="matrix(1.439393,0,0,1.439393,-407.43405,-177.03379)">
    <path
       id="path1469"
       d="m 0,0 v 42.733 c 0,5.653 -2.63,7.8 -6.816,7.8 -4.185,0 -6.816,-2.147 -6.816,-7.8 V 0 c 0,-5.654 2.631,-7.802 6.816,-7.802 C -2.63,-7.802 0,-5.654 0,0"
       style="fill:#d8ff00;fill-opacity:1;fill-rule:nonzero;stroke:none"
       transform="matrix(1.2758617,0,0,-1.2758617,465.86499,416.79829)"
       clip-path="url(#clipPath1470)" />
    <path
       id="path1471"
       d="M 0,0 H -6.219 V -26.794 H 0 c 4.185,0 6.457,1.808 6.457,7.463 V -7.462 C 6.457,-1.81 4.185,0 0,0"
       style="fill:#d8ff00;fill-opacity:1;fill-rule:nonzero;stroke:none"
       transform="matrix(1.2758617,0,0,-1.2758617,518.18987,353.47829)"
       clip-path="url(#clipPath1472)" />
    <path
       id="path1473"
       d="m 0,0 v 42.733 c 0,5.653 -2.632,7.8 -6.817,7.8 -4.186,0 -6.818,-2.147 -6.818,-7.8 V 0 c 0,-5.654 2.632,-7.802 6.818,-7.802 C -2.632,-7.802 0,-5.654 0,0"
       style="fill:#d8ff00;fill-opacity:1;fill-rule:nonzero;stroke:none"
       transform="matrix(1.2758617,0,0,-1.2758617,657.32055,416.79829)"
       clip-path="url(#clipPath1474)" />
    <path
       id="path1475"
       d="m 0,0 h -20.452 v -118.62 h 54.106 v 16.946 H 0 Z"
       style="fill:#d8ff00;fill-opacity:1;fill-rule:nonzero;stroke:none"
       transform="matrix(1.2758617,0,0,-1.2758617,343.17009,152.11923)"
       clip-path="url(#clipPath1476)" />
    <path
       id="path1477"
       d="m 0,0 c 0,-8.472 -4.09,-11.524 -10.597,-11.524 -6.508,0 -10.598,3.052 -10.598,11.524 V 91.507 H -41.647 V 1.186 c 0,-18.979 10.412,-29.824 30.491,-29.824 20.081,0 30.493,10.845 30.493,29.824 V 91.507 H 0 Z"
       style="fill:#d8ff00;fill-opacity:1;fill-rule:nonzero;stroke:none"
       transform="matrix(1.2758617,0,0,-1.2758617,449.91417,268.86926)"
       clip-path="url(#clipPath1478)" />
    <path
       id="path1479"
       d="M 0,0 -27.148,-51.684 V 0 H -47.6 v -118.62 h 20.452 v 36.434 l 6.322,10.845 19.896,-47.279 H 20.079 L -8.368,-52.87 20.079,0 Z"
       style="fill:#d8ff00;fill-opacity:1;fill-rule:nonzero;stroke:none"
       transform="matrix(1.2758617,0,0,-1.2758617,553.10726,152.11923)"
       clip-path="url(#clipPath1480)" />
    <path
       id="path1481"
       d="M 0,0 9.852,59.988 19.707,0 Z m -4.092,81.001 -20.824,-118.62 h 18.78 l 3.531,21.521 h 25.101 l 3.532,-21.521 H 46.667 L 25.843,81.001 Z"
       style="fill:#d8ff00;fill-opacity:1;fill-rule:nonzero;stroke:none"
       transform="matrix(1.2758617,0,0,-1.2758617,615.49231,255.46493)"
       clip-path="url(#clipPath1482)" />
    <path
       id="path1483"
       d="m 0,0 h -20.452 v -118.62 h 54.103 v 16.946 H 0 Z"
       style="fill:#d8ff00;fill-opacity:1;fill-rule:nonzero;stroke:none"
       transform="matrix(1.2758617,0,0,-1.2758617,713.22537,152.11923)"
       clip-path="url(#clipPath1484)" />
    <path
       id="path1485"
       d="M 382.103,558.959 H 761.59 V 408.405 H 382.103 Z m 342.376,-242.28 h -12.435 l -9.807,55.96 v -55.96 h -11.478 v 79.135 h 18.295 l 9.686,-56.185 8.97,56.185 h 18.296 v -79.135 h -12.438 v 56.75 z m -82.026,18.992 v 41.15 c 0,12.663 7.057,19.898 19.97,19.898 12.914,0 19.971,-7.235 19.971,-19.898 v -41.15 c 0,-12.663 -7.057,-19.898 -19.971,-19.898 -12.913,0 -19.97,7.235 -19.97,19.898 m -26.182,49.743 c -4.186,0 -6.817,-2.148 -6.817,-7.801 V 334.88 c 0,-5.654 2.631,-7.686 6.817,-7.686 4.185,0 6.817,2.032 6.817,7.686 v 11.306 h 12.436 v -10.515 c 0,-12.663 -6.697,-19.898 -19.613,-19.898 -12.914,0 -19.611,7.235 -19.611,19.898 v 41.15 c 0,12.663 6.697,19.898 19.611,19.898 12.916,0 19.613,-7.235 19.613,-19.898 v -7.688 h -12.436 v 8.48 c 0,5.653 -2.632,7.801 -6.817,7.801 m -27.26,-68.735 h -12.678 v 11.984 h 12.678 z m -9.207,49.29 c 0,-12.663 -6.457,-19.559 -19.612,-19.559 h -6.219 V 316.679 H 540.82 v 79.135 h 19.372 c 13.155,0 19.612,-6.896 19.612,-19.557 z m -87.409,-30.298 v 41.15 c 0,12.663 7.055,19.898 19.97,19.898 12.914,0 19.971,-7.235 19.971,-19.898 v -41.15 c 0,-12.663 -7.057,-19.898 -19.971,-19.898 -12.915,0 -19.97,7.235 -19.97,19.898 m -21.877,26.227 v 33.916 h 13.394 v -79.135 h -13.394 v 33.914 H 455.57 v -33.914 h -13.153 v 79.135 h 13.153 v -33.916 z m -55.599,-34.704 c 4.186,0 6.816,2.032 6.816,7.686 0,16.279 -25.71,19.332 -25.71,41.941 0,12.663 6.577,19.898 19.373,19.898 12.795,0 19.372,-7.235 19.372,-19.898 v -3.052 h -12.437 v 3.844 c 0,5.653 -2.391,7.801 -6.576,7.801 -4.186,0 -6.577,-2.148 -6.577,-7.801 0,-16.278 25.71,-19.331 25.71,-41.942 0,-12.663 -6.697,-19.898 -19.612,-19.898 -12.914,0 -19.611,7.235 -19.611,19.898 v 5.427 h 12.436 v -6.218 c 0,-5.654 2.631,-7.686 6.816,-7.686 M 375.901,565.161 V 408.405 292.899 h 391.892 v 115.506 156.756 z"
       style="fill:#d8ff00;fill-opacity:1;fill-rule:nonzero;stroke:none"
       transform="matrix(1.2758617,0,0,-1.2758617,-196.53806,844.05925)"
       clip-path="url(#clipPath1486)" />
  </g>
</svg>
